G04 Layer_Color=255*
%FSLAX44Y44*%
%MOMM*%
G71*
G01*
G75*
%ADD10R,0.7620X0.7620*%
%ADD11O,0.5500X1.6500*%
%ADD12O,1.6500X0.5500*%
%ADD13R,6.0960X1.2000*%
%ADD14R,2.5400X1.2700*%
%ADD15O,2.5400X1.2700*%
%ADD16R,0.8000X0.8000*%
%ADD17R,3.5000X1.6000*%
%ADD23C,1.2700*%
%ADD24R,1.5200X1.5200*%
%ADD25C,1.5200*%
%ADD26C,3.0000*%
%ADD27R,1.5200X1.5200*%
%ADD28C,2.0000*%
%ADD29C,4.0000*%
%ADD30C,1.5240*%
%ADD31C,6.3500*%
%ADD32C,3.0000*%
%ADD33C,1.4000*%
D10*
X1435100Y1102360D02*
D03*
X1449070D02*
D03*
X1129030Y1377950D02*
D03*
X1115060D02*
D03*
X1186180D02*
D03*
X1172210D02*
D03*
X1252220D02*
D03*
X1238250D02*
D03*
X1315720D02*
D03*
X1301750D02*
D03*
X1064260Y1024890D02*
D03*
X1078230D02*
D03*
X1122680D02*
D03*
X1108710D02*
D03*
D11*
X1083250Y1127920D02*
D03*
X1091250D02*
D03*
X1099250D02*
D03*
X1107250D02*
D03*
X1115250D02*
D03*
X1123250D02*
D03*
X1131250D02*
D03*
X1139250D02*
D03*
Y1211420D02*
D03*
X1131250D02*
D03*
X1123250D02*
D03*
X1115250D02*
D03*
X1107250D02*
D03*
X1099250D02*
D03*
X1091250D02*
D03*
X1083250D02*
D03*
D12*
X1153000Y1141670D02*
D03*
Y1149670D02*
D03*
Y1157670D02*
D03*
Y1165670D02*
D03*
Y1173670D02*
D03*
Y1181670D02*
D03*
Y1189670D02*
D03*
Y1197670D02*
D03*
X1069500D02*
D03*
Y1189670D02*
D03*
Y1181670D02*
D03*
Y1173670D02*
D03*
Y1165670D02*
D03*
Y1157670D02*
D03*
Y1149670D02*
D03*
Y1141670D02*
D03*
D13*
X1145540Y1057910D02*
D03*
X1046480D02*
D03*
D14*
X1451610Y991870D02*
D03*
D15*
X1384300D02*
D03*
X1451610Y1031240D02*
D03*
X1384300D02*
D03*
D16*
X1172210Y1310260D02*
D03*
Y1326260D02*
D03*
X1115060Y1310260D02*
D03*
Y1326260D02*
D03*
X1238250Y1324230D02*
D03*
Y1340230D02*
D03*
X1301750Y1329310D02*
D03*
Y1345310D02*
D03*
D17*
X821750Y991870D02*
D03*
X765750D02*
D03*
Y1191260D02*
D03*
X821750D02*
D03*
D23*
X1338030Y788360D02*
D03*
Y908360D02*
D03*
D24*
X1357630Y878360D02*
D03*
X1410820Y1222220D02*
D03*
D25*
X1357630Y848360D02*
D03*
Y818360D02*
D03*
X1410820Y1252220D02*
D03*
Y1282220D02*
D03*
X1380820D02*
D03*
Y1252220D02*
D03*
Y1222220D02*
D03*
X1234440Y873910D02*
D03*
X1264440D02*
D03*
Y903910D02*
D03*
X1234440D02*
D03*
X1204440D02*
D03*
D26*
X1453819Y1252220D02*
D03*
X1234440Y830910D02*
D03*
D27*
X1204440Y873910D02*
D03*
D28*
X622370Y1182980D02*
D03*
X547370Y1232980D02*
D03*
Y1132980D02*
D03*
X622370D02*
D03*
Y982980D02*
D03*
X547370D02*
D03*
Y1182980D02*
D03*
X622370Y1232980D02*
D03*
D29*
X1014730Y1313180D02*
D03*
X938530D02*
D03*
Y1363980D02*
D03*
X1014730D02*
D03*
X976630Y1339850D02*
D03*
X716280Y1366520D02*
D03*
X792480D02*
D03*
Y1315720D02*
D03*
X716280D02*
D03*
X754380Y1339850D02*
D03*
X805180Y798830D02*
D03*
X728980D02*
D03*
Y849630D02*
D03*
X805180D02*
D03*
X767080Y825500D02*
D03*
X1043940Y798830D02*
D03*
X967740D02*
D03*
Y849630D02*
D03*
X1043940D02*
D03*
X1005840Y825500D02*
D03*
D30*
X1432560Y845887D02*
D03*
X1460500D02*
D03*
X1474470Y821690D02*
D03*
X1460500Y797493D02*
D03*
X1432560D02*
D03*
X1418590Y821690D02*
D03*
X1438910Y1386907D02*
D03*
X1466850D02*
D03*
X1480820Y1362710D02*
D03*
X1466850Y1338513D02*
D03*
X1438910D02*
D03*
X1424940Y1362710D02*
D03*
X548640Y1386907D02*
D03*
X576580D02*
D03*
X590550Y1362710D02*
D03*
X576580Y1338513D02*
D03*
X548640D02*
D03*
X534670Y1362710D02*
D03*
X548640Y843347D02*
D03*
X576580D02*
D03*
X590550Y819150D02*
D03*
X576580Y794953D02*
D03*
X548640D02*
D03*
X534670Y819150D02*
D03*
D31*
X1446530Y821690D02*
D03*
X1452880Y1362710D02*
D03*
X562610D02*
D03*
Y819150D02*
D03*
D32*
X697230Y1174750D02*
D03*
X695960Y1023620D02*
D03*
D33*
X770890Y1117600D02*
D03*
Y1092200D02*
D03*
Y1066800D02*
D03*
M02*
