G04 Layer_Color=128*
%FSLAX44Y44*%
%MOMM*%
G71*
G01*
G75*
%ADD10R,0.7620X0.7620*%
%ADD46R,1.7500X0.6500*%
%ADD47R,1.7800X0.7200*%
%ADD48R,0.7620X0.7620*%
%ADD49O,2.2000X0.6000*%
%ADD50R,2.0000X2.0000*%
%ADD51R,1.6000X0.6000*%
%ADD52R,1.5000X0.7000*%
%ADD53R,2.0000X2.0000*%
%ADD63C,2.2040*%
%ADD93C,2.2160*%
G36*
X592430Y1038550D02*
Y1031550D01*
X586430Y1025550D01*
X564430D01*
X558430Y1031550D01*
Y1038550D01*
X564430Y1044550D01*
X586430D01*
X592430Y1038550D01*
D02*
G37*
D10*
X1115060Y1080770D02*
D03*
X1129030D02*
D03*
X1047750Y1109980D02*
D03*
X1061720D02*
D03*
X1115060D02*
D03*
X1101090D02*
D03*
X767080Y927100D02*
D03*
X781050D02*
D03*
X641350Y1050290D02*
D03*
X655320D02*
D03*
X1010920Y1178560D02*
D03*
X996950D02*
D03*
Y1205230D02*
D03*
X1010920D02*
D03*
X995680Y1238250D02*
D03*
X1009650D02*
D03*
X1139190Y1250950D02*
D03*
X1153160D02*
D03*
X1197610Y1174750D02*
D03*
X1211580D02*
D03*
D46*
X667900Y965200D02*
D03*
X723900D02*
D03*
Y952500D02*
D03*
Y939800D02*
D03*
Y927100D02*
D03*
X667900D02*
D03*
Y939800D02*
D03*
Y952500D02*
D03*
D47*
X901700Y977900D02*
D03*
Y990600D02*
D03*
Y1003300D02*
D03*
Y1016000D02*
D03*
X948500D02*
D03*
Y1003300D02*
D03*
Y990600D02*
D03*
Y977900D02*
D03*
D48*
X1024890Y1016000D02*
D03*
Y1029970D02*
D03*
X1059180Y1016000D02*
D03*
Y1029970D02*
D03*
X1088390D02*
D03*
Y1016000D02*
D03*
X1022350Y1127760D02*
D03*
Y1141730D02*
D03*
X996950Y1127760D02*
D03*
Y1141730D02*
D03*
X1306830Y1016000D02*
D03*
Y1029970D02*
D03*
X1276350Y1016000D02*
D03*
Y1029970D02*
D03*
X1239520D02*
D03*
Y1016000D02*
D03*
X1308100Y990600D02*
D03*
Y976630D02*
D03*
X1276350Y990600D02*
D03*
Y976630D02*
D03*
X1240790D02*
D03*
Y990600D02*
D03*
X1087120Y976630D02*
D03*
Y990600D02*
D03*
X1059180D02*
D03*
Y976630D02*
D03*
X1024890Y990600D02*
D03*
Y976630D02*
D03*
D49*
X1191130Y1041400D02*
D03*
Y1028700D02*
D03*
Y1016000D02*
D03*
Y1003300D02*
D03*
Y990600D02*
D03*
Y977900D02*
D03*
Y965200D02*
D03*
X1143130Y1041400D02*
D03*
Y1028700D02*
D03*
Y1016000D02*
D03*
Y1003300D02*
D03*
Y990600D02*
D03*
Y977900D02*
D03*
Y965200D02*
D03*
D50*
X695960Y1073470D02*
D03*
Y1113470D02*
D03*
D51*
X599430Y1020050D02*
D03*
Y1050050D02*
D03*
D52*
X599930Y1035050D02*
D03*
D53*
X551500Y1087120D02*
D03*
X591500D02*
D03*
D63*
X697230Y1114740D02*
Y1174750D01*
X792480Y1315720D02*
Y1366520D01*
X765810Y1339850D02*
X792480Y1366520D01*
X727710D02*
X754380Y1339850D01*
X716280Y1315720D02*
Y1366520D01*
X630110Y1315720D02*
X716280D01*
X547370Y1232980D02*
X630110Y1315720D01*
X593090Y1088710D02*
Y1153700D01*
X622370Y1182980D01*
X667900Y965200D02*
X695960Y993260D01*
X667900Y910710D02*
X728980Y849630D01*
D93*
X695960Y993260D02*
Y1023620D01*
M02*
