G04 Layer_Color=16711935*
%FSLAX44Y44*%
%MOMM*%
G71*
G01*
G75*
%ADD19C,0.2000*%
%ADD55C,0.1270*%
%ADD98C,0.1000*%
D19*
X837890Y1031600D02*
Y1152600D01*
X748890Y1031600D02*
X837890D01*
X748890D02*
Y1152600D01*
X837890D01*
D55*
X825250Y991870D02*
G03*
X825250Y991870I-31500J0D01*
G01*
Y1191260D02*
G03*
X825250Y1191260I-31500J0D01*
G01*
X826750Y958870D02*
Y1024870D01*
X760750Y958870D02*
X826750D01*
X760750D02*
Y1024870D01*
X826750D01*
X760750Y1158260D02*
Y1224260D01*
X826750D01*
Y1158260D02*
Y1224260D01*
X760750Y1158260D02*
X826750D01*
D98*
X1161080Y968600D02*
G03*
X1161080Y968600I-5000J0D01*
G01*
X1090250Y1143670D02*
G03*
X1090250Y1143670I-5000J0D01*
G01*
X589930Y1021550D02*
G03*
X589930Y1021550I-5000J0D01*
G01*
X1147080Y1047000D02*
X1187180D01*
X1147080Y959600D02*
X1187180D01*
Y1047000D01*
X1147080Y959600D02*
Y1047000D01*
X1076250Y1134670D02*
X1146250D01*
X1076250Y1204670D02*
X1146250D01*
X1076250Y1134670D02*
Y1204670D01*
X1146250Y1134670D02*
Y1204670D01*
X1167710Y1309760D02*
Y1326760D01*
X1176710Y1309760D02*
Y1326760D01*
X1167710Y1309760D02*
X1176710D01*
X1167710Y1326760D02*
X1176710D01*
X1110560Y1309760D02*
Y1326760D01*
X1119560Y1309760D02*
Y1326760D01*
X1110560Y1309760D02*
X1119560D01*
X1110560Y1326760D02*
X1119560D01*
X708960Y1071870D02*
Y1115070D01*
X682960Y1071870D02*
Y1115070D01*
Y1071870D02*
X708960D01*
X682960Y1115070D02*
X708960D01*
X568430Y1012050D02*
X594430D01*
X568430Y1058050D02*
X594430D01*
X568430Y1012050D02*
Y1058050D01*
X594430Y1012050D02*
Y1058050D01*
X549900Y1074120D02*
Y1100120D01*
X593100Y1074120D02*
Y1100120D01*
X549900Y1074120D02*
X593100D01*
X549900Y1100120D02*
X593100D01*
X1233750Y1323730D02*
Y1340730D01*
X1242750Y1323730D02*
Y1340730D01*
X1233750Y1323730D02*
X1242750D01*
X1233750Y1340730D02*
X1242750D01*
X1297250Y1328810D02*
Y1345810D01*
X1306250Y1328810D02*
Y1345810D01*
X1297250Y1328810D02*
X1306250D01*
X1297250Y1345810D02*
X1306250D01*
M02*
