G04 Layer_Color=65535*
%FSLAX44Y44*%
%MOMM*%
G71*
G01*
G75*
%ADD18C,0.2500*%
%ADD19C,0.2000*%
%ADD20C,0.5000*%
%ADD22C,0.6000*%
%ADD55C,0.1270*%
%ADD56C,0.1016*%
%ADD57C,0.0508*%
%ADD58C,0.0762*%
%ADD59C,0.0254*%
%ADD60C,0.2540*%
%ADD61C,0.1540*%
%ADD62C,0.1500*%
D18*
X1076250Y1127920D02*
G03*
X1076250Y1127920I-1250J0D01*
G01*
D19*
X1081750Y1140170D02*
X1140750D01*
X1081750Y1199170D02*
X1140750D01*
X1081750Y1140170D02*
Y1199170D01*
X1140750Y1140170D02*
Y1199170D01*
X747890Y1030200D02*
Y1154200D01*
Y1030200D02*
X838890D01*
X747890Y1154200D02*
X838890D01*
Y1030200D02*
Y1154200D01*
X736890Y1111100D02*
Y1124100D01*
Y1111100D02*
X736890D01*
X743390Y1117600D01*
Y1118100D01*
X737390Y1124100D02*
X743390Y1118100D01*
X736890Y1124100D02*
X737390D01*
D20*
X678180Y1290504D02*
Y1271270D01*
X691003D01*
X697414Y1290504D02*
X703825D01*
X700619D01*
Y1271270D01*
X697414D01*
X703825D01*
X713442D02*
Y1290504D01*
X723059D01*
X726264Y1287298D01*
Y1280887D01*
X723059Y1277681D01*
X713442D01*
X742293Y1290504D02*
X735881D01*
X732676Y1287298D01*
Y1274476D01*
X735881Y1271270D01*
X742293D01*
X745498Y1274476D01*
Y1287298D01*
X742293Y1290504D01*
X780760D02*
X774349D01*
X771143Y1287298D01*
Y1274476D01*
X774349Y1271270D01*
X780760D01*
X783966Y1274476D01*
Y1287298D01*
X780760Y1290504D01*
X790377D02*
Y1274476D01*
X793583Y1271270D01*
X799994D01*
X803199Y1274476D01*
Y1290504D01*
X809611D02*
X822433D01*
X816022D01*
Y1271270D01*
X848078Y1280887D02*
X860901D01*
X854490Y1287298D02*
Y1274476D01*
X731520Y900614D02*
Y881380D01*
X744342D01*
X750754Y900614D02*
X757165D01*
X753959D01*
Y881380D01*
X750754D01*
X757165D01*
X766782D02*
Y900614D01*
X776399D01*
X779604Y897408D01*
Y890997D01*
X776399Y887791D01*
X766782D01*
X795633Y900614D02*
X789221D01*
X786016Y897408D01*
Y884586D01*
X789221Y881380D01*
X795633D01*
X798838Y884586D01*
Y897408D01*
X795633Y900614D01*
X805249Y890997D02*
X818072D01*
X811661Y897408D02*
Y884586D01*
X881380Y1290804D02*
Y1271270D01*
X894402D01*
X900914Y1290804D02*
X907425D01*
X904169D01*
Y1271270D01*
X900914D01*
X907425D01*
X917192D02*
Y1290804D01*
X926959D01*
X930214Y1287548D01*
Y1281037D01*
X926959Y1277781D01*
X917192D01*
X946492Y1290804D02*
X939981D01*
X936725Y1287548D01*
Y1274526D01*
X939981Y1271270D01*
X946492D01*
X949748Y1274526D01*
Y1287548D01*
X946492Y1290804D01*
X985560D02*
X979048D01*
X975793Y1287548D01*
Y1274526D01*
X979048Y1271270D01*
X985560D01*
X988815Y1274526D01*
Y1287548D01*
X985560Y1290804D01*
X995326D02*
Y1274526D01*
X998582Y1271270D01*
X1005093D01*
X1008349Y1274526D01*
Y1290804D01*
X1014860D02*
X1027883D01*
X1021371D01*
Y1271270D01*
X1053927Y1281037D02*
X1066950D01*
X966470Y904424D02*
Y885190D01*
X979293D01*
X985704Y904424D02*
X992115D01*
X988909D01*
Y885190D01*
X985704D01*
X992115D01*
X1001732D02*
Y904424D01*
X1011349D01*
X1014554Y901218D01*
Y894807D01*
X1011349Y891601D01*
X1001732D01*
X1030583Y904424D02*
X1024171D01*
X1020966Y901218D01*
Y888396D01*
X1024171Y885190D01*
X1030583D01*
X1033788Y888396D01*
Y901218D01*
X1030583Y904424D01*
X1040199Y894807D02*
X1053022D01*
D22*
X1094750Y1150170D02*
G03*
X1094750Y1150170I-3000J0D01*
G01*
D55*
X1047748Y1049660D02*
G03*
X1063498Y1040130I15750J8250D01*
G01*
Y1075690D02*
G03*
X1047748Y1066160I0J-17780D01*
G01*
X1127760Y1040130D02*
G03*
X1143510Y1049660I0J17780D01*
G01*
Y1066160D02*
G03*
X1127760Y1075690I-15750J-8250D01*
G01*
X1484630Y821690D02*
G03*
X1484630Y821690I-38100J0D01*
G01*
X1490980Y1362710D02*
G03*
X1490980Y1362710I-38100J0D01*
G01*
X600710D02*
G03*
X600710Y1362710I-38100J0D01*
G01*
Y819150D02*
G03*
X600710Y819150I-38100J0D01*
G01*
X1379480Y861610D02*
X1388831D01*
Y835110D02*
Y861610D01*
X1379480Y835110D02*
X1388831D01*
X1379480Y783860D02*
Y912860D01*
X1335780Y783860D02*
X1379480D01*
X1335780D02*
Y912860D01*
X1379480D01*
Y783860D02*
Y912860D01*
X1335780Y783860D02*
X1379480D01*
X1335780D02*
Y912860D01*
X1379480D01*
X1400820Y1187721D02*
Y1316720D01*
Y1316718D02*
X1499819D01*
Y1187720D02*
Y1316718D01*
X1400820Y1187720D02*
X1499819D01*
X1369820D02*
Y1316718D01*
X1499819D01*
Y1187720D02*
Y1316718D01*
X1369820Y1187720D02*
X1499819D01*
X1169941Y883910D02*
X1298940D01*
X1298938Y784911D02*
Y883910D01*
X1169940Y784911D02*
X1298938D01*
X1169940D02*
Y883910D01*
Y914910D02*
X1298938D01*
Y784911D02*
Y914910D01*
X1169940Y784911D02*
X1298938D01*
X1169940D02*
Y914910D01*
X1429258Y1108202D02*
X1454912D01*
X1429258Y1096518D02*
X1454912D01*
Y1108202D01*
X1429258Y1096518D02*
Y1108202D01*
X522224Y959980D02*
X647462D01*
X522224D02*
Y1247998D01*
X647462D01*
Y959980D02*
Y1247998D01*
X1037590Y1082040D02*
X1154430D01*
X1154430Y1035050D02*
X1154430Y1082040D01*
X1037590Y1035050D02*
X1154430D01*
X1037590Y1082040D02*
X1037590Y1035050D01*
X1062990Y1075690D02*
X1127760D01*
X1062990Y1040039D02*
X1127851D01*
X1109218Y1372108D02*
Y1383792D01*
X1134872Y1372108D02*
Y1383792D01*
X1109218Y1372108D02*
X1134872D01*
X1109218Y1383792D02*
X1134872D01*
X1166368Y1372108D02*
Y1383792D01*
X1192022Y1372108D02*
Y1383792D01*
X1166368Y1372108D02*
X1192022D01*
X1166368Y1383792D02*
X1192022D01*
X1232408Y1372108D02*
Y1383792D01*
X1258062Y1372108D02*
Y1383792D01*
X1232408Y1372108D02*
X1258062D01*
X1232408Y1383792D02*
X1258062D01*
X1295908Y1372108D02*
Y1383792D01*
X1321562Y1372108D02*
Y1383792D01*
X1295908Y1372108D02*
X1321562D01*
X1295908Y1383792D02*
X1321562D01*
X1178560Y1303020D02*
Y1314450D01*
Y1322070D02*
Y1332230D01*
X1165860Y1303020D02*
Y1314450D01*
Y1322070D02*
Y1332230D01*
X1168400Y1334770D02*
X1176020D01*
X1165860Y1332230D02*
X1168400Y1334770D01*
X1176020D02*
X1178560Y1332230D01*
X1165860Y1303020D02*
X1178560D01*
X1121410D02*
Y1314450D01*
Y1322070D02*
Y1332230D01*
X1108710Y1303020D02*
Y1314450D01*
Y1322070D02*
Y1332230D01*
X1111250Y1334770D02*
X1118870D01*
X1108710Y1332230D02*
X1111250Y1334770D01*
X1118870D02*
X1121410Y1332230D01*
X1108710Y1303020D02*
X1121410D01*
X1058418Y1030732D02*
X1084072D01*
X1058418Y1019048D02*
X1084072D01*
Y1030732D01*
X1058418Y1019048D02*
Y1030732D01*
X826750Y1001870D02*
Y1009370D01*
Y974370D02*
Y981870D01*
X760750Y958870D02*
Y981870D01*
Y1001870D02*
Y1024870D01*
Y958870D02*
X811250D01*
X760750Y1024870D02*
X811250D01*
X826750Y1009370D01*
X811250Y958870D02*
X826750Y974370D01*
X760750Y1173760D02*
Y1181260D01*
Y1201260D02*
Y1208760D01*
X826750Y1201260D02*
Y1224260D01*
Y1158260D02*
Y1181260D01*
X776250Y1224260D02*
X826750D01*
X776250Y1158260D02*
X826750D01*
X760750Y1173760D02*
X776250Y1158260D01*
X760750Y1208760D02*
X776250Y1224260D01*
X1102868Y1019048D02*
X1128522D01*
X1102868Y1030732D02*
X1128522D01*
X1102868Y1019048D02*
Y1030732D01*
X1128522Y1019048D02*
Y1030732D01*
X1244600Y1316990D02*
Y1328420D01*
Y1336040D02*
Y1346200D01*
X1231900Y1316990D02*
Y1328420D01*
Y1336040D02*
Y1346200D01*
X1234440Y1348740D02*
X1242060D01*
X1231900Y1346200D02*
X1234440Y1348740D01*
X1242060D02*
X1244600Y1346200D01*
X1231900Y1316990D02*
X1244600D01*
X1308100Y1322070D02*
Y1333500D01*
Y1341120D02*
Y1351280D01*
X1295400Y1322070D02*
Y1333500D01*
Y1341120D02*
Y1351280D01*
X1297940Y1353820D02*
X1305560D01*
X1295400Y1351280D02*
X1297940Y1353820D01*
X1305560D02*
X1308100Y1351280D01*
X1295400Y1322070D02*
X1308100D01*
D56*
X1430020Y1012190D02*
G03*
X1430020Y1012190I-13970J0D01*
G01*
X1438610Y1011870D02*
G03*
X1438610Y1011870I-22000J0D01*
G01*
X1451610Y982980D02*
Y984250D01*
X1447800Y979170D02*
X1451610Y982980D01*
X1447800Y979170D02*
X1449070D01*
X1451610Y981710D01*
Y984250D01*
X1446530Y979170D02*
X1451610Y984250D01*
X1446530Y979170D02*
X1451610D01*
X1446530D02*
X1447800D01*
X1446530D02*
X1447800D01*
X1451610Y981710D02*
Y984250D01*
X1449070Y979170D02*
X1451610D01*
Y984250D01*
X1384300Y979170D02*
X1451610D01*
X1384300D02*
Y984250D01*
Y999490D02*
Y1023620D01*
Y1038860D02*
Y1043940D01*
X1451610D01*
Y1038860D02*
Y1043940D01*
Y999490D02*
Y1023620D01*
X1028192Y917702D02*
X1033272D01*
X874776D02*
X883920D01*
X751840D02*
X756920D01*
X1028192Y918718D02*
X1034288D01*
X872744D02*
X885952D01*
X751840D02*
X757936D01*
X1028192Y919734D02*
X1035304D01*
X871728D02*
X886968D01*
X751840D02*
X758952D01*
X1030224Y920750D02*
X1035304D01*
X1028192D02*
X1029208D01*
X880872D02*
X886968D01*
X871728D02*
X878840D01*
X753872D02*
X758952D01*
X751840D02*
X752856D01*
X1031240Y921766D02*
X1036320D01*
X882904D02*
X887984D01*
X871728D02*
X875792D01*
X754888D02*
X759968D01*
X1032256Y922782D02*
X1036320D01*
X883920D02*
X887984D01*
X871728D02*
X875792D01*
X755904D02*
X759968D01*
X1032256Y923798D02*
X1036320D01*
X883920D02*
X887984D01*
X755904D02*
X759968D01*
X1118616Y924814D02*
X1121664D01*
X1107440D02*
X1110488D01*
X1096264D02*
X1099312D01*
X1078992D02*
X1087120D01*
X1066800D02*
X1072896D01*
X1048512D02*
X1058672D01*
X1032256D02*
X1037336D01*
X1008888D02*
X1019048D01*
X986536D02*
X992632D01*
X975360D02*
X978408D01*
X963168D02*
X966216D01*
X946912D02*
X955040D01*
X935736D02*
X938784D01*
X924560D02*
X927608D01*
X913384D02*
X916432D01*
X896112D02*
X904240D01*
X884936D02*
X887984D01*
X875792D02*
X883920D01*
X863600D02*
X867664D01*
X852424D02*
X861568D01*
X842264D02*
X845312D01*
X830072D02*
X833120D01*
X822960D02*
X827024D01*
X811784D02*
X820928D01*
X800608D02*
X803656D01*
X789432D02*
X794512D01*
X780288D02*
X783336D01*
X755904D02*
X760984D01*
X739648D02*
X742696D01*
X723392D02*
X731520D01*
X711200D02*
X717296D01*
X701040D02*
X707136D01*
X691896D02*
X695960D01*
X680720D02*
X689864D01*
X655320D02*
X670560D01*
X1118616Y925830D02*
X1121664D01*
X1107440D02*
X1110488D01*
X1096264D02*
X1099312D01*
X1077976D02*
X1089152D01*
X1065784D02*
X1072896D01*
X1047496D02*
X1059688D01*
X1032256D02*
X1037336D01*
X1006856D02*
X1021080D01*
X985520D02*
X992632D01*
X975360D02*
X978408D01*
X963168D02*
X966216D01*
X945896D02*
X957072D01*
X935736D02*
X938784D01*
X924560D02*
X927608D01*
X913384D02*
X916432D01*
X895096D02*
X906272D01*
X874776D02*
X887984D01*
X851408D02*
X867664D01*
X842264D02*
X845312D01*
X830072D02*
X833120D01*
X810768D02*
X827024D01*
X800608D02*
X803656D01*
X789432D02*
X794512D01*
X780288D02*
X783336D01*
X755904D02*
X760984D01*
X739648D02*
X742696D01*
X722376D02*
X733552D01*
X710184D02*
X717296D01*
X700024D02*
X707136D01*
X679704D02*
X695960D01*
X655320D02*
X672592D01*
X1118616Y926846D02*
X1121664D01*
X1107440D02*
X1110488D01*
X1096264D02*
X1099312D01*
X1076960D02*
X1090168D01*
X1065784D02*
X1072896D01*
X1046480D02*
X1060704D01*
X1032256D02*
X1038352D01*
X1005840D02*
X1022096D01*
X985520D02*
X992632D01*
X975360D02*
X978408D01*
X963168D02*
X966216D01*
X944880D02*
X958088D01*
X935736D02*
X938784D01*
X924560D02*
X927608D01*
X913384D02*
X916432D01*
X894080D02*
X907288D01*
X873760D02*
X887984D01*
X850392D02*
X867664D01*
X842264D02*
X845312D01*
X830072D02*
X833120D01*
X809752D02*
X827024D01*
X800608D02*
X803656D01*
X788416D02*
X794512D01*
X780288D02*
X783336D01*
X755904D02*
X762000D01*
X739648D02*
X742696D01*
X721360D02*
X734568D01*
X710184D02*
X717296D01*
X700024D02*
X707136D01*
X678688D02*
X695960D01*
X655320D02*
X673608D01*
X1118616Y927862D02*
X1121664D01*
X1107440D02*
X1110488D01*
X1096264D02*
X1099312D01*
X1084072D02*
X1090168D01*
X1075944D02*
X1083056D01*
X1065784D02*
X1070864D01*
X1054608D02*
X1061720D01*
X1045464D02*
X1052576D01*
X1031240D02*
X1038352D01*
X1014984D02*
X1023112D01*
X1004824D02*
X1013968D01*
X985520D02*
X990600D01*
X975360D02*
X978408D01*
X963168D02*
X966216D01*
X951992D02*
X958088D01*
X943864D02*
X950976D01*
X935736D02*
X938784D01*
X924560D02*
X927608D01*
X913384D02*
X916432D01*
X901192D02*
X907288D01*
X893064D02*
X900176D01*
X880872D02*
X887984D01*
X872744D02*
X878840D01*
X858520D02*
X867664D01*
X850392D02*
X856488D01*
X842264D02*
X845312D01*
X830072D02*
X833120D01*
X817880D02*
X827024D01*
X809752D02*
X815848D01*
X800608D02*
X803656D01*
X788416D02*
X795528D01*
X780288D02*
X783336D01*
X754888D02*
X762000D01*
X739648D02*
X742696D01*
X728472D02*
X734568D01*
X720344D02*
X727456D01*
X710184D02*
X715264D01*
X700024D02*
X705104D01*
X686816D02*
X695960D01*
X678688D02*
X684784D01*
X666496D02*
X673608D01*
X655320D02*
X658368D01*
X1118616Y928878D02*
X1121664D01*
X1107440D02*
X1110488D01*
X1096264D02*
X1099312D01*
X1086104D02*
X1091184D01*
X1074928D02*
X1080008D01*
X1065784D02*
X1069848D01*
X1057656D02*
X1061720D01*
X1045464D02*
X1049528D01*
X1031240D02*
X1038352D01*
X1019048D02*
X1024128D01*
X1004824D02*
X1009904D01*
X985520D02*
X989584D01*
X975360D02*
X978408D01*
X963168D02*
X966216D01*
X954024D02*
X959104D01*
X942848D02*
X947928D01*
X935736D02*
X938784D01*
X924560D02*
X927608D01*
X913384D02*
X916432D01*
X903224D02*
X908304D01*
X892048D02*
X897128D01*
X882904D02*
X887984D01*
X872744D02*
X876808D01*
X861568D02*
X867664D01*
X850392D02*
X854456D01*
X842264D02*
X845312D01*
X830072D02*
X833120D01*
X820928D02*
X827024D01*
X809752D02*
X813816D01*
X800608D02*
X803656D01*
X788416D02*
X795528D01*
X780288D02*
X783336D01*
X754888D02*
X762000D01*
X739648D02*
X742696D01*
X730504D02*
X735584D01*
X719328D02*
X724408D01*
X710184D02*
X714248D01*
X700024D02*
X704088D01*
X689864D02*
X695960D01*
X678688D02*
X682752D01*
X669544D02*
X674624D01*
X655320D02*
X658368D01*
X1118616Y929894D02*
X1121664D01*
X1107440D02*
X1110488D01*
X1096264D02*
X1099312D01*
X1087120D02*
X1091184D01*
X1074928D02*
X1078992D01*
X1065784D02*
X1068832D01*
X1058672D02*
X1061720D01*
X1045464D02*
X1049528D01*
X1031240D02*
X1039368D01*
X1020064D02*
X1024128D01*
X1003808D02*
X1008888D01*
X985520D02*
X988568D01*
X975360D02*
X978408D01*
X963168D02*
X966216D01*
X955040D02*
X959104D01*
X942848D02*
X946912D01*
X935736D02*
X938784D01*
X924560D02*
X927608D01*
X913384D02*
X916432D01*
X904240D02*
X908304D01*
X892048D02*
X896112D01*
X883920D02*
X887984D01*
X871728D02*
X875792D01*
X862584D02*
X866648D01*
X850392D02*
X853440D01*
X842264D02*
X845312D01*
X830072D02*
X833120D01*
X821944D02*
X826008D01*
X809752D02*
X812800D01*
X800608D02*
X803656D01*
X788416D02*
X795528D01*
X780288D02*
X783336D01*
X754888D02*
X763016D01*
X739648D02*
X742696D01*
X731520D02*
X735584D01*
X719328D02*
X723392D01*
X710184D02*
X713232D01*
X700024D02*
X703072D01*
X690880D02*
X694944D01*
X678688D02*
X681736D01*
X670560D02*
X674624D01*
X655320D02*
X658368D01*
X1118616Y930910D02*
X1121664D01*
X1107440D02*
X1110488D01*
X1096264D02*
X1099312D01*
X1074928D02*
X1078992D01*
X1065784D02*
X1068832D01*
X1057656D02*
X1061720D01*
X1035304D02*
X1039368D01*
X1030224D02*
X1034288D01*
X1020064D02*
X1024128D01*
X1003808D02*
X1007872D01*
X985520D02*
X988568D01*
X975360D02*
X978408D01*
X963168D02*
X966216D01*
X942848D02*
X946912D01*
X935736D02*
X938784D01*
X924560D02*
X927608D01*
X913384D02*
X916432D01*
X892048D02*
X896112D01*
X883920D02*
X887984D01*
X871728D02*
X875792D01*
X862584D02*
X866648D01*
X850392D02*
X854456D01*
X842264D02*
X845312D01*
X830072D02*
X833120D01*
X821944D02*
X826008D01*
X809752D02*
X813816D01*
X800608D02*
X803656D01*
X792480D02*
X796544D01*
X787400D02*
X791464D01*
X780288D02*
X783336D01*
X758952D02*
X763016D01*
X753872D02*
X757936D01*
X739648D02*
X742696D01*
X719328D02*
X723392D01*
X710184D02*
X713232D01*
X700024D02*
X703072D01*
X690880D02*
X694944D01*
X678688D02*
X682752D01*
X670560D02*
X674624D01*
X655320D02*
X658368D01*
X1118616Y931926D02*
X1121664D01*
X1107440D02*
X1110488D01*
X1096264D02*
X1099312D01*
X1074928D02*
X1078992D01*
X1065784D02*
X1068832D01*
X1053592D02*
X1061720D01*
X1035304D02*
X1039368D01*
X1030224D02*
X1034288D01*
X1021080D02*
X1024128D01*
X1003808D02*
X1007872D01*
X985520D02*
X988568D01*
X975360D02*
X978408D01*
X963168D02*
X966216D01*
X942848D02*
X946912D01*
X935736D02*
X938784D01*
X924560D02*
X927608D01*
X913384D02*
X916432D01*
X892048D02*
X896112D01*
X883920D02*
X887984D01*
X871728D02*
X875792D01*
X862584D02*
X866648D01*
X850392D02*
X857504D01*
X842264D02*
X845312D01*
X830072D02*
X833120D01*
X821944D02*
X826008D01*
X809752D02*
X816864D01*
X800608D02*
X803656D01*
X792480D02*
X796544D01*
X787400D02*
X791464D01*
X780288D02*
X783336D01*
X758952D02*
X763016D01*
X753872D02*
X757936D01*
X739648D02*
X742696D01*
X719328D02*
X723392D01*
X710184D02*
X713232D01*
X700024D02*
X703072D01*
X690880D02*
X694944D01*
X678688D02*
X685800D01*
X671576D02*
X674624D01*
X655320D02*
X658368D01*
X1118616Y932942D02*
X1121664D01*
X1107440D02*
X1110488D01*
X1096264D02*
X1099312D01*
X1074928D02*
X1077976D01*
X1065784D02*
X1068832D01*
X1049528D02*
X1061720D01*
X1036320D02*
X1040384D01*
X1029208D02*
X1034288D01*
X1020064D02*
X1024128D01*
X1003808D02*
X1007872D01*
X985520D02*
X988568D01*
X975360D02*
X978408D01*
X963168D02*
X966216D01*
X942848D02*
X945896D01*
X935736D02*
X938784D01*
X924560D02*
X927608D01*
X913384D02*
X916432D01*
X892048D02*
X895096D01*
X884936D02*
X887984D01*
X871728D02*
X874776D01*
X851408D02*
X866648D01*
X842264D02*
X845312D01*
X830072D02*
X833120D01*
X810768D02*
X826008D01*
X800608D02*
X803656D01*
X792480D02*
X796544D01*
X787400D02*
X791464D01*
X780288D02*
X783336D01*
X759968D02*
X764032D01*
X752856D02*
X757936D01*
X739648D02*
X742696D01*
X719328D02*
X722376D01*
X710184D02*
X713232D01*
X700024D02*
X703072D01*
X679704D02*
X694944D01*
X670560D02*
X674624D01*
X655320D02*
X658368D01*
X1118616Y933958D02*
X1121664D01*
X1107440D02*
X1110488D01*
X1096264D02*
X1099312D01*
X1074928D02*
X1091184D01*
X1065784D02*
X1068832D01*
X1047496D02*
X1060704D01*
X1036320D02*
X1040384D01*
X1029208D02*
X1033272D01*
X1019048D02*
X1024128D01*
X985520D02*
X988568D01*
X975360D02*
X978408D01*
X963168D02*
X966216D01*
X942848D02*
X959104D01*
X935736D02*
X938784D01*
X924560D02*
X927608D01*
X913384D02*
X916432D01*
X892048D02*
X908304D01*
X884936D02*
X887984D01*
X871728D02*
X874776D01*
X852424D02*
X866648D01*
X842264D02*
X845312D01*
X830072D02*
X833120D01*
X811784D02*
X826008D01*
X800608D02*
X803656D01*
X793496D02*
X796544D01*
X786384D02*
X790448D01*
X780288D02*
X783336D01*
X759968D02*
X764032D01*
X752856D02*
X756920D01*
X739648D02*
X742696D01*
X719328D02*
X735584D01*
X710184D02*
X713232D01*
X700024D02*
X703072D01*
X680720D02*
X694944D01*
X670560D02*
X674624D01*
X655320D02*
X658368D01*
X1118616Y934974D02*
X1121664D01*
X1107440D02*
X1110488D01*
X1096264D02*
X1099312D01*
X1074928D02*
X1091184D01*
X1065784D02*
X1068832D01*
X1046480D02*
X1058672D01*
X1036320D02*
X1041400D01*
X1029208D02*
X1033272D01*
X1017016D02*
X1024128D01*
X985520D02*
X988568D01*
X975360D02*
X978408D01*
X963168D02*
X966216D01*
X942848D02*
X959104D01*
X935736D02*
X938784D01*
X924560D02*
X927608D01*
X913384D02*
X916432D01*
X892048D02*
X908304D01*
X883920D02*
X887984D01*
X871728D02*
X874776D01*
X853440D02*
X866648D01*
X842264D02*
X845312D01*
X830072D02*
X833120D01*
X812800D02*
X826008D01*
X800608D02*
X803656D01*
X793496D02*
X797560D01*
X786384D02*
X790448D01*
X780288D02*
X783336D01*
X759968D02*
X765048D01*
X752856D02*
X756920D01*
X739648D02*
X742696D01*
X719328D02*
X735584D01*
X710184D02*
X713232D01*
X700024D02*
X703072D01*
X681736D02*
X694944D01*
X669544D02*
X674624D01*
X655320D02*
X658368D01*
X1118616Y935990D02*
X1121664D01*
X1107440D02*
X1110488D01*
X1096264D02*
X1100328D01*
X1074928D02*
X1091184D01*
X1065784D02*
X1068832D01*
X1045464D02*
X1053592D01*
X1037336D02*
X1041400D01*
X1028192D02*
X1033272D01*
X1013968D02*
X1023112D01*
X985520D02*
X988568D01*
X975360D02*
X978408D01*
X963168D02*
X967232D01*
X942848D02*
X959104D01*
X935736D02*
X938784D01*
X924560D02*
X927608D01*
X913384D02*
X917448D01*
X892048D02*
X908304D01*
X883920D02*
X887984D01*
X871728D02*
X875792D01*
X858520D02*
X866648D01*
X842264D02*
X845312D01*
X830072D02*
X834136D01*
X817880D02*
X826008D01*
X800608D02*
X803656D01*
X793496D02*
X797560D01*
X786384D02*
X790448D01*
X780288D02*
X783336D01*
X760984D02*
X765048D01*
X751840D02*
X756920D01*
X739648D02*
X743712D01*
X719328D02*
X735584D01*
X710184D02*
X713232D01*
X700024D02*
X703072D01*
X686816D02*
X694944D01*
X666496D02*
X673608D01*
X655320D02*
X658368D01*
X1118616Y937006D02*
X1121664D01*
X1107440D02*
X1111504D01*
X1096264D02*
X1100328D01*
X1087120D02*
X1091184D01*
X1074928D02*
X1078992D01*
X1065784D02*
X1068832D01*
X1045464D02*
X1051560D01*
X1037336D02*
X1041400D01*
X1028192D02*
X1032256D01*
X1009904D02*
X1022096D01*
X985520D02*
X988568D01*
X974344D02*
X978408D01*
X963168D02*
X967232D01*
X955040D02*
X959104D01*
X942848D02*
X946912D01*
X935736D02*
X938784D01*
X924560D02*
X928624D01*
X913384D02*
X917448D01*
X904240D02*
X908304D01*
X892048D02*
X896112D01*
X883920D02*
X887984D01*
X871728D02*
X875792D01*
X863600D02*
X866648D01*
X841248D02*
X845312D01*
X830072D02*
X834136D01*
X822960D02*
X826008D01*
X800608D02*
X803656D01*
X794512D02*
X797560D01*
X786384D02*
X790448D01*
X780288D02*
X783336D01*
X760984D02*
X765048D01*
X751840D02*
X755904D01*
X739648D02*
X743712D01*
X731520D02*
X735584D01*
X719328D02*
X723392D01*
X710184D02*
X713232D01*
X700024D02*
X703072D01*
X691896D02*
X694944D01*
X655320D02*
X673608D01*
X1117600Y938022D02*
X1121664D01*
X1106424D02*
X1111504D01*
X1096264D02*
X1100328D01*
X1087120D02*
X1091184D01*
X1074928D02*
X1078992D01*
X1065784D02*
X1068832D01*
X1045464D02*
X1049528D01*
X1038352D02*
X1042416D01*
X1028192D02*
X1032256D01*
X1007872D02*
X1021080D01*
X985520D02*
X988568D01*
X974344D02*
X978408D01*
X963168D02*
X967232D01*
X955040D02*
X959104D01*
X942848D02*
X946912D01*
X934720D02*
X938784D01*
X923544D02*
X928624D01*
X913384D02*
X917448D01*
X904240D02*
X908304D01*
X892048D02*
X896112D01*
X883920D02*
X887984D01*
X871728D02*
X875792D01*
X862584D02*
X866648D01*
X850392D02*
X854456D01*
X841248D02*
X845312D01*
X830072D02*
X834136D01*
X821944D02*
X826008D01*
X809752D02*
X813816D01*
X800608D02*
X803656D01*
X794512D02*
X798576D01*
X785368D02*
X789432D01*
X780288D02*
X783336D01*
X762000D02*
X766064D01*
X751840D02*
X755904D01*
X739648D02*
X743712D01*
X731520D02*
X735584D01*
X719328D02*
X723392D01*
X710184D02*
X713232D01*
X700024D02*
X703072D01*
X690880D02*
X694944D01*
X678688D02*
X682752D01*
X655320D02*
X672592D01*
X1117600Y939038D02*
X1121664D01*
X1106424D02*
X1112520D01*
X1096264D02*
X1101344D01*
X1086104D02*
X1091184D01*
X1075944D02*
X1080008D01*
X1065784D02*
X1068832D01*
X1056640D02*
X1060704D01*
X1045464D02*
X1049528D01*
X1038352D02*
X1042416D01*
X1027176D02*
X1031240D01*
X1005840D02*
X1019048D01*
X985520D02*
X988568D01*
X974344D02*
X978408D01*
X963168D02*
X968248D01*
X954024D02*
X959104D01*
X943864D02*
X947928D01*
X934720D02*
X938784D01*
X923544D02*
X929640D01*
X913384D02*
X918464D01*
X903224D02*
X908304D01*
X893064D02*
X897128D01*
X882904D02*
X887984D01*
X872744D02*
X876808D01*
X862584D02*
X866648D01*
X850392D02*
X854456D01*
X841248D02*
X845312D01*
X830072D02*
X835152D01*
X821944D02*
X826008D01*
X809752D02*
X813816D01*
X800608D02*
X803656D01*
X794512D02*
X798576D01*
X785368D02*
X789432D01*
X780288D02*
X783336D01*
X762000D02*
X766064D01*
X750824D02*
X754888D01*
X739648D02*
X744728D01*
X730504D02*
X735584D01*
X720344D02*
X724408D01*
X710184D02*
X713232D01*
X700024D02*
X703072D01*
X690880D02*
X694944D01*
X678688D02*
X682752D01*
X655320D02*
X671576D01*
X1115568Y940054D02*
X1121664D01*
X1104392D02*
X1114552D01*
X1096264D02*
X1103376D01*
X1084072D02*
X1090168D01*
X1075944D02*
X1082040D01*
X1065784D02*
X1068832D01*
X1053592D02*
X1060704D01*
X1045464D02*
X1051560D01*
X1038352D02*
X1042416D01*
X1027176D02*
X1031240D01*
X1005840D02*
X1014984D01*
X985520D02*
X988568D01*
X972312D02*
X978408D01*
X963168D02*
X970280D01*
X951992D02*
X958088D01*
X943864D02*
X949960D01*
X932688D02*
X938784D01*
X921512D02*
X931672D01*
X913384D02*
X920496D01*
X901192D02*
X907288D01*
X893064D02*
X899160D01*
X880872D02*
X887984D01*
X872744D02*
X878840D01*
X859536D02*
X866648D01*
X850392D02*
X857504D01*
X839216D02*
X845312D01*
X830072D02*
X837184D01*
X818896D02*
X826008D01*
X809752D02*
X816864D01*
X800608D02*
X803656D01*
X794512D02*
X798576D01*
X785368D02*
X789432D01*
X780288D02*
X783336D01*
X762000D02*
X766064D01*
X750824D02*
X754888D01*
X746760D02*
X748792D01*
X739648D02*
X745744D01*
X728472D02*
X734568D01*
X720344D02*
X726440D01*
X710184D02*
X713232D01*
X700024D02*
X703072D01*
X687832D02*
X694944D01*
X678688D02*
X685800D01*
X666496D02*
X672592D01*
X655320D02*
X658368D01*
X1096264Y941070D02*
X1121664D01*
X1076960D02*
X1089152D01*
X1062736D02*
X1072896D01*
X1045464D02*
X1060704D01*
X1039368D02*
X1043432D01*
X1026160D02*
X1031240D01*
X1004824D02*
X1010920D01*
X982472D02*
X992632D01*
X963168D02*
X978408D01*
X944880D02*
X957072D01*
X913384D02*
X938784D01*
X894080D02*
X906272D01*
X873760D02*
X887984D01*
X851408D02*
X866648D01*
X830072D02*
X845312D01*
X810768D02*
X826008D01*
X800608D02*
X803656D01*
X795528D02*
X799592D01*
X784352D02*
X788416D01*
X780288D02*
X783336D01*
X763016D02*
X767080D01*
X739648D02*
X754888D01*
X721360D02*
X733552D01*
X696976D02*
X717296D01*
X679704D02*
X694944D01*
X669544D02*
X673608D01*
X655320D02*
X658368D01*
X1111504Y942086D02*
X1120648D01*
X1100328D02*
X1109472D01*
X1096264D02*
X1099312D01*
X1077976D02*
X1088136D01*
X1062736D02*
X1072896D01*
X1046480D02*
X1059688D01*
X1039368D02*
X1043432D01*
X1026160D02*
X1030224D01*
X1004824D02*
X1008888D01*
X982472D02*
X992632D01*
X963168D02*
X977392D01*
X945896D02*
X956056D01*
X928624D02*
X937768D01*
X917448D02*
X926592D01*
X913384D02*
X916432D01*
X895096D02*
X905256D01*
X884936D02*
X887984D01*
X874776D02*
X883920D01*
X852424D02*
X865632D01*
X830072D02*
X844296D01*
X811784D02*
X824992D01*
X800608D02*
X803656D01*
X795528D02*
X799592D01*
X784352D02*
X788416D01*
X780288D02*
X783336D01*
X763016D02*
X767080D01*
X739648D02*
X753872D01*
X722376D02*
X732536D01*
X696976D02*
X717296D01*
X680720D02*
X693928D01*
X669544D02*
X673608D01*
X655320D02*
X658368D01*
X1112520Y943102D02*
X1119632D01*
X1101344D02*
X1108456D01*
X1096264D02*
X1099312D01*
X1078992D02*
X1087120D01*
X1062736D02*
X1072896D01*
X1048512D02*
X1057656D01*
X1039368D02*
X1043432D01*
X1026160D02*
X1030224D01*
X1019048D02*
X1023112D01*
X1004824D02*
X1008888D01*
X982472D02*
X992632D01*
X968248D02*
X976376D01*
X963168D02*
X966216D01*
X946912D02*
X955040D01*
X929640D02*
X936752D01*
X918464D02*
X925576D01*
X913384D02*
X916432D01*
X896112D02*
X904240D01*
X884936D02*
X887984D01*
X875792D02*
X882904D01*
X854456D02*
X863600D01*
X835152D02*
X843280D01*
X830072D02*
X833120D01*
X813816D02*
X822960D01*
X800608D02*
X803656D01*
X795528D02*
X799592D01*
X784352D02*
X788416D01*
X780288D02*
X783336D01*
X763016D02*
X767080D01*
X743712D02*
X753872D01*
X739648D02*
X742696D01*
X723392D02*
X731520D01*
X696976D02*
X717296D01*
X682752D02*
X691896D01*
X670560D02*
X673608D01*
X655320D02*
X658368D01*
X1065784Y944118D02*
X1068832D01*
X1019048D02*
X1023112D01*
X1004824D02*
X1007872D01*
X985520D02*
X988568D01*
X800608D02*
X803656D01*
X796544D02*
X799592D01*
X784352D02*
X788416D01*
X780288D02*
X783336D01*
X710184D02*
X713232D01*
X700024D02*
X703072D01*
X669544D02*
X673608D01*
X655320D02*
X658368D01*
X1065784Y945134D02*
X1068832D01*
X1019048D02*
X1023112D01*
X1004824D02*
X1008888D01*
X985520D02*
X988568D01*
X796544D02*
X803656D01*
X780288D02*
X787400D01*
X710184D02*
X713232D01*
X700024D02*
X703072D01*
X669544D02*
X673608D01*
X655320D02*
X658368D01*
X1065784Y946150D02*
X1068832D01*
X1018032D02*
X1023112D01*
X1004824D02*
X1009904D01*
X985520D02*
X988568D01*
X796544D02*
X803656D01*
X780288D02*
X787400D01*
X710184D02*
X713232D01*
X700024D02*
X703072D01*
X668528D02*
X673608D01*
X655320D02*
X658368D01*
X1065784Y947166D02*
X1068832D01*
X1014984D02*
X1022096D01*
X1004824D02*
X1012952D01*
X985520D02*
X988568D01*
X796544D02*
X803656D01*
X780288D02*
X787400D01*
X710184D02*
X713232D01*
X700024D02*
X703072D01*
X665480D02*
X673608D01*
X655320D02*
X658368D01*
X1065784Y948182D02*
X1068832D01*
X1005840D02*
X1021080D01*
X985520D02*
X988568D01*
X797560D02*
X803656D01*
X780288D02*
X786384D01*
X710184D02*
X713232D01*
X700024D02*
X703072D01*
X655320D02*
X672592D01*
X1066800Y949198D02*
X1068832D01*
X1006856D02*
X1020064D01*
X986536D02*
X988568D01*
X797560D02*
X803656D01*
X780288D02*
X786384D01*
X711200D02*
X713232D01*
X701040D02*
X703072D01*
X655320D02*
X671576D01*
X1067816Y950214D02*
X1068832D01*
X1008888D02*
X1019048D01*
X987552D02*
X988568D01*
X797560D02*
X803656D01*
X780288D02*
X786384D01*
X712216D02*
X713232D01*
X702056D02*
X703072D01*
X655320D02*
X670560D01*
D57*
X967486Y1168146D02*
X973074D01*
X978662D02*
X990346D01*
X992886D02*
X996442D01*
X1004062D02*
X1007618D01*
X965962Y1167638D02*
X974090D01*
X978662D02*
X990346D01*
X992886D02*
X996950D01*
X1003554D02*
X1007618D01*
X965454Y1167130D02*
X974598D01*
X978662D02*
X990346D01*
X992886D02*
X996950D01*
X1003554D02*
X1007618D01*
X964946Y1166622D02*
X975106D01*
X978662D02*
X990346D01*
X992886D02*
X996950D01*
X1003554D02*
X1007618D01*
X964946Y1166114D02*
X969518D01*
X971042D02*
X975614D01*
X978662D02*
X980694D01*
X992886D02*
X997458D01*
X1003046D02*
X1007618D01*
X964438Y1165606D02*
X967486D01*
X972566D02*
X976122D01*
X978662D02*
X980694D01*
X992886D02*
X997458D01*
X1003046D02*
X1007618D01*
X964438Y1165098D02*
X966978D01*
X973074D02*
X976122D01*
X978662D02*
X980694D01*
X992886D02*
X997458D01*
X1003046D02*
X1007618D01*
X964438Y1164590D02*
X966978D01*
X973582D02*
X976122D01*
X978662D02*
X980694D01*
X992886D02*
X994918D01*
X995426D02*
X997458D01*
X1003046D02*
X1005078D01*
X1005586D02*
X1007618D01*
X964438Y1164082D02*
X966470D01*
X973582D02*
X976122D01*
X978662D02*
X980694D01*
X992886D02*
X994918D01*
X995426D02*
X997966D01*
X1002538D02*
X1005078D01*
X1005586D02*
X1007618D01*
X964438Y1163574D02*
X966978D01*
X978662D02*
X980694D01*
X992886D02*
X994918D01*
X995426D02*
X997966D01*
X1002538D02*
X1005078D01*
X1005586D02*
X1007618D01*
X964438Y1163066D02*
X967486D01*
X978662D02*
X980694D01*
X992886D02*
X994918D01*
X995426D02*
X997966D01*
X1002538D02*
X1005078D01*
X1005586D02*
X1007618D01*
X964438Y1162558D02*
X968502D01*
X978662D02*
X980694D01*
X992886D02*
X994918D01*
X995934D02*
X998474D01*
X1002030D02*
X1004570D01*
X1005586D02*
X1007618D01*
X964946Y1162050D02*
X970534D01*
X978662D02*
X980694D01*
X992886D02*
X994918D01*
X995934D02*
X998474D01*
X1002030D02*
X1004570D01*
X1005586D02*
X1007618D01*
X965454Y1161542D02*
X972566D01*
X978662D02*
X989838D01*
X992886D02*
X994918D01*
X995934D02*
X998474D01*
X1002030D02*
X1004570D01*
X1005586D02*
X1007618D01*
X965962Y1161034D02*
X974090D01*
X978662D02*
X989838D01*
X992886D02*
X994918D01*
X996442D02*
X998982D01*
X1001522D02*
X1004062D01*
X1005586D02*
X1007618D01*
X966978Y1160526D02*
X975106D01*
X978662D02*
X989838D01*
X992886D02*
X994918D01*
X996442D02*
X998982D01*
X1001522D02*
X1004062D01*
X1005586D02*
X1007618D01*
X968502Y1160018D02*
X975614D01*
X978662D02*
X989838D01*
X992886D02*
X994918D01*
X996442D02*
X998982D01*
X1001522D02*
X1004062D01*
X1005586D02*
X1007618D01*
X970534Y1159510D02*
X976122D01*
X978662D02*
X980694D01*
X992886D02*
X994918D01*
X996442D02*
X998982D01*
X1001522D02*
X1004062D01*
X1005586D02*
X1007618D01*
X972566Y1159002D02*
X976630D01*
X978662D02*
X980694D01*
X992886D02*
X994918D01*
X996950D02*
X999490D01*
X1001014D02*
X1003554D01*
X1005586D02*
X1007618D01*
X973582Y1158494D02*
X976630D01*
X978662D02*
X980694D01*
X992886D02*
X994918D01*
X996950D02*
X999490D01*
X1001014D02*
X1003554D01*
X1005586D02*
X1007618D01*
X963930Y1157986D02*
X966470D01*
X974090D02*
X976630D01*
X978662D02*
X980694D01*
X992886D02*
X994918D01*
X996950D02*
X999490D01*
X1001014D02*
X1003554D01*
X1005586D02*
X1007618D01*
X963930Y1157478D02*
X966470D01*
X974090D02*
X976630D01*
X978662D02*
X980694D01*
X992886D02*
X994918D01*
X997458D02*
X999998D01*
X1000506D02*
X1003046D01*
X1005586D02*
X1007618D01*
X963930Y1156970D02*
X966470D01*
X974090D02*
X976630D01*
X978662D02*
X980694D01*
X992886D02*
X994918D01*
X997458D02*
X999998D01*
X1000506D02*
X1003046D01*
X1005586D02*
X1007618D01*
X963930Y1156462D02*
X966978D01*
X974090D02*
X976630D01*
X978662D02*
X980694D01*
X992886D02*
X994918D01*
X997458D02*
X999998D01*
X1000506D02*
X1003046D01*
X1005586D02*
X1007618D01*
X964438Y1155954D02*
X967486D01*
X973582D02*
X976630D01*
X978662D02*
X980694D01*
X992886D02*
X994918D01*
X997458D02*
X999998D01*
X1000506D02*
X1003046D01*
X1005586D02*
X1007618D01*
X964438Y1155446D02*
X967994D01*
X973074D02*
X976630D01*
X978662D02*
X980694D01*
X992886D02*
X994918D01*
X997966D02*
X1002538D01*
X1005586D02*
X1007618D01*
X964946Y1154938D02*
X970534D01*
X971042D02*
X976122D01*
X978662D02*
X980694D01*
X992886D02*
X994918D01*
X997966D02*
X1002538D01*
X1005586D02*
X1007618D01*
X964946Y1154430D02*
X975614D01*
X978662D02*
X990854D01*
X992886D02*
X994918D01*
X997966D02*
X1002538D01*
X1005586D02*
X1007618D01*
X965454Y1153922D02*
X975106D01*
X978662D02*
X990854D01*
X992886D02*
X994918D01*
X998474D02*
X1002030D01*
X1005586D02*
X1007618D01*
X966470Y1153414D02*
X974598D01*
X978662D02*
X990854D01*
X992886D02*
X994918D01*
X998474D02*
X1002030D01*
X1005586D02*
X1007618D01*
X967486Y1152906D02*
X973582D01*
X978662D02*
X990854D01*
X992886D02*
X994918D01*
X998474D02*
X1002030D01*
X1005586D02*
X1007618D01*
X1353566Y1000760D02*
Y1016508D01*
X1353058Y997712D02*
Y1019556D01*
X1352550Y995172D02*
Y1022096D01*
X1352042Y993140D02*
Y1024128D01*
X1351534Y991616D02*
Y1025652D01*
X1351026Y990092D02*
Y1027176D01*
X1350518Y988568D02*
Y1028700D01*
X1350010Y987044D02*
Y1030224D01*
X1349502Y986028D02*
Y1031240D01*
X1348994Y984504D02*
Y1032764D01*
X1348486Y983488D02*
Y1033780D01*
X1347978Y982472D02*
Y1034796D01*
X1347470Y981456D02*
Y1035812D01*
X1346962Y980440D02*
Y1036828D01*
X1346454Y979932D02*
Y1037336D01*
X1345946Y978916D02*
Y1038352D01*
X1345438Y977900D02*
Y1039368D01*
X1344930Y977392D02*
Y1039876D01*
X1344422Y976376D02*
Y1040892D01*
X1343914Y975868D02*
Y1041400D01*
X1343406Y974852D02*
Y1042416D01*
X1342898Y974344D02*
Y1042924D01*
X1342390Y973328D02*
Y1043940D01*
X1341882Y972820D02*
Y1044448D01*
X1341374Y972312D02*
Y1044956D01*
X1340866Y971804D02*
Y1045464D01*
X1340358Y971296D02*
Y1045972D01*
X1339850Y970280D02*
Y1046988D01*
X1339342Y969772D02*
Y1047496D01*
X1338834Y969264D02*
Y1048004D01*
X1338326Y968756D02*
Y1048512D01*
X1337818Y968248D02*
Y1049020D01*
X1337310Y967740D02*
Y1049528D01*
X1336802Y967232D02*
Y1050036D01*
X1336294Y1018032D02*
Y1050544D01*
Y966724D02*
Y1017524D01*
X1335786D02*
Y1051052D01*
Y966216D02*
Y1017016D01*
X1335278Y1017524D02*
Y1051560D01*
Y1001268D02*
Y1016000D01*
Y965708D02*
Y1000252D01*
X1334770Y1017524D02*
Y1052068D01*
Y1001776D02*
Y1015492D01*
Y965200D02*
Y1000252D01*
X1334262Y1017016D02*
Y1052576D01*
Y1002792D02*
Y1014984D01*
Y964692D02*
Y1000760D01*
X1333754Y1017016D02*
Y1052576D01*
Y1003300D02*
Y1013968D01*
Y964692D02*
Y1000760D01*
X1333246Y1017016D02*
Y1053084D01*
Y1004316D02*
Y1013460D01*
Y964184D02*
Y1000760D01*
X1332738Y1016508D02*
Y1053592D01*
Y1004824D02*
Y1012952D01*
Y963676D02*
Y1001268D01*
X1332230Y1016508D02*
Y1054100D01*
Y1005840D02*
Y1012444D01*
Y963168D02*
Y1001268D01*
X1331722Y1016508D02*
Y1054608D01*
Y1006348D02*
Y1011428D01*
Y962660D02*
Y1001776D01*
X1331214Y1016508D02*
Y1055116D01*
Y1007364D02*
Y1010920D01*
Y962152D02*
Y1001776D01*
X1330706Y1016000D02*
Y1055116D01*
Y1007872D02*
Y1010412D01*
Y962152D02*
Y1001776D01*
X1330198Y1016000D02*
Y1055624D01*
Y1008380D02*
Y1009904D01*
Y961644D02*
Y1002284D01*
X1329690Y1016000D02*
Y1056132D01*
Y961136D02*
Y1002284D01*
X1329182Y1015492D02*
Y1056132D01*
Y961136D02*
Y1002284D01*
X1328674Y1015492D02*
Y1056640D01*
Y960628D02*
Y1002792D01*
X1328166Y1015492D02*
Y1057148D01*
Y960120D02*
Y1002792D01*
X1327658Y1015492D02*
Y1057148D01*
Y960120D02*
Y1002792D01*
X1327150Y1014984D02*
Y1057656D01*
Y959612D02*
Y1003300D01*
X1326642Y1014984D02*
Y1058164D01*
Y959104D02*
Y1003300D01*
X1326134Y1014984D02*
Y1058164D01*
Y959104D02*
Y1003808D01*
X1325626Y1014984D02*
Y1058672D01*
Y958596D02*
Y1003808D01*
X1325118Y1016000D02*
Y1058672D01*
Y958596D02*
Y1003300D01*
X1324610Y1016508D02*
Y1059180D01*
Y958088D02*
Y1002792D01*
X1324102Y1017524D02*
Y1059688D01*
Y957580D02*
Y1001776D01*
X1323594Y1018032D02*
Y1059688D01*
Y957580D02*
Y1001268D01*
X1323086Y1019048D02*
Y1060196D01*
Y957072D02*
Y1000760D01*
X1322578Y1019556D02*
Y1060196D01*
Y957072D02*
Y1000252D01*
X1322070Y1020572D02*
Y1060704D01*
Y956564D02*
Y999236D01*
X1321562Y1021080D02*
Y1060704D01*
Y956564D02*
Y998728D01*
X1321054Y1022096D02*
Y1061212D01*
Y956056D02*
Y998220D01*
X1320546Y1022604D02*
Y1061212D01*
Y956056D02*
Y997204D01*
X1320038Y1023620D02*
Y1061720D01*
Y955548D02*
Y996696D01*
X1319530Y1022604D02*
Y1061720D01*
Y955548D02*
Y996188D01*
X1319022Y1012952D02*
Y1061720D01*
Y955548D02*
Y995172D01*
X1318514Y1012952D02*
Y1062228D01*
Y955040D02*
Y1006348D01*
X1318006Y1012444D02*
Y1062228D01*
Y955040D02*
Y1006348D01*
X1317498Y1012444D02*
Y1062736D01*
Y954532D02*
Y1006856D01*
X1316990Y1012444D02*
Y1062736D01*
Y954532D02*
Y1006856D01*
X1316482Y1011936D02*
Y1062736D01*
Y954532D02*
Y1006856D01*
X1315974Y1011936D02*
Y1063244D01*
Y954024D02*
Y1006856D01*
X1315466Y1011936D02*
Y1063244D01*
Y954024D02*
Y1007364D01*
X1314958Y1011936D02*
Y1063244D01*
Y954024D02*
Y1007364D01*
X1314450Y1011428D02*
Y1063752D01*
Y953516D02*
Y1007872D01*
X1313942Y1011428D02*
Y1063752D01*
Y953516D02*
Y1007872D01*
X1313434Y1011428D02*
Y1063752D01*
Y953516D02*
Y1007872D01*
X1312926Y1011428D02*
Y1064260D01*
Y953008D02*
Y1008380D01*
X1312418Y1010920D02*
Y1064260D01*
Y953008D02*
Y1008380D01*
X1311910Y1010920D02*
Y1064260D01*
Y953008D02*
Y1008380D01*
X1311402Y1010920D02*
Y1064768D01*
Y952500D02*
Y1008888D01*
X1310894Y1010412D02*
Y1064768D01*
Y952500D02*
Y1008888D01*
X1310386Y1010412D02*
Y1064768D01*
Y952500D02*
Y1008888D01*
X1309878Y1010412D02*
Y1064768D01*
Y952500D02*
Y1009396D01*
X1309370Y1010412D02*
Y1065276D01*
Y951992D02*
Y1009396D01*
X1308862Y951992D02*
Y1065276D01*
X1308354Y951992D02*
Y1065276D01*
X1307846Y951992D02*
Y1065276D01*
X1307338Y951992D02*
Y1065276D01*
X1306830Y951484D02*
Y1065784D01*
X1306322Y951484D02*
Y1065784D01*
X1305814Y1031240D02*
Y1065784D01*
Y988060D02*
Y1030732D01*
Y951484D02*
Y987552D01*
X1305306Y1031748D02*
Y1065784D01*
Y987552D02*
Y1031240D01*
Y951484D02*
Y987044D01*
X1304798Y1032256D02*
Y1065784D01*
Y987044D02*
Y1031240D01*
Y951484D02*
Y986536D01*
X1304290Y1032764D02*
Y1065784D01*
Y987044D02*
Y1031748D01*
Y951484D02*
Y986028D01*
X1303782Y1033272D02*
Y1066292D01*
Y986536D02*
Y1032256D01*
Y950976D02*
Y985520D01*
X1303274Y1033272D02*
Y1066292D01*
Y986536D02*
Y1032256D01*
Y950976D02*
Y985520D01*
X1302766Y1033780D02*
Y1066292D01*
Y986028D02*
Y1032764D01*
Y950976D02*
Y985012D01*
X1302258Y1034288D02*
Y1066292D01*
Y986028D02*
Y1032764D01*
Y950976D02*
Y984504D01*
X1301750Y1034796D02*
Y1066292D01*
Y985520D02*
Y1033272D01*
Y950976D02*
Y983996D01*
X1301242Y1035304D02*
Y1066292D01*
Y985520D02*
Y1033272D01*
Y950976D02*
Y983488D01*
X1300734Y1035304D02*
Y1066292D01*
Y985012D02*
Y1033780D01*
Y950976D02*
Y983488D01*
X1300226Y1035812D02*
Y1066292D01*
Y985012D02*
Y1033780D01*
Y950976D02*
Y982980D01*
X1299718Y1036320D02*
Y1066292D01*
Y985012D02*
Y1033780D01*
Y950976D02*
Y982472D01*
X1299210Y1036320D02*
Y1066292D01*
Y984504D02*
Y1034288D01*
Y950976D02*
Y982472D01*
X1298702Y1036828D02*
Y1066292D01*
Y984504D02*
Y1034288D01*
Y950976D02*
Y981964D01*
X1298194Y1037336D02*
Y1066292D01*
Y984504D02*
Y1034288D01*
Y950976D02*
Y981456D01*
X1297686Y1037336D02*
Y1066292D01*
Y983996D02*
Y1034796D01*
Y950976D02*
Y981456D01*
X1297178Y1037844D02*
Y1066292D01*
Y983996D02*
Y1034796D01*
Y950976D02*
Y980948D01*
X1296670Y1037844D02*
Y1066292D01*
Y983996D02*
Y1034796D01*
Y950976D02*
Y980948D01*
X1296162Y1038352D02*
Y1066292D01*
Y983996D02*
Y1034796D01*
Y950976D02*
Y980440D01*
X1295654Y1038352D02*
Y1066292D01*
Y983488D02*
Y1035304D01*
Y950976D02*
Y980440D01*
X1295146Y1038860D02*
Y1066292D01*
Y983488D02*
Y1035304D01*
Y950976D02*
Y979932D01*
X1294638Y1038860D02*
Y1066292D01*
Y983488D02*
Y1035304D01*
Y950976D02*
Y979932D01*
X1294130Y1039368D02*
Y1066292D01*
Y983488D02*
Y1035304D01*
Y950976D02*
Y979424D01*
X1293622Y1039368D02*
Y1066292D01*
Y983488D02*
Y1035304D01*
Y950976D02*
Y979424D01*
X1293114Y1039368D02*
Y1066292D01*
Y983488D02*
Y1035304D01*
Y950976D02*
Y979424D01*
X1292606Y1039876D02*
Y1066292D01*
Y983488D02*
Y1035304D01*
Y950976D02*
Y978916D01*
X1292098Y1039876D02*
Y1066292D01*
Y983488D02*
Y1035304D01*
Y950976D02*
Y978916D01*
X1291590Y1039876D02*
Y1066292D01*
Y982980D02*
Y1035812D01*
Y950976D02*
Y978916D01*
X1291082Y1040384D02*
Y1066292D01*
Y982980D02*
Y1035812D01*
Y950976D02*
Y978408D01*
X1290574Y1040384D02*
Y1066292D01*
Y982980D02*
Y1035812D01*
Y950976D02*
Y978408D01*
X1290066Y1040384D02*
Y1066292D01*
Y982980D02*
Y1035812D01*
Y950976D02*
Y978408D01*
X1289558Y1040892D02*
Y1066292D01*
Y982980D02*
Y1035812D01*
Y950976D02*
Y977900D01*
X1289050Y1040892D02*
Y1066292D01*
Y983488D02*
Y1035304D01*
Y950976D02*
Y977900D01*
X1288542Y1040892D02*
Y1066292D01*
Y983488D02*
Y1035304D01*
Y950976D02*
Y977900D01*
X1288034Y1040892D02*
Y1065784D01*
Y983488D02*
Y1035304D01*
Y951484D02*
Y977900D01*
X1287526Y1040892D02*
Y1065784D01*
Y983488D02*
Y1035304D01*
Y951484D02*
Y977900D01*
X1287018Y1041400D02*
Y1065784D01*
Y983488D02*
Y1035304D01*
Y951484D02*
Y977392D01*
X1286510Y1041400D02*
Y1065784D01*
Y983488D02*
Y1035304D01*
Y951484D02*
Y977392D01*
X1286002Y1041400D02*
Y1065784D01*
Y983488D02*
Y1035304D01*
Y951484D02*
Y977392D01*
X1285494Y1041400D02*
Y1065784D01*
Y983488D02*
Y1035304D01*
Y951484D02*
Y977392D01*
X1284986Y1041400D02*
Y1065276D01*
Y983996D02*
Y1034796D01*
Y951992D02*
Y977392D01*
X1284478Y1041400D02*
Y1065276D01*
Y983996D02*
Y1034796D01*
Y951992D02*
Y977392D01*
X1283970Y1041400D02*
Y1065276D01*
Y983996D02*
Y1034796D01*
Y951992D02*
Y977392D01*
X1283462Y1041400D02*
Y1065276D01*
Y983996D02*
Y1034796D01*
Y951992D02*
Y977392D01*
X1282954Y1041400D02*
Y1065276D01*
Y984504D02*
Y1034288D01*
Y951992D02*
Y977392D01*
X1282446Y1041400D02*
Y1064768D01*
Y984504D02*
Y1034288D01*
Y952500D02*
Y977392D01*
X1281938Y1041400D02*
Y1064768D01*
Y984504D02*
Y1034288D01*
Y952500D02*
Y977392D01*
X1281430Y1041400D02*
Y1064768D01*
Y985012D02*
Y1033780D01*
Y952500D02*
Y977392D01*
X1280922Y1041400D02*
Y1064768D01*
Y985012D02*
Y1033780D01*
Y952500D02*
Y977392D01*
X1280414Y1041400D02*
Y1064260D01*
Y985012D02*
Y1033780D01*
Y953008D02*
Y977392D01*
X1279906Y1041400D02*
Y1064260D01*
Y985520D02*
Y1033272D01*
Y953008D02*
Y977392D01*
X1279398Y1041400D02*
Y1064260D01*
Y985520D02*
Y1033272D01*
Y953008D02*
Y977392D01*
X1278890Y1041400D02*
Y1063752D01*
Y986028D02*
Y1032764D01*
Y953516D02*
Y977392D01*
X1278382Y1041400D02*
Y1063752D01*
Y986028D02*
Y1032764D01*
Y953516D02*
Y977392D01*
X1277874Y1041400D02*
Y1063752D01*
Y986536D02*
Y1032256D01*
Y953516D02*
Y977392D01*
X1277366Y1041400D02*
Y1063244D01*
Y986536D02*
Y1032256D01*
Y954024D02*
Y977392D01*
X1276858Y1040892D02*
Y1063244D01*
Y987044D02*
Y1031748D01*
Y954024D02*
Y977900D01*
X1276350Y1040892D02*
Y1063244D01*
Y987552D02*
Y1031240D01*
Y954024D02*
Y977900D01*
X1275842Y1040892D02*
Y1062736D01*
Y987552D02*
Y1031240D01*
Y954532D02*
Y977900D01*
X1275334Y1040892D02*
Y1062736D01*
Y988060D02*
Y1030732D01*
Y954532D02*
Y977900D01*
X1274826Y1040892D02*
Y1062736D01*
Y988568D02*
Y1030224D01*
Y954532D02*
Y977900D01*
X1274318Y1040384D02*
Y1062228D01*
Y988568D02*
Y1030224D01*
Y955040D02*
Y978408D01*
X1273810Y1040384D02*
Y1062228D01*
Y989076D02*
Y1029716D01*
Y955040D02*
Y978408D01*
X1273302Y1040384D02*
Y1061720D01*
Y989584D02*
Y1029208D01*
Y955548D02*
Y978408D01*
X1272794Y1040384D02*
Y1061720D01*
Y990092D02*
Y1028700D01*
Y955548D02*
Y978408D01*
X1272286Y1039876D02*
Y1061720D01*
Y990600D02*
Y1028192D01*
Y955548D02*
Y978916D01*
X1271778Y1039876D02*
Y1061212D01*
Y991108D02*
Y1027684D01*
Y956056D02*
Y978916D01*
X1271270Y1039876D02*
Y1061212D01*
Y991616D02*
Y1027176D01*
Y956056D02*
Y978916D01*
X1270762Y1039368D02*
Y1060704D01*
Y992124D02*
Y1026668D01*
Y956564D02*
Y979424D01*
X1270254Y1039368D02*
Y1060704D01*
Y992632D02*
Y1026160D01*
Y956564D02*
Y979424D01*
X1269746Y1038860D02*
Y1060196D01*
Y993140D02*
Y1025652D01*
Y957072D02*
Y979932D01*
X1269238Y1038860D02*
Y1060196D01*
Y994156D02*
Y1024636D01*
Y957072D02*
Y979932D01*
X1268730Y1038860D02*
Y1059688D01*
Y994664D02*
Y1024128D01*
Y957580D02*
Y979932D01*
X1268222Y1038352D02*
Y1059688D01*
Y995680D02*
Y1023112D01*
Y957580D02*
Y980440D01*
X1267714Y1038352D02*
Y1059180D01*
Y996188D02*
Y1022604D01*
Y958088D02*
Y980440D01*
X1267206Y1037844D02*
Y1058672D01*
Y997204D02*
Y1021588D01*
Y958596D02*
Y980948D01*
X1266698Y1037844D02*
Y1058672D01*
Y998220D02*
Y1020572D01*
Y958596D02*
Y980948D01*
X1266190Y1037336D02*
Y1058164D01*
Y999236D02*
Y1019556D01*
Y959104D02*
Y981456D01*
X1265682Y1036828D02*
Y1058164D01*
Y1000760D02*
Y1018032D01*
Y959104D02*
Y981964D01*
X1265174Y1036828D02*
Y1057656D01*
Y1002284D02*
Y1016508D01*
Y959612D02*
Y981964D01*
X1264666Y1036320D02*
Y1057148D01*
Y1003808D02*
Y1014984D01*
Y960120D02*
Y982472D01*
X1264158Y1036320D02*
Y1057148D01*
Y1007872D02*
Y1010920D01*
Y960120D02*
Y982472D01*
X1263650Y1035812D02*
Y1056640D01*
Y960628D02*
Y982980D01*
X1263142Y1035304D02*
Y1056132D01*
Y961136D02*
Y983488D01*
X1262634Y1034796D02*
Y1056132D01*
Y961136D02*
Y983996D01*
X1262126Y1034796D02*
Y1055624D01*
Y961644D02*
Y983996D01*
X1261618Y1034288D02*
Y1055116D01*
Y962152D02*
Y984504D01*
X1261110Y1033780D02*
Y1055116D01*
Y962152D02*
Y985012D01*
X1260602Y1033272D02*
Y1054608D01*
Y962660D02*
Y985520D01*
X1260094Y1032764D02*
Y1054100D01*
Y963168D02*
Y986028D01*
X1259586Y1032256D02*
Y1053592D01*
Y963676D02*
Y986536D01*
X1259078Y1031748D02*
Y1053084D01*
Y964184D02*
Y987044D01*
X1258570Y1031240D02*
Y1052576D01*
Y964692D02*
Y987552D01*
X1258062Y1030732D02*
Y1052576D01*
Y964692D02*
Y988060D01*
X1257554Y1030224D02*
Y1052068D01*
Y965200D02*
Y988568D01*
X1257046Y1029716D02*
Y1051560D01*
Y965708D02*
Y989076D01*
X1256538Y1029208D02*
Y1051052D01*
Y966216D02*
Y989584D01*
X1256030Y1028192D02*
Y1050544D01*
Y966724D02*
Y990600D01*
X1255522Y1027684D02*
Y1050036D01*
Y967232D02*
Y991108D01*
X1255014Y1026668D02*
Y1049528D01*
Y967740D02*
Y992124D01*
X1254506Y1026160D02*
Y1049020D01*
Y968248D02*
Y992632D01*
X1253998Y1025144D02*
Y1048512D01*
Y968756D02*
Y993648D01*
X1253490Y1024128D02*
Y1048004D01*
Y969264D02*
Y994664D01*
X1252982Y1023112D02*
Y1047496D01*
Y969772D02*
Y995680D01*
X1252474Y1021588D02*
Y1046988D01*
Y970280D02*
Y997204D01*
X1251966Y1020064D02*
Y1045972D01*
Y971296D02*
Y998728D01*
X1251458Y1018540D02*
Y1045464D01*
Y971804D02*
Y1000252D01*
X1250950Y1016508D02*
Y1044956D01*
Y972312D02*
Y1002284D01*
X1250442Y1013968D02*
Y1044448D01*
Y972820D02*
Y1004824D01*
X1249934Y973328D02*
Y1043940D01*
X1249426Y974344D02*
Y1042924D01*
X1248918Y974852D02*
Y1042416D01*
X1248410Y975868D02*
Y1041400D01*
X1247902Y976376D02*
Y1040892D01*
X1247394Y977392D02*
Y1039876D01*
X1246886Y977900D02*
Y1039368D01*
X1246378Y978916D02*
Y1038352D01*
X1245870Y979932D02*
Y1037336D01*
X1245362Y980440D02*
Y1036828D01*
X1244854Y981456D02*
Y1035812D01*
X1244346Y982472D02*
Y1034796D01*
X1243838Y983488D02*
Y1033780D01*
X1243330Y984504D02*
Y1032764D01*
X1242822Y986028D02*
Y1031240D01*
X1242314Y987044D02*
Y1030224D01*
X1241806Y988568D02*
Y1028700D01*
X1241298Y990092D02*
Y1027176D01*
X1240790Y991616D02*
Y1025652D01*
X1240282Y993140D02*
Y1024128D01*
X1239774Y995172D02*
Y1022096D01*
X1239266Y997712D02*
Y1019556D01*
X1238758Y1000760D02*
Y1016508D01*
X847598Y1068324D02*
Y1069848D01*
Y1091184D02*
Y1092708D01*
Y1132840D02*
Y1134364D01*
Y1141476D02*
Y1143000D01*
Y1165860D02*
Y1173480D01*
Y1194816D02*
Y1196340D01*
Y1225296D02*
Y1225804D01*
Y1236472D02*
Y1239012D01*
Y1243076D02*
Y1245108D01*
Y1252728D02*
Y1254760D01*
X848106Y1068324D02*
Y1069848D01*
Y1091184D02*
Y1092708D01*
Y1132840D02*
Y1134364D01*
Y1141476D02*
Y1143000D01*
Y1165860D02*
Y1173988D01*
Y1194816D02*
Y1196340D01*
Y1224788D02*
Y1225804D01*
Y1235964D02*
Y1239520D01*
Y1243076D02*
Y1245616D01*
Y1252220D02*
Y1254760D01*
X848614Y1068324D02*
Y1069848D01*
Y1091184D02*
Y1092708D01*
Y1132840D02*
Y1134364D01*
Y1141476D02*
Y1143000D01*
Y1165860D02*
Y1174496D01*
Y1194816D02*
Y1196340D01*
Y1224280D02*
Y1225804D01*
Y1235964D02*
Y1239520D01*
Y1243584D02*
Y1246124D01*
Y1251712D02*
Y1254252D01*
X849122Y1068324D02*
Y1069848D01*
Y1132840D02*
Y1134364D01*
Y1141476D02*
Y1143000D01*
Y1165860D02*
Y1167384D01*
Y1170940D02*
Y1175004D01*
Y1194816D02*
Y1196340D01*
Y1224280D02*
Y1225804D01*
Y1235964D02*
Y1239520D01*
Y1244092D02*
Y1246124D01*
Y1251712D02*
Y1253744D01*
X849630Y1068324D02*
Y1069848D01*
Y1132840D02*
Y1134364D01*
Y1141476D02*
Y1143000D01*
Y1165860D02*
Y1167384D01*
Y1172464D02*
Y1175004D01*
Y1194816D02*
Y1196340D01*
Y1224280D02*
Y1225804D01*
Y1235456D02*
Y1237488D01*
Y1237996D02*
Y1240028D01*
Y1244092D02*
Y1246632D01*
Y1251204D02*
Y1253744D01*
X850138Y1068324D02*
Y1069848D01*
Y1132840D02*
Y1134364D01*
Y1141476D02*
Y1143000D01*
Y1165860D02*
Y1167384D01*
Y1172972D02*
Y1175004D01*
Y1194816D02*
Y1196340D01*
Y1224280D02*
Y1225804D01*
Y1235456D02*
Y1237488D01*
Y1237996D02*
Y1240028D01*
Y1244600D02*
Y1247140D01*
Y1250696D02*
Y1253236D01*
X850646Y1068324D02*
Y1069848D01*
Y1132840D02*
Y1134364D01*
Y1141476D02*
Y1143000D01*
Y1165860D02*
Y1167384D01*
Y1172972D02*
Y1175004D01*
Y1194816D02*
Y1196340D01*
Y1224280D02*
Y1225804D01*
Y1235456D02*
Y1237488D01*
Y1237996D02*
Y1240028D01*
Y1245108D02*
Y1247140D01*
Y1250696D02*
Y1252728D01*
X851154Y1063752D02*
Y1067308D01*
Y1068324D02*
Y1069848D01*
Y1073912D02*
Y1077976D01*
Y1083056D02*
Y1087628D01*
Y1091184D02*
Y1092708D01*
Y1097280D02*
Y1100836D01*
Y1101852D02*
Y1103376D01*
Y1105408D02*
Y1106932D01*
Y1107948D02*
Y1112012D01*
Y1117600D02*
Y1121664D01*
Y1128268D02*
Y1131824D01*
Y1132840D02*
Y1134364D01*
Y1141476D02*
Y1143000D01*
Y1144016D02*
Y1147572D01*
Y1150620D02*
Y1152652D01*
Y1157224D02*
Y1159256D01*
Y1165860D02*
Y1167384D01*
Y1173480D02*
Y1175004D01*
Y1179576D02*
Y1183640D01*
Y1187704D02*
Y1189228D01*
Y1189736D02*
Y1192784D01*
Y1194816D02*
Y1196340D01*
Y1199896D02*
Y1202944D01*
Y1205484D02*
Y1210056D01*
Y1213612D02*
Y1215136D01*
Y1216152D02*
Y1220216D01*
Y1222756D02*
Y1227836D01*
Y1234948D02*
Y1236980D01*
Y1238504D02*
Y1240536D01*
Y1245108D02*
Y1247648D01*
Y1250188D02*
Y1252728D01*
X851662Y1063244D02*
Y1067816D01*
Y1068324D02*
Y1069848D01*
Y1073404D02*
Y1078484D01*
Y1082040D02*
Y1088644D01*
Y1091184D02*
Y1092708D01*
Y1096772D02*
Y1101344D01*
Y1101852D02*
Y1103376D01*
Y1105408D02*
Y1112520D01*
Y1117092D02*
Y1122172D01*
Y1127760D02*
Y1132332D01*
Y1132840D02*
Y1134364D01*
Y1141476D02*
Y1143000D01*
Y1143508D02*
Y1148080D01*
Y1150620D02*
Y1152652D01*
Y1157224D02*
Y1159256D01*
Y1165860D02*
Y1167384D01*
Y1172972D02*
Y1175004D01*
Y1179068D02*
Y1184148D01*
Y1187704D02*
Y1192784D01*
Y1194816D02*
Y1196340D01*
Y1199388D02*
Y1202436D01*
Y1204468D02*
Y1211072D01*
Y1213612D02*
Y1220724D01*
Y1222756D02*
Y1227836D01*
Y1234948D02*
Y1236980D01*
Y1238504D02*
Y1240536D01*
Y1245616D02*
Y1248156D01*
Y1249680D02*
Y1252220D01*
X852170Y1062736D02*
Y1069848D01*
Y1072896D02*
Y1078992D01*
Y1081532D02*
Y1089152D01*
Y1091184D02*
Y1092708D01*
Y1096264D02*
Y1103376D01*
Y1105408D02*
Y1113028D01*
Y1116584D02*
Y1122680D01*
Y1127252D02*
Y1134364D01*
Y1141476D02*
Y1148588D01*
Y1150620D02*
Y1153160D01*
Y1157224D02*
Y1159256D01*
Y1165860D02*
Y1167384D01*
Y1172972D02*
Y1175004D01*
Y1178560D02*
Y1184656D01*
Y1187704D02*
Y1192784D01*
Y1194816D02*
Y1196340D01*
Y1198880D02*
Y1201928D01*
Y1203960D02*
Y1211580D01*
Y1213612D02*
Y1221232D01*
Y1222756D02*
Y1227836D01*
Y1234440D02*
Y1236980D01*
Y1238504D02*
Y1241044D01*
Y1246124D02*
Y1248156D01*
Y1249680D02*
Y1251712D01*
X852678Y1062228D02*
Y1065276D01*
Y1066292D02*
Y1069848D01*
Y1072388D02*
Y1075436D01*
Y1076452D02*
Y1079500D01*
Y1081532D02*
Y1084580D01*
Y1085596D02*
Y1089152D01*
Y1091184D02*
Y1092708D01*
Y1095756D02*
Y1098804D01*
Y1099820D02*
Y1103376D01*
Y1105408D02*
Y1108964D01*
Y1109980D02*
Y1113028D01*
Y1116076D02*
Y1119124D01*
Y1120140D02*
Y1123188D01*
Y1126744D02*
Y1129792D01*
Y1130808D02*
Y1134364D01*
Y1141476D02*
Y1145032D01*
Y1146048D02*
Y1149096D01*
Y1151128D02*
Y1153160D01*
Y1156716D02*
Y1158748D01*
Y1165860D02*
Y1167384D01*
Y1171448D02*
Y1174496D01*
Y1178052D02*
Y1181100D01*
Y1182116D02*
Y1185164D01*
Y1187704D02*
Y1190752D01*
Y1191260D02*
Y1192276D01*
Y1194816D02*
Y1196340D01*
Y1198372D02*
Y1201420D01*
Y1203452D02*
Y1207008D01*
Y1208024D02*
Y1211580D01*
Y1213612D02*
Y1217168D01*
Y1218184D02*
Y1221232D01*
Y1224280D02*
Y1225804D01*
Y1234440D02*
Y1236472D01*
Y1239012D02*
Y1241044D01*
Y1246124D02*
Y1248664D01*
Y1249172D02*
Y1251712D01*
X853186Y1061720D02*
Y1064260D01*
Y1067308D02*
Y1069848D01*
Y1072388D02*
Y1074420D01*
Y1077468D02*
Y1080008D01*
Y1081532D02*
Y1083564D01*
Y1087120D02*
Y1089152D01*
Y1091184D02*
Y1092708D01*
Y1095756D02*
Y1097788D01*
Y1100836D02*
Y1103376D01*
Y1105408D02*
Y1107948D01*
Y1110996D02*
Y1113028D01*
Y1116076D02*
Y1118108D01*
Y1121156D02*
Y1123696D01*
Y1126236D02*
Y1128776D01*
Y1131824D02*
Y1134364D01*
Y1141476D02*
Y1144016D01*
Y1147064D02*
Y1149096D01*
Y1151128D02*
Y1153160D01*
Y1156716D02*
Y1158748D01*
Y1165860D02*
Y1173988D01*
Y1178052D02*
Y1180084D01*
Y1183132D02*
Y1185672D01*
Y1187704D02*
Y1190244D01*
Y1194816D02*
Y1196340D01*
Y1197864D02*
Y1200404D01*
Y1203452D02*
Y1205484D01*
Y1209548D02*
Y1211580D01*
Y1213612D02*
Y1216152D01*
Y1219200D02*
Y1221232D01*
Y1224280D02*
Y1225804D01*
Y1234440D02*
Y1236472D01*
Y1239012D02*
Y1241044D01*
Y1246632D02*
Y1251204D01*
X853694Y1061720D02*
Y1063752D01*
Y1067816D02*
Y1069848D01*
Y1071880D02*
Y1073912D01*
Y1077976D02*
Y1080008D01*
Y1081532D02*
Y1083564D01*
Y1091184D02*
Y1092708D01*
Y1095248D02*
Y1097280D01*
Y1101344D02*
Y1103376D01*
Y1105408D02*
Y1107440D01*
Y1110996D02*
Y1113028D01*
Y1115568D02*
Y1117600D01*
Y1121664D02*
Y1123696D01*
Y1126236D02*
Y1128268D01*
Y1132332D02*
Y1134364D01*
Y1141476D02*
Y1143508D01*
Y1147572D02*
Y1149604D01*
Y1151636D02*
Y1153668D01*
Y1156716D02*
Y1158748D01*
Y1165860D02*
Y1174496D01*
Y1177544D02*
Y1179576D01*
Y1183640D02*
Y1185672D01*
Y1187704D02*
Y1189736D01*
Y1194816D02*
Y1196340D01*
Y1197356D02*
Y1199896D01*
Y1203452D02*
Y1205484D01*
Y1209548D02*
Y1211580D01*
Y1213612D02*
Y1215644D01*
Y1219200D02*
Y1221232D01*
Y1224280D02*
Y1225804D01*
Y1233932D02*
Y1235964D01*
Y1239520D02*
Y1241552D01*
Y1247140D02*
Y1250696D01*
X854202Y1061720D02*
Y1063752D01*
Y1067816D02*
Y1069848D01*
Y1071880D02*
Y1073912D01*
Y1077976D02*
Y1080008D01*
Y1081532D02*
Y1084580D01*
Y1091184D02*
Y1092708D01*
Y1095248D02*
Y1097280D01*
Y1101344D02*
Y1103376D01*
Y1105408D02*
Y1107440D01*
Y1110996D02*
Y1113028D01*
Y1115568D02*
Y1117600D01*
Y1121664D02*
Y1123696D01*
Y1126236D02*
Y1128268D01*
Y1132332D02*
Y1134364D01*
Y1141476D02*
Y1143508D01*
Y1147572D02*
Y1149604D01*
Y1151636D02*
Y1153668D01*
Y1156208D02*
Y1158240D01*
Y1165860D02*
Y1175004D01*
Y1177544D02*
Y1179576D01*
Y1183640D02*
Y1185672D01*
Y1187704D02*
Y1189736D01*
Y1194816D02*
Y1199388D01*
Y1210056D02*
Y1211580D01*
Y1213612D02*
Y1215644D01*
Y1219200D02*
Y1221232D01*
Y1224280D02*
Y1225804D01*
Y1233932D02*
Y1235964D01*
Y1239520D02*
Y1241552D01*
Y1247140D02*
Y1250696D01*
X854710Y1061720D02*
Y1063752D01*
Y1067816D02*
Y1069848D01*
Y1071880D02*
Y1080008D01*
Y1081532D02*
Y1085596D01*
Y1091184D02*
Y1092708D01*
Y1095248D02*
Y1097280D01*
Y1101344D02*
Y1103376D01*
Y1105408D02*
Y1107440D01*
Y1111504D02*
Y1113028D01*
Y1115568D02*
Y1123696D01*
Y1126236D02*
Y1128268D01*
Y1132332D02*
Y1134364D01*
Y1141476D02*
Y1143508D01*
Y1147572D02*
Y1149604D01*
Y1151636D02*
Y1154176D01*
Y1156208D02*
Y1158240D01*
Y1165860D02*
Y1167384D01*
Y1171448D02*
Y1175004D01*
Y1177544D02*
Y1185672D01*
Y1187704D02*
Y1189736D01*
Y1194816D02*
Y1198880D01*
Y1207516D02*
Y1211580D01*
Y1213612D02*
Y1215644D01*
Y1219708D02*
Y1221232D01*
Y1224280D02*
Y1225804D01*
Y1233932D02*
Y1235964D01*
Y1239520D02*
Y1241552D01*
Y1247648D02*
Y1250188D01*
X855218Y1061720D02*
Y1063244D01*
Y1067816D02*
Y1069848D01*
Y1071880D02*
Y1080008D01*
Y1082040D02*
Y1088136D01*
Y1091184D02*
Y1092708D01*
Y1095248D02*
Y1096772D01*
Y1101344D02*
Y1103376D01*
Y1105408D02*
Y1106932D01*
Y1111504D02*
Y1113028D01*
Y1115568D02*
Y1123696D01*
Y1126236D02*
Y1127760D01*
Y1132332D02*
Y1134364D01*
Y1141476D02*
Y1143000D01*
Y1148080D02*
Y1149604D01*
Y1152144D02*
Y1154176D01*
Y1155700D02*
Y1158240D01*
Y1165860D02*
Y1167384D01*
Y1172972D02*
Y1175512D01*
Y1177544D02*
Y1185672D01*
Y1187704D02*
Y1189228D01*
Y1194816D02*
Y1199388D01*
Y1204976D02*
Y1211580D01*
Y1213612D02*
Y1215136D01*
Y1219708D02*
Y1221232D01*
Y1224280D02*
Y1225804D01*
Y1233424D02*
Y1242060D01*
Y1248156D02*
Y1249680D01*
X855726Y1061720D02*
Y1063244D01*
Y1068324D02*
Y1069848D01*
Y1071880D02*
Y1080008D01*
Y1082548D02*
Y1089152D01*
Y1091184D02*
Y1092708D01*
Y1095248D02*
Y1096772D01*
Y1101852D02*
Y1103376D01*
Y1105408D02*
Y1106932D01*
Y1111504D02*
Y1113028D01*
Y1115568D02*
Y1123696D01*
Y1126236D02*
Y1127760D01*
Y1132840D02*
Y1134364D01*
Y1141476D02*
Y1143000D01*
Y1148080D02*
Y1149604D01*
Y1152144D02*
Y1154176D01*
Y1155700D02*
Y1157732D01*
Y1165860D02*
Y1167384D01*
Y1173480D02*
Y1175512D01*
Y1177544D02*
Y1185672D01*
Y1187704D02*
Y1189228D01*
Y1194816D02*
Y1199388D01*
Y1204468D02*
Y1211580D01*
Y1213612D02*
Y1215136D01*
Y1219708D02*
Y1221232D01*
Y1224280D02*
Y1225804D01*
Y1233424D02*
Y1242060D01*
Y1248156D02*
Y1249680D01*
X856234Y1061720D02*
Y1063244D01*
Y1068324D02*
Y1069848D01*
Y1071880D02*
Y1073404D01*
Y1083564D02*
Y1089660D01*
Y1091184D02*
Y1092708D01*
Y1095248D02*
Y1096772D01*
Y1101852D02*
Y1103376D01*
Y1105408D02*
Y1106932D01*
Y1111504D02*
Y1113028D01*
Y1115568D02*
Y1117092D01*
Y1126236D02*
Y1127760D01*
Y1132840D02*
Y1134364D01*
Y1141476D02*
Y1143000D01*
Y1147572D02*
Y1149604D01*
Y1152144D02*
Y1154684D01*
Y1155700D02*
Y1157732D01*
Y1165860D02*
Y1167384D01*
Y1173480D02*
Y1175512D01*
Y1177544D02*
Y1179068D01*
Y1187704D02*
Y1189228D01*
Y1194816D02*
Y1196848D01*
Y1197356D02*
Y1199896D01*
Y1203960D02*
Y1211580D01*
Y1213612D02*
Y1215136D01*
Y1219708D02*
Y1221232D01*
Y1224280D02*
Y1225804D01*
Y1232916D02*
Y1242060D01*
Y1248156D02*
Y1249680D01*
X856742Y1061720D02*
Y1063752D01*
Y1067816D02*
Y1069848D01*
Y1071880D02*
Y1073912D01*
Y1085596D02*
Y1089660D01*
Y1091184D02*
Y1092708D01*
Y1095248D02*
Y1097280D01*
Y1101344D02*
Y1103376D01*
Y1105408D02*
Y1106932D01*
Y1111504D02*
Y1113028D01*
Y1115568D02*
Y1117600D01*
Y1126236D02*
Y1128268D01*
Y1132332D02*
Y1134364D01*
Y1141476D02*
Y1143508D01*
Y1147572D02*
Y1149604D01*
Y1152652D02*
Y1154684D01*
Y1155192D02*
Y1157224D01*
Y1165860D02*
Y1167384D01*
Y1173988D02*
Y1175512D01*
Y1177544D02*
Y1179576D01*
Y1187704D02*
Y1189228D01*
Y1194816D02*
Y1196340D01*
Y1197864D02*
Y1200404D01*
Y1203452D02*
Y1207008D01*
Y1209548D02*
Y1211580D01*
Y1213612D02*
Y1215136D01*
Y1219708D02*
Y1221232D01*
Y1224280D02*
Y1225804D01*
Y1232916D02*
Y1234948D01*
Y1240536D02*
Y1242568D01*
Y1248156D02*
Y1249680D01*
X857250Y1061720D02*
Y1063752D01*
Y1067816D02*
Y1069848D01*
Y1071880D02*
Y1073912D01*
Y1087628D02*
Y1089660D01*
Y1091184D02*
Y1092708D01*
Y1095248D02*
Y1097280D01*
Y1101344D02*
Y1103376D01*
Y1105408D02*
Y1106932D01*
Y1111504D02*
Y1113028D01*
Y1115568D02*
Y1117600D01*
Y1126236D02*
Y1128268D01*
Y1132332D02*
Y1134364D01*
Y1141476D02*
Y1143508D01*
Y1147572D02*
Y1149604D01*
Y1152652D02*
Y1154684D01*
Y1155192D02*
Y1157224D01*
Y1165860D02*
Y1167384D01*
Y1173480D02*
Y1175512D01*
Y1177544D02*
Y1179576D01*
Y1187704D02*
Y1189228D01*
Y1194816D02*
Y1196340D01*
Y1198372D02*
Y1200912D01*
Y1203452D02*
Y1205484D01*
Y1209548D02*
Y1211580D01*
Y1213612D02*
Y1215136D01*
Y1219708D02*
Y1221232D01*
Y1224280D02*
Y1225804D01*
Y1232916D02*
Y1234948D01*
Y1240536D02*
Y1242568D01*
Y1248156D02*
Y1249680D01*
X857758Y1061720D02*
Y1063752D01*
Y1067816D02*
Y1069848D01*
Y1071880D02*
Y1073912D01*
Y1077976D02*
Y1080008D01*
Y1081532D02*
Y1083564D01*
Y1088136D02*
Y1089660D01*
Y1091184D02*
Y1092708D01*
Y1095248D02*
Y1097280D01*
Y1101344D02*
Y1103376D01*
Y1105408D02*
Y1106932D01*
Y1111504D02*
Y1113028D01*
Y1115568D02*
Y1117600D01*
Y1121664D02*
Y1123696D01*
Y1126236D02*
Y1128268D01*
Y1132332D02*
Y1134364D01*
Y1141476D02*
Y1143508D01*
Y1147572D02*
Y1149604D01*
Y1153160D02*
Y1157224D01*
Y1165860D02*
Y1167384D01*
Y1173480D02*
Y1175512D01*
Y1177544D02*
Y1179576D01*
Y1183640D02*
Y1185672D01*
Y1187704D02*
Y1189228D01*
Y1194816D02*
Y1196340D01*
Y1198372D02*
Y1200912D01*
Y1203452D02*
Y1204976D01*
Y1209548D02*
Y1211580D01*
Y1213612D02*
Y1215136D01*
Y1219708D02*
Y1221232D01*
Y1224280D02*
Y1225804D01*
Y1232408D02*
Y1234948D01*
Y1240536D02*
Y1243076D01*
Y1248156D02*
Y1249680D01*
X858266Y1062228D02*
Y1064260D01*
Y1067308D02*
Y1069848D01*
Y1071880D02*
Y1074420D01*
Y1077468D02*
Y1080008D01*
Y1081532D02*
Y1083564D01*
Y1087628D02*
Y1089660D01*
Y1091184D02*
Y1092708D01*
Y1095756D02*
Y1097788D01*
Y1100836D02*
Y1103376D01*
Y1105408D02*
Y1106932D01*
Y1111504D02*
Y1113028D01*
Y1115568D02*
Y1118108D01*
Y1121156D02*
Y1123696D01*
Y1126744D02*
Y1128776D01*
Y1131824D02*
Y1134364D01*
Y1141476D02*
Y1144016D01*
Y1147064D02*
Y1149096D01*
Y1153160D02*
Y1156716D01*
Y1165860D02*
Y1167384D01*
Y1172972D02*
Y1175512D01*
Y1177544D02*
Y1180084D01*
Y1183132D02*
Y1185672D01*
Y1187704D02*
Y1189228D01*
Y1194816D02*
Y1196340D01*
Y1198880D02*
Y1201420D01*
Y1203452D02*
Y1205484D01*
Y1209040D02*
Y1212088D01*
Y1213612D02*
Y1215136D01*
Y1219708D02*
Y1221232D01*
Y1224280D02*
Y1226312D01*
Y1232408D02*
Y1234440D01*
Y1241044D02*
Y1243076D01*
Y1248156D02*
Y1249680D01*
X858774Y1062228D02*
Y1065276D01*
Y1066292D02*
Y1069848D01*
Y1072388D02*
Y1075944D01*
Y1076452D02*
Y1079500D01*
Y1081532D02*
Y1085088D01*
Y1086104D02*
Y1089660D01*
Y1091184D02*
Y1092708D01*
Y1095756D02*
Y1098804D01*
Y1099820D02*
Y1103376D01*
Y1105408D02*
Y1106932D01*
Y1111504D02*
Y1113028D01*
Y1116076D02*
Y1119632D01*
Y1120140D02*
Y1123188D01*
Y1126744D02*
Y1129792D01*
Y1130808D02*
Y1134364D01*
Y1141476D02*
Y1145032D01*
Y1146048D02*
Y1149096D01*
Y1153160D02*
Y1156716D01*
Y1165860D02*
Y1167384D01*
Y1171448D02*
Y1175004D01*
Y1178052D02*
Y1181608D01*
Y1182116D02*
Y1185164D01*
Y1187704D02*
Y1189228D01*
Y1194816D02*
Y1196340D01*
Y1199388D02*
Y1201928D01*
Y1203452D02*
Y1206500D01*
Y1207516D02*
Y1212088D01*
Y1213612D02*
Y1215136D01*
Y1219708D02*
Y1221232D01*
Y1224280D02*
Y1226820D01*
Y1232408D02*
Y1234440D01*
Y1241044D02*
Y1243076D01*
Y1248156D02*
Y1249680D01*
X859282Y1062736D02*
Y1069848D01*
Y1072896D02*
Y1079500D01*
Y1082040D02*
Y1089152D01*
Y1091184D02*
Y1092708D01*
Y1096264D02*
Y1103376D01*
Y1105408D02*
Y1106932D01*
Y1111504D02*
Y1113028D01*
Y1116584D02*
Y1123188D01*
Y1127252D02*
Y1134364D01*
Y1141476D02*
Y1148588D01*
Y1153668D02*
Y1156716D01*
Y1165860D02*
Y1175004D01*
Y1178560D02*
Y1185164D01*
Y1187704D02*
Y1189228D01*
Y1194816D02*
Y1196340D01*
Y1199896D02*
Y1202436D01*
Y1203452D02*
Y1212088D01*
Y1213612D02*
Y1215136D01*
Y1219708D02*
Y1221232D01*
Y1224280D02*
Y1227836D01*
Y1231900D02*
Y1233932D01*
Y1241552D02*
Y1243584D01*
Y1248156D02*
Y1249680D01*
X859790Y1063244D02*
Y1067816D01*
Y1068324D02*
Y1069848D01*
Y1073404D02*
Y1078992D01*
Y1082548D02*
Y1088644D01*
Y1091184D02*
Y1092708D01*
Y1096772D02*
Y1103376D01*
Y1105408D02*
Y1106932D01*
Y1111504D02*
Y1113028D01*
Y1117092D02*
Y1122680D01*
Y1127760D02*
Y1132332D01*
Y1132840D02*
Y1134364D01*
Y1141476D02*
Y1143000D01*
Y1143508D02*
Y1148080D01*
Y1153668D02*
Y1156208D01*
Y1165860D02*
Y1174496D01*
Y1179068D02*
Y1184656D01*
Y1187704D02*
Y1189228D01*
Y1194816D02*
Y1196340D01*
Y1199896D02*
Y1202436D01*
Y1203960D02*
Y1212088D01*
Y1213612D02*
Y1215136D01*
Y1219708D02*
Y1221232D01*
Y1224280D02*
Y1227836D01*
Y1231900D02*
Y1233932D01*
Y1241552D02*
Y1243584D01*
Y1248156D02*
Y1249680D01*
X860298Y1063752D02*
Y1067308D01*
Y1068324D02*
Y1069848D01*
Y1073912D02*
Y1077976D01*
Y1083056D02*
Y1088136D01*
Y1091184D02*
Y1092708D01*
Y1097280D02*
Y1101344D01*
Y1101852D02*
Y1103376D01*
Y1105408D02*
Y1106932D01*
Y1111504D02*
Y1113028D01*
Y1117600D02*
Y1121664D01*
Y1128268D02*
Y1131824D01*
Y1132840D02*
Y1134364D01*
Y1141476D02*
Y1143000D01*
Y1144016D02*
Y1147572D01*
Y1153668D02*
Y1156208D01*
Y1165860D02*
Y1173480D01*
Y1179576D02*
Y1183640D01*
Y1187704D02*
Y1189228D01*
Y1194816D02*
Y1196340D01*
Y1200404D02*
Y1202944D01*
Y1204468D02*
Y1209040D01*
Y1210056D02*
Y1212088D01*
Y1213612D02*
Y1215136D01*
Y1219708D02*
Y1221232D01*
Y1224788D02*
Y1227836D01*
Y1231900D02*
Y1233932D01*
Y1241552D02*
Y1243584D01*
Y1248156D02*
Y1249680D01*
X860806Y1101344D02*
Y1103376D01*
Y1153668D02*
Y1155700D01*
X861314Y1095248D02*
Y1097280D01*
Y1101344D02*
Y1103376D01*
Y1153668D02*
Y1155700D01*
X861822Y1095248D02*
Y1097280D01*
Y1100836D02*
Y1103376D01*
Y1153160D02*
Y1155700D01*
X862330Y1095248D02*
Y1098804D01*
Y1099820D02*
Y1102868D01*
Y1151636D02*
Y1152144D01*
Y1152652D02*
Y1155192D01*
X862838Y1095248D02*
Y1102868D01*
Y1151636D02*
Y1155192D01*
X863346Y1095756D02*
Y1102360D01*
Y1151636D02*
Y1154684D01*
X863854Y1096772D02*
Y1101344D01*
Y1151636D02*
Y1154176D01*
X982980Y1189482D02*
X986536D01*
X980440D02*
X980948D01*
X981964Y1189990D02*
X988060D01*
X980948Y1190498D02*
X988568D01*
X979932D02*
X980440D01*
X975360D02*
X975868D01*
X1009904Y1191006D02*
X1010412D01*
X980440D02*
X989076D01*
X959612Y1191514D02*
X1009904D01*
X959612Y1192022D02*
X1009904D01*
X959612Y1192530D02*
X1009904D01*
X959612Y1193038D02*
X1009904D01*
X959612Y1193546D02*
X1009904D01*
X959612Y1194054D02*
X1010412D01*
X959104Y1194562D02*
X1010412D01*
X959104Y1195070D02*
X1010412D01*
X959104Y1195578D02*
X1010412D01*
X959104Y1196086D02*
X1010412D01*
X985012Y1196594D02*
X1010412D01*
X959104D02*
X984504D01*
X986536Y1197102D02*
X1010412D01*
X959104D02*
X982980D01*
X987044Y1197610D02*
X1010920D01*
X959104D02*
X982472D01*
X987552Y1198118D02*
X1010920D01*
X959104D02*
X981456D01*
X988568Y1198626D02*
X1010920D01*
X958596D02*
X980948D01*
X1003300Y1199134D02*
X1010920D01*
X958596D02*
X966216D01*
X1003300Y1199642D02*
X1010920D01*
X958596D02*
X966216D01*
X1003300Y1200150D02*
X1010920D01*
X958596D02*
X966216D01*
X1003300Y1200658D02*
X1010920D01*
X958596D02*
X966216D01*
X1003300Y1201166D02*
X1010920D01*
X958596D02*
X966216D01*
X1003808Y1201674D02*
X1011428D01*
X1002792D02*
X1003300D01*
X958596D02*
X966216D01*
X1003808Y1202182D02*
X1011428D01*
X958088D02*
X966216D01*
X1003808Y1202690D02*
X1011428D01*
X958088D02*
X965708D01*
X1003808Y1203198D02*
X1011428D01*
X958088D02*
X965708D01*
X1003808Y1203706D02*
X1011428D01*
X958088D02*
X965708D01*
X1003808Y1204214D02*
X1011428D01*
X958088D02*
X965708D01*
X1003808Y1204722D02*
X1011428D01*
X958088D02*
X965708D01*
X1003808Y1205230D02*
X1011428D01*
X958088D02*
X965708D01*
X1004316Y1205738D02*
X1011428D01*
X958088D02*
X965708D01*
X957072D02*
X957580D01*
X1012444Y1206246D02*
X1012952D01*
X1004316D02*
X1011936D01*
X957580D02*
X965200D01*
X1004316Y1206754D02*
X1012444D01*
X957072D02*
X965200D01*
X956056D02*
X956564D01*
X1004316Y1207262D02*
X1012952D01*
X956564D02*
X965200D01*
X1004316Y1207770D02*
X1013968D01*
X955548D02*
X965200D01*
X1004316Y1208278D02*
X1014476D01*
X955040D02*
X965200D01*
X1004316Y1208786D02*
X1014984D01*
X995680D02*
X996188D01*
X994664D02*
X995172D01*
X974344D02*
X974852D01*
X972820D02*
X973328D01*
X954532D02*
X965200D01*
X1016508Y1209294D02*
X1017016D01*
X1004316D02*
X1016000D01*
X994664D02*
X995680D01*
X973836D02*
X974852D01*
X972820D02*
X973328D01*
X965708D02*
X966216D01*
X953516D02*
X965200D01*
X1004824Y1209802D02*
X1016508D01*
X995172D02*
X996188D01*
X993648D02*
X994156D01*
X974852D02*
X975360D01*
X973328D02*
X974344D01*
X953008D02*
X965200D01*
X1018032Y1210310D02*
X1018540D01*
X1004824D02*
X1017524D01*
X995680D02*
X996696D01*
X991108D02*
X992124D01*
X976884D02*
X977392D01*
X972820D02*
X973836D01*
X971296D02*
X971804D01*
X951992D02*
X964692D01*
X950468D02*
X951484D01*
X1005332Y1210818D02*
X1018032D01*
X1004316D02*
X1004824D01*
X996188D02*
X997204D01*
X995172D02*
X995680D01*
X991616D02*
X992124D01*
X977392D02*
X977900D01*
X972312D02*
X973328D01*
X971296D02*
X971804D01*
X951484D02*
X964692D01*
X950468D02*
X950976D01*
X1005840Y1211326D02*
X1018540D01*
X996696D02*
X997712D01*
X991616D02*
X992632D01*
X980948D02*
X981456D01*
X976884D02*
X977900D01*
X971804D02*
X972820D01*
X950976D02*
X963676D01*
X948944D02*
X949452D01*
X1006856Y1211834D02*
X1019556D01*
X997204D02*
X998220D01*
X992124D02*
X992632D01*
X988568D02*
X989076D01*
X976884D02*
X977392D01*
X971296D02*
X972312D01*
X970280D02*
X970788D01*
X949960D02*
X963168D01*
X1007364Y1212342D02*
X1020064D01*
X1005840D02*
X1006348D01*
X997204D02*
X998728D01*
X992124D02*
X993140D01*
X989076D02*
X989584D01*
X988060D02*
X988568D01*
X980948D02*
X981456D01*
X976376D02*
X977392D01*
X970788D02*
X972312D01*
X949452D02*
X962152D01*
X1021588Y1212850D02*
X1022096D01*
X1007872D02*
X1020572D01*
X999744D02*
X1000252D01*
X997712D02*
X999236D01*
X992632D02*
X993140D01*
X988060D02*
X989076D01*
X984504D02*
X985012D01*
X980440D02*
X981456D01*
X976376D02*
X977392D01*
X975360D02*
X975868D01*
X970280D02*
X971804D01*
X968756D02*
X969772D01*
X948944D02*
X961644D01*
X1008888Y1213358D02*
X1021588D01*
X998220D02*
X999744D01*
X992632D02*
X993648D01*
X988060D02*
X989076D01*
X984504D02*
X985012D01*
X980440D02*
X981456D01*
X975868D02*
X976884D01*
X969772D02*
X971296D01*
X968756D02*
X969264D01*
X947928D02*
X961136D01*
X1009396Y1213866D02*
X1022096D01*
X998728D02*
X1000252D01*
X997712D02*
X998220D01*
X992632D02*
X993648D01*
X988568D02*
X989076D01*
X984504D02*
X985012D01*
X980440D02*
X981456D01*
X975868D02*
X976884D01*
X969264D02*
X970788D01*
X961136D02*
X961644D01*
X947420D02*
X960120D01*
X1009904Y1214374D02*
X1023112D01*
X999236D02*
X1000760D01*
X993140D02*
X994156D01*
X988568D02*
X989076D01*
X984504D02*
X985012D01*
X980440D02*
X980948D01*
X975360D02*
X976376D01*
X968756D02*
X970788D01*
X967232D02*
X968248D01*
X946404D02*
X959612D01*
X945388D02*
X945896D01*
X1010920Y1214882D02*
X1023620D01*
X1009396D02*
X1009904D01*
X999236D02*
X1001268D01*
X992632D02*
X994664D01*
X988568D02*
X989584D01*
X984504D02*
X985012D01*
X979932D02*
X980948D01*
X975360D02*
X976376D01*
X970788D02*
X971296D01*
X968248D02*
X970280D01*
X945896D02*
X958596D01*
X1011428Y1215390D02*
X1024128D01*
X999744D02*
X1001776D01*
X993648D02*
X994664D01*
X988568D02*
X989584D01*
X984504D02*
X985012D01*
X979932D02*
X980948D01*
X974852D02*
X975868D01*
X967740D02*
X969772D01*
X966216D02*
X967232D01*
X945388D02*
X958088D01*
X1011936Y1215898D02*
X1024128D01*
X1000252D02*
X1002284D01*
X993648D02*
X995172D01*
X988568D02*
X989584D01*
X984504D02*
X985520D01*
X979932D02*
X980948D01*
X974344D02*
X975868D01*
X967232D02*
X969264D01*
X966216D02*
X966724D01*
X945388D02*
X957580D01*
X1012952Y1216406D02*
X1024128D01*
X1010920D02*
X1011428D01*
X1000760D02*
X1002792D01*
X994156D02*
X995172D01*
X989076D02*
X990092D01*
X984504D02*
X985520D01*
X979424D02*
X980948D01*
X974344D02*
X975360D01*
X969264D02*
X969772D01*
X966724D02*
X968756D01*
X945388D02*
X956564D01*
X1013460Y1216914D02*
X1024128D01*
X1001268D02*
X1003300D01*
X994156D02*
X995680D01*
X989076D02*
X990092D01*
X984504D02*
X985520D01*
X979424D02*
X980440D01*
X973836D02*
X975360D01*
X972820D02*
X973328D01*
X966216D02*
X968248D01*
X965200D02*
X965708D01*
X945388D02*
X956056D01*
X1014476Y1217422D02*
X1024636D01*
X1001776D02*
X1003808D01*
X994664D02*
X996188D01*
X993648D02*
X994156D01*
X989076D02*
X990092D01*
X984504D02*
X985520D01*
X979424D02*
X980440D01*
X973836D02*
X974852D01*
X965708D02*
X968248D01*
X956564D02*
X957072D01*
X945388D02*
X955548D01*
X1014984Y1217930D02*
X1024636D01*
X1001776D02*
X1004316D01*
X994664D02*
X996188D01*
X989076D02*
X990092D01*
X984504D02*
X985520D01*
X979424D02*
X980440D01*
X973328D02*
X974852D01*
X965200D02*
X967740D01*
X944880D02*
X954532D01*
X1016000Y1218438D02*
X1024636D01*
X1002284D02*
X1004824D01*
X995172D02*
X996696D01*
X989076D02*
X990600D01*
X983996D02*
X985520D01*
X978916D02*
X980440D01*
X973328D02*
X974344D01*
X964692D02*
X967232D01*
X963676D02*
X964184D01*
X944880D02*
X954024D01*
X1016508Y1218946D02*
X1024636D01*
X1014984D02*
X1015492D01*
X1002792D02*
X1005332D01*
X1001776D02*
X1002284D01*
X995172D02*
X996696D01*
X989584D02*
X990600D01*
X983996D02*
X985520D01*
X978916D02*
X980440D01*
X974852D02*
X975360D01*
X972820D02*
X974344D01*
X964184D02*
X966724D01*
X944880D02*
X953008D01*
X1017016Y1219454D02*
X1024636D01*
X1003300D02*
X1005840D01*
X995680D02*
X997204D01*
X989584D02*
X990600D01*
X983996D02*
X985520D01*
X978916D02*
X979932D01*
X977900D02*
X978408D01*
X972312D02*
X973836D01*
X971296D02*
X971804D01*
X966724D02*
X967232D01*
X963676D02*
X966216D01*
X962152D02*
X963168D01*
X944880D02*
X952500D01*
X1017016Y1219962D02*
X1024636D01*
X1003808D02*
X1006348D01*
X1002792D02*
X1003300D01*
X995680D02*
X997204D01*
X989584D02*
X991108D01*
X983996D02*
X985520D01*
X978916D02*
X979932D01*
X972312D02*
X973836D01*
X963168D02*
X966216D01*
X944880D02*
X952500D01*
X943864D02*
X944372D01*
X1017016Y1220470D02*
X1024636D01*
X1003808D02*
X1006856D01*
X996188D02*
X997712D01*
X989584D02*
X991108D01*
X983996D02*
X985520D01*
X978408D02*
X979932D01*
X971804D02*
X973836D01*
X962660D02*
X965708D01*
X944880D02*
X952500D01*
X943864D02*
X944372D01*
X1017016Y1220978D02*
X1024636D01*
X1004316D02*
X1007364D01*
X996188D02*
X998220D01*
X991616D02*
X992124D01*
X989584D02*
X991108D01*
X983996D02*
X985520D01*
X978408D02*
X979932D01*
X971804D02*
X973328D01*
X965708D02*
X966216D01*
X962152D02*
X965200D01*
X961136D02*
X961644D01*
X944880D02*
X952500D01*
X1017016Y1221486D02*
X1024636D01*
X1004824D02*
X1007872D01*
X1003808D02*
X1004316D01*
X996696D02*
X998220D01*
X990092D02*
X991108D01*
X983996D02*
X985520D01*
X978408D02*
X979932D01*
X971296D02*
X973328D01*
X965200D02*
X966216D01*
X961644D02*
X964692D01*
X944880D02*
X952500D01*
X943864D02*
X944372D01*
X1017016Y1221994D02*
X1024636D01*
X1005332D02*
X1008380D01*
X999236D02*
X999744D01*
X996696D02*
X998728D01*
X990092D02*
X991616D01*
X983996D02*
X985520D01*
X982980D02*
X983488D01*
X977900D02*
X979424D01*
X970788D02*
X972820D01*
X961136D02*
X964184D01*
X960120D02*
X960628D01*
X944880D02*
X952500D01*
X1017016Y1222502D02*
X1024636D01*
X1005840D02*
X1008888D01*
X999236D02*
X999744D01*
X997204D02*
X998728D01*
X990092D02*
X991616D01*
X983996D02*
X985520D01*
X977900D02*
X979424D01*
X973328D02*
X973836D01*
X970788D02*
X972820D01*
X960628D02*
X963676D01*
X944880D02*
X952500D01*
X1017016Y1223010D02*
X1024636D01*
X1006348D02*
X1009396D01*
X1005332D02*
X1005840D01*
X997204D02*
X999236D01*
X990092D02*
X991616D01*
X983996D02*
X985520D01*
X977900D02*
X979424D01*
X970280D02*
X972312D01*
X964184D02*
X964692D01*
X960120D02*
X963676D01*
X944880D02*
X952500D01*
X1017016Y1223518D02*
X1024636D01*
X1006348D02*
X1009904D01*
X997204D02*
X999744D01*
X990092D02*
X992124D01*
X983996D02*
X985520D01*
X977900D02*
X979424D01*
X970280D02*
X972312D01*
X959612D02*
X963168D01*
X958596D02*
X959104D01*
X944880D02*
X952500D01*
X1017016Y1224026D02*
X1024636D01*
X1006856D02*
X1010412D01*
X1005332D02*
X1005840D01*
X997712D02*
X999744D01*
X990600D02*
X992124D01*
X983996D02*
X985520D01*
X977392D02*
X979424D01*
X972312D02*
X972820D01*
X969772D02*
X971804D01*
X959104D02*
X962660D01*
X944880D02*
X952500D01*
X1017016Y1224534D02*
X1024636D01*
X1007364D02*
X1010920D01*
X997712D02*
X1000252D01*
X990600D02*
X992124D01*
X983996D02*
X985520D01*
X977392D02*
X978916D01*
X969772D02*
X971804D01*
X958596D02*
X962152D01*
X957072D02*
X957580D01*
X944880D02*
X952500D01*
X1017016Y1225042D02*
X1024636D01*
X1007872D02*
X1011428D01*
X1006856D02*
X1007364D01*
X998220D02*
X1000252D01*
X990600D02*
X992124D01*
X983996D02*
X985520D01*
X977392D02*
X978916D01*
X969264D02*
X971296D01*
X958088D02*
X961644D01*
X957072D02*
X957580D01*
X944880D02*
X952500D01*
X1017016Y1225550D02*
X1024636D01*
X1008380D02*
X1011936D01*
X1007364D02*
X1007872D01*
X998220D02*
X1000760D01*
X990600D02*
X992632D01*
X983996D02*
X985520D01*
X976884D02*
X978916D01*
X968756D02*
X971296D01*
X957580D02*
X961644D01*
X944880D02*
X952500D01*
X1017016Y1226058D02*
X1024636D01*
X1008380D02*
X1012444D01*
X998728D02*
X1000760D01*
X990600D02*
X992632D01*
X983996D02*
X985520D01*
X976884D02*
X978916D01*
X968756D02*
X970788D01*
X957072D02*
X961136D01*
X956056D02*
X956564D01*
X944880D02*
X952500D01*
X1017016Y1226566D02*
X1024636D01*
X1008888D02*
X1012952D01*
X998728D02*
X1001268D01*
X997712D02*
X998220D01*
X991108D02*
X992632D01*
X983996D02*
X985520D01*
X976884D02*
X978916D01*
X968248D02*
X970788D01*
X967232D02*
X967740D01*
X961644D02*
X962152D01*
X956564D02*
X960628D01*
X955548D02*
X956056D01*
X944880D02*
X952500D01*
X1017016Y1227074D02*
X1024636D01*
X1009396D02*
X1013460D01*
X999236D02*
X1001776D01*
X991108D02*
X993140D01*
X983996D02*
X985520D01*
X976884D02*
X978408D01*
X968248D02*
X970788D01*
X967232D02*
X967740D01*
X956056D02*
X960120D01*
X955040D02*
X955548D01*
X944880D02*
X952500D01*
X1016508Y1227582D02*
X1024636D01*
X1009904D02*
X1013968D01*
X999236D02*
X1001776D01*
X991108D02*
X993140D01*
X983996D02*
X985520D01*
X976376D02*
X978408D01*
X970788D02*
X971296D01*
X967740D02*
X970280D01*
X960120D02*
X960628D01*
X955548D02*
X959612D01*
X954532D02*
X955040D01*
X944880D02*
X953008D01*
X1016508Y1228090D02*
X1024636D01*
X1010412D02*
X1014476D01*
X1009396D02*
X1009904D01*
X999744D02*
X1002284D01*
X991108D02*
X993140D01*
X983996D02*
X985520D01*
X976376D02*
X978408D01*
X970788D02*
X971296D01*
X967232D02*
X970280D01*
X960120D02*
X960628D01*
X955040D02*
X959612D01*
X944880D02*
X953008D01*
X1016508Y1228598D02*
X1024636D01*
X1010920D02*
X1014984D01*
X999744D02*
X1002284D01*
X991616D02*
X993140D01*
X983996D02*
X986028D01*
X976376D02*
X978408D01*
X967232D02*
X969772D01*
X966216D02*
X966724D01*
X954532D02*
X959104D01*
X953516D02*
X954024D01*
X944880D02*
X953008D01*
X1016508Y1229106D02*
X1024636D01*
X1010920D02*
X1015492D01*
X1000252D02*
X1002792D01*
X991616D02*
X993648D01*
X983996D02*
X986028D01*
X975868D02*
X977900D01*
X966724D02*
X969772D01*
X959104D02*
X959612D01*
X954024D02*
X958596D01*
X945388D02*
X953516D01*
X1011428Y1229614D02*
X1024128D01*
X1000252D02*
X1002792D01*
X991616D02*
X993648D01*
X983996D02*
X986028D01*
X975868D02*
X977900D01*
X966724D02*
X969264D01*
X945388D02*
X958088D01*
X1011936Y1230122D02*
X1024128D01*
X1000760D02*
X1003300D01*
X991616D02*
X993648D01*
X983996D02*
X986028D01*
X975868D02*
X977900D01*
X966216D02*
X969264D01*
X945388D02*
X957580D01*
X1012444Y1230630D02*
X1024128D01*
X1000760D02*
X1003808D01*
X991616D02*
X994156D01*
X983996D02*
X986028D01*
X975868D02*
X977900D01*
X969264D02*
X969772D01*
X966216D02*
X968756D01*
X945388D02*
X957580D01*
X1011936Y1231138D02*
X1024128D01*
X1004316D02*
X1004824D01*
X1000760D02*
X1003808D01*
X992124D02*
X994156D01*
X983488D02*
X986028D01*
X975360D02*
X977900D01*
X965708D02*
X968756D01*
X964692D02*
X965200D01*
X945388D02*
X957072D01*
X1012952Y1231646D02*
X1024128D01*
X1004824D02*
X1005332D01*
X1001268D02*
X1004316D01*
X1000252D02*
X1000760D01*
X992124D02*
X994156D01*
X983488D02*
X986028D01*
X975360D02*
X977392D01*
X965200D02*
X968248D01*
X945388D02*
X956564D01*
X1013460Y1232154D02*
X1024128D01*
X1012444D02*
X1012952D01*
X1004824D02*
X1005332D01*
X1001268D02*
X1004316D01*
X992124D02*
X994664D01*
X983488D02*
X986028D01*
X975360D02*
X977392D01*
X965200D02*
X968248D01*
X945896D02*
X956056D01*
X1013968Y1232662D02*
X1023620D01*
X1001776D02*
X1004824D01*
X992124D02*
X994664D01*
X983488D02*
X986028D01*
X974852D02*
X977392D01*
X964692D02*
X967740D01*
X945896D02*
X955548D01*
X1014476Y1233170D02*
X1023620D01*
X1013460D02*
X1013968D01*
X1001776D02*
X1004824D01*
X992124D02*
X994664D01*
X983488D02*
X986028D01*
X974852D02*
X977392D01*
X964692D02*
X967740D01*
X945896D02*
X955040D01*
X1014984Y1233678D02*
X1023620D01*
X1002284D02*
X1005332D01*
X992632D02*
X994664D01*
X983488D02*
X986028D01*
X974852D02*
X977392D01*
X964184D02*
X967232D01*
X945896D02*
X955040D01*
X1014984Y1234186D02*
X1023620D01*
X1002284D02*
X1005840D01*
X1001268D02*
X1001776D01*
X992632D02*
X995172D01*
X983488D02*
X986028D01*
X974852D02*
X976884D01*
X964184D02*
X967232D01*
X946404D02*
X954532D01*
X1014984Y1234694D02*
X1023112D01*
X1002792D02*
X1005840D01*
X992632D02*
X995172D01*
X983488D02*
X986028D01*
X974344D02*
X976884D01*
X963676D02*
X966724D01*
X946404D02*
X954532D01*
X1014984Y1235202D02*
X1023112D01*
X1002792D02*
X1006348D01*
X995680D02*
X996188D01*
X992632D02*
X995172D01*
X983488D02*
X986028D01*
X974344D02*
X976884D01*
X963168D02*
X966724D01*
X962152D02*
X962660D01*
X946404D02*
X954532D01*
X1014984Y1235710D02*
X1023112D01*
X1003300D02*
X1006348D01*
X992632D02*
X995172D01*
X983488D02*
X986028D01*
X974344D02*
X976884D01*
X963168D02*
X966724D01*
X962152D02*
X962660D01*
X946912D02*
X954532D01*
X1014476Y1236218D02*
X1022604D01*
X1003300D02*
X1006856D01*
X992632D02*
X995680D01*
X983488D02*
X986028D01*
X973836D02*
X976884D01*
X962660D02*
X966216D01*
X946912D02*
X955040D01*
X1014476Y1236726D02*
X1022604D01*
X1003808D02*
X1007364D01*
X993140D02*
X995680D01*
X983488D02*
X986028D01*
X973836D02*
X976884D01*
X962660D02*
X966216D01*
X946912D02*
X955040D01*
X1013968Y1237234D02*
X1022604D01*
X1003808D02*
X1007364D01*
X993140D02*
X995680D01*
X983488D02*
X986028D01*
X973836D02*
X976376D01*
X962152D02*
X965708D01*
X947420D02*
X955548D01*
X1013968Y1237742D02*
X1022096D01*
X1004316D02*
X1007872D01*
X993140D02*
X996188D01*
X983488D02*
X986028D01*
X973836D02*
X976376D01*
X961644D02*
X965708D01*
X947420D02*
X955548D01*
X1013460Y1238250D02*
X1022096D01*
X1004316D02*
X1007872D01*
X993140D02*
X996188D01*
X983488D02*
X986028D01*
X973328D02*
X976376D01*
X961644D02*
X965200D01*
X947420D02*
X956056D01*
X1013460Y1238758D02*
X1021588D01*
X1011936D02*
X1012444D01*
X1008888D02*
X1009396D01*
X1004316D02*
X1008380D01*
X993140D02*
X996188D01*
X983488D02*
X986028D01*
X973328D02*
X976376D01*
X961136D02*
X965200D01*
X947928D02*
X956056D01*
X1012952Y1239266D02*
X1021588D01*
X1011936D02*
X1012444D01*
X1008888D02*
X1009396D01*
X1004824D02*
X1008380D01*
X993648D02*
X996188D01*
X983488D02*
X986028D01*
X973328D02*
X976376D01*
X961136D02*
X964692D01*
X959612D02*
X960120D01*
X947928D02*
X956564D01*
X1012444Y1239774D02*
X1021588D01*
X1004824D02*
X1008888D01*
X993648D02*
X996696D01*
X983488D02*
X986028D01*
X972820D02*
X975868D01*
X960628D02*
X964692D01*
X948436D02*
X957072D01*
X1012444Y1240282D02*
X1021080D01*
X1010412D02*
X1011428D01*
X1005332D02*
X1009396D01*
X993648D02*
X996696D01*
X983488D02*
X986028D01*
X972820D02*
X975868D01*
X960628D02*
X964184D01*
X948436D02*
X957072D01*
X1011936Y1240790D02*
X1021080D01*
X1010920D02*
X1011428D01*
X1005332D02*
X1009396D01*
X993648D02*
X996696D01*
X983488D02*
X986028D01*
X972820D02*
X975868D01*
X960120D02*
X964184D01*
X948944D02*
X957580D01*
X1011428Y1241298D02*
X1020572D01*
X1005840D02*
X1009904D01*
X993648D02*
X997204D01*
X983488D02*
X986028D01*
X972820D02*
X975868D01*
X964184D02*
X964692D01*
X959612D02*
X963676D01*
X948944D02*
X958088D01*
X947928D02*
X948436D01*
X1010920Y1241806D02*
X1020572D01*
X1005840D02*
X1009904D01*
X994156D02*
X997204D01*
X983488D02*
X986028D01*
X972312D02*
X975868D01*
X959612D02*
X963676D01*
X949452D02*
X958596D01*
X1020572Y1242314D02*
X1021080D01*
X1006348D02*
X1020064D01*
X994156D02*
X997204D01*
X983488D02*
X986536D01*
X972312D02*
X975360D01*
X949452D02*
X963168D01*
X1006348Y1242822D02*
X1019556D01*
X994156D02*
X997204D01*
X983488D02*
X986536D01*
X972312D02*
X975360D01*
X949960D02*
X963168D01*
X1006856Y1243330D02*
X1019556D01*
X994156D02*
X997712D01*
X983488D02*
X986536D01*
X971804D02*
X975360D01*
X949960D02*
X962660D01*
X1006856Y1243838D02*
X1019048D01*
X994156D02*
X997712D01*
X983488D02*
X986536D01*
X971804D02*
X975360D01*
X963168D02*
X963676D01*
X950468D02*
X962660D01*
X1007364Y1244346D02*
X1019048D01*
X994664D02*
X997712D01*
X993648D02*
X994156D01*
X983488D02*
X986536D01*
X971804D02*
X975360D01*
X950468D02*
X962152D01*
X1019048Y1244854D02*
X1019556D01*
X1007364D02*
X1018540D01*
X994664D02*
X998220D01*
X983488D02*
X986536D01*
X971804D02*
X974852D01*
X962660D02*
X963168D01*
X950976D02*
X962152D01*
X1007872Y1245362D02*
X1018032D01*
X1006856D02*
X1007364D01*
X994664D02*
X998220D01*
X982980D02*
X986536D01*
X971296D02*
X974852D01*
X951484D02*
X962152D01*
X1007872Y1245870D02*
X1018032D01*
X1006856D02*
X1007364D01*
X994664D02*
X998220D01*
X982980D02*
X986536D01*
X971296D02*
X974852D01*
X951484D02*
X961644D01*
X1018032Y1246378D02*
X1018540D01*
X1007364D02*
X1017524D01*
X994664D02*
X998220D01*
X982980D02*
X986536D01*
X971296D02*
X974852D01*
X951992D02*
X962152D01*
X950468D02*
X950976D01*
X1006856Y1246886D02*
X1017016D01*
X1005332D02*
X1006348D01*
X995172D02*
X998728D01*
X982980D02*
X986536D01*
X974852D02*
X975360D01*
X970788D02*
X974344D01*
X963168D02*
X963676D01*
X952500D02*
X962660D01*
X1006348Y1247394D02*
X1016508D01*
X1005332D02*
X1005840D01*
X995172D02*
X998728D01*
X982980D02*
X986536D01*
X974852D02*
X975360D01*
X970788D02*
X974344D01*
X953008D02*
X963168D01*
X951992D02*
X952500D01*
X1005840Y1247902D02*
X1016508D01*
X995172D02*
X998728D01*
X982980D02*
X986536D01*
X970788D02*
X974344D01*
X953008D02*
X963676D01*
X1016508Y1248410D02*
X1017016D01*
X1005332D02*
X1016000D01*
X995172D02*
X999236D01*
X982980D02*
X986536D01*
X970788D02*
X974344D01*
X953516D02*
X964184D01*
X1016508Y1248918D02*
X1017016D01*
X1004824D02*
X1015492D01*
X995172D02*
X999236D01*
X982980D02*
X986536D01*
X970280D02*
X974344D01*
X954024D02*
X964692D01*
X953008D02*
X953516D01*
X1015492Y1249426D02*
X1016000D01*
X1004316D02*
X1014984D01*
X1002792D02*
X1003300D01*
X995680D02*
X999236D01*
X982980D02*
X986536D01*
X970280D02*
X973836D01*
X966724D02*
X967232D01*
X954532D02*
X965708D01*
X1014984Y1249934D02*
X1015492D01*
X1003300D02*
X1014476D01*
X995680D02*
X999236D01*
X982980D02*
X986536D01*
X970280D02*
X973836D01*
X955040D02*
X966216D01*
X1014984Y1250442D02*
X1015492D01*
X1002284D02*
X1013968D01*
X995680D02*
X999744D01*
X982980D02*
X986536D01*
X969772D02*
X973836D01*
X955548D02*
X967232D01*
X1001268Y1250950D02*
X1013968D01*
X995680D02*
X999744D01*
X982980D02*
X986536D01*
X969772D02*
X973836D01*
X956056D02*
X968248D01*
X1013968Y1251458D02*
X1014476D01*
X1000252D02*
X1012952D01*
X995680D02*
X999744D01*
X982980D02*
X986536D01*
X969772D02*
X973836D01*
X956564D02*
X969264D01*
X996188Y1251966D02*
X1012444D01*
X982980D02*
X986536D01*
X957072D02*
X973328D01*
X1012444Y1252474D02*
X1012952D01*
X996188D02*
X1011936D01*
X982980D02*
X986536D01*
X957580D02*
X973328D01*
X1012444Y1252982D02*
X1012952D01*
X996188D02*
X1011428D01*
X982980D02*
X986536D01*
X958088D02*
X973328D01*
X996188Y1253490D02*
X1010920D01*
X994156D02*
X994664D01*
X982980D02*
X986536D01*
X958596D02*
X973836D01*
X1010920Y1253998D02*
X1011936D01*
X995172D02*
X1010412D01*
X982980D02*
X986536D01*
X959104D02*
X974852D01*
X993648Y1254506D02*
X1009904D01*
X982980D02*
X986536D01*
X977900D02*
X978408D01*
X959612D02*
X975868D01*
X992124Y1255014D02*
X1009396D01*
X982980D02*
X986536D01*
X960120D02*
X977900D01*
X1009904Y1255522D02*
X1010412D01*
X961136D02*
X1008380D01*
X959612D02*
X960120D01*
X961644Y1256030D02*
X1007872D01*
X962152Y1256538D02*
X1006856D01*
X963168Y1257046D02*
X1006348D01*
X964184Y1257554D02*
X1005332D01*
X964692Y1258062D02*
X1004824D01*
X963676D02*
X964184D01*
X965708Y1258570D02*
X1003808D01*
X966724Y1259078D02*
X1002792D01*
X967740Y1259586D02*
X1001776D01*
X964692D02*
X965200D01*
X968756Y1260094D02*
X1000760D01*
Y1260602D02*
X1001268D01*
X970280D02*
X999236D01*
X967740D02*
X968248D01*
X971296Y1261110D02*
X998220D01*
X972820Y1261618D02*
X996696D01*
X974852Y1262126D02*
X994664D01*
X976884Y1262634D02*
X992632D01*
X993140Y1263142D02*
X993648D01*
X980440D02*
X989584D01*
D58*
X926846Y1260094D02*
Y1262380D01*
Y1250950D02*
Y1253236D01*
Y1237996D02*
Y1244092D01*
Y1228852D02*
Y1231138D01*
Y1219708D02*
Y1221994D01*
Y1213612D02*
Y1218184D01*
Y1206754D02*
Y1209802D01*
Y1198372D02*
Y1205230D01*
Y1187704D02*
Y1189990D01*
Y1182370D02*
Y1185418D01*
Y1173988D02*
Y1180846D01*
Y1165606D02*
Y1167892D01*
Y1157224D02*
Y1161034D01*
Y1150366D02*
Y1152652D01*
Y1128268D02*
Y1134364D01*
Y1113790D02*
Y1119886D01*
Y1093978D02*
Y1108456D01*
X926084Y1260094D02*
Y1262380D01*
Y1250950D02*
Y1253236D01*
Y1237234D02*
Y1244854D01*
Y1228852D02*
Y1231138D01*
Y1219708D02*
Y1221994D01*
Y1212850D02*
Y1218184D01*
Y1197610D02*
Y1209802D01*
Y1187704D02*
Y1189990D01*
Y1173226D02*
Y1185418D01*
Y1165606D02*
Y1167892D01*
Y1157224D02*
Y1161034D01*
Y1150366D02*
Y1152652D01*
Y1127506D02*
Y1135126D01*
Y1113028D02*
Y1121410D01*
Y1093978D02*
Y1108456D01*
X925322Y1260094D02*
Y1262380D01*
Y1250950D02*
Y1253236D01*
Y1236472D02*
Y1245616D01*
Y1228852D02*
Y1231138D01*
Y1219708D02*
Y1221994D01*
Y1212850D02*
Y1218184D01*
Y1196848D02*
Y1209802D01*
Y1187704D02*
Y1189990D01*
Y1172464D02*
Y1185418D01*
Y1165606D02*
Y1167892D01*
Y1156462D02*
Y1161034D01*
Y1150366D02*
Y1152652D01*
Y1126744D02*
Y1135888D01*
Y1112266D02*
Y1122172D01*
Y1093978D02*
Y1108456D01*
X924560Y1260094D02*
Y1262380D01*
Y1250950D02*
Y1253236D01*
Y1241806D02*
Y1246378D01*
Y1235710D02*
Y1240282D01*
Y1228852D02*
Y1231138D01*
Y1219708D02*
Y1221994D01*
Y1212850D02*
Y1216660D01*
Y1202944D02*
Y1209802D01*
Y1196848D02*
Y1201420D01*
Y1187704D02*
Y1189990D01*
Y1178560D02*
Y1185418D01*
Y1172464D02*
Y1177036D01*
Y1165606D02*
Y1167892D01*
Y1156462D02*
Y1161796D01*
Y1150366D02*
Y1152652D01*
Y1132078D02*
Y1136650D01*
Y1125982D02*
Y1130554D01*
Y1117600D02*
Y1122172D01*
Y1111504D02*
Y1116838D01*
Y1093978D02*
Y1096264D01*
X923798Y1260094D02*
Y1262380D01*
Y1250950D02*
Y1253236D01*
Y1243330D02*
Y1247140D01*
Y1234948D02*
Y1238758D01*
Y1228852D02*
Y1231138D01*
Y1219708D02*
Y1221994D01*
Y1212850D02*
Y1215898D01*
Y1205230D02*
Y1209802D01*
Y1196848D02*
Y1199896D01*
Y1187704D02*
Y1189990D01*
Y1180846D02*
Y1185418D01*
Y1172464D02*
Y1175512D01*
Y1165606D02*
Y1167892D01*
Y1156462D02*
Y1161796D01*
Y1150366D02*
Y1152652D01*
Y1133602D02*
Y1137412D01*
Y1125220D02*
Y1129030D01*
Y1119124D02*
Y1122934D01*
Y1110742D02*
Y1114552D01*
Y1093978D02*
Y1096264D01*
X923036Y1260094D02*
Y1262380D01*
Y1250950D02*
Y1253236D01*
Y1244092D02*
Y1247140D01*
Y1234948D02*
Y1237996D01*
Y1228852D02*
Y1231138D01*
Y1219708D02*
Y1221994D01*
Y1212850D02*
Y1215136D01*
Y1205992D02*
Y1209040D01*
Y1196848D02*
Y1199134D01*
Y1187704D02*
Y1189990D01*
Y1181608D02*
Y1184656D01*
Y1172464D02*
Y1174750D01*
Y1165606D02*
Y1167892D01*
Y1156462D02*
Y1161796D01*
Y1150366D02*
Y1152652D01*
Y1134364D02*
Y1137412D01*
Y1125220D02*
Y1128268D01*
Y1119886D02*
Y1122934D01*
Y1110742D02*
Y1113790D01*
Y1093978D02*
Y1096264D01*
X922274Y1260094D02*
Y1262380D01*
Y1250950D02*
Y1253236D01*
Y1244092D02*
Y1247140D01*
Y1234948D02*
Y1237996D01*
Y1228852D02*
Y1231138D01*
Y1219708D02*
Y1221994D01*
Y1212850D02*
Y1215136D01*
Y1205992D02*
Y1209040D01*
Y1196848D02*
Y1199896D01*
Y1187704D02*
Y1189990D01*
Y1181608D02*
Y1184656D01*
Y1172464D02*
Y1175512D01*
Y1165606D02*
Y1167892D01*
Y1159510D02*
Y1162558D01*
Y1155700D02*
Y1158748D01*
Y1150366D02*
Y1152652D01*
Y1134364D02*
Y1137412D01*
Y1125220D02*
Y1128268D01*
Y1119886D02*
Y1122934D01*
Y1110742D02*
Y1113790D01*
Y1093978D02*
Y1096264D01*
X921512Y1260094D02*
Y1262380D01*
Y1250950D02*
Y1253236D01*
Y1244092D02*
Y1247140D01*
Y1234948D02*
Y1237996D01*
Y1228852D02*
Y1231138D01*
Y1219708D02*
Y1221994D01*
Y1212850D02*
Y1215136D01*
Y1205992D02*
Y1209040D01*
Y1196848D02*
Y1202182D01*
Y1187704D02*
Y1189990D01*
Y1181608D02*
Y1184656D01*
Y1172464D02*
Y1177798D01*
Y1165606D02*
Y1167892D01*
Y1159510D02*
Y1162558D01*
Y1155700D02*
Y1158748D01*
Y1150366D02*
Y1152652D01*
Y1134364D02*
Y1137412D01*
Y1125220D02*
Y1128268D01*
Y1110742D02*
Y1113790D01*
Y1093978D02*
Y1096264D01*
X920750Y1260094D02*
Y1262380D01*
Y1250950D02*
Y1253236D01*
Y1244092D02*
Y1247140D01*
Y1234948D02*
Y1237234D01*
Y1228852D02*
Y1231138D01*
Y1219708D02*
Y1221994D01*
Y1212850D02*
Y1215136D01*
Y1197610D02*
Y1209040D01*
Y1187704D02*
Y1189990D01*
Y1173226D02*
Y1184656D01*
Y1165606D02*
Y1167892D01*
Y1159510D02*
Y1162558D01*
Y1155700D02*
Y1158748D01*
Y1150366D02*
Y1152652D01*
Y1139698D02*
Y1147318D01*
Y1134364D02*
Y1137412D01*
Y1125220D02*
Y1127506D01*
Y1110742D02*
Y1113028D01*
Y1093978D02*
Y1096264D01*
X919988Y1260094D02*
Y1262380D01*
Y1250950D02*
Y1253236D01*
Y1244854D02*
Y1247140D01*
Y1234948D02*
Y1237234D01*
Y1228852D02*
Y1231138D01*
Y1219708D02*
Y1221994D01*
Y1212850D02*
Y1215136D01*
Y1198372D02*
Y1209040D01*
Y1187704D02*
Y1189990D01*
Y1173988D02*
Y1184656D01*
Y1165606D02*
Y1167892D01*
Y1160272D02*
Y1162558D01*
Y1154938D02*
Y1157986D01*
Y1150366D02*
Y1152652D01*
Y1139698D02*
Y1147318D01*
Y1135126D02*
Y1137412D01*
Y1125220D02*
Y1127506D01*
Y1110742D02*
Y1113028D01*
Y1093978D02*
Y1096264D01*
X919226Y1260094D02*
Y1262380D01*
Y1250950D02*
Y1253236D01*
Y1244854D02*
Y1247140D01*
Y1234948D02*
Y1237234D01*
Y1228852D02*
Y1231138D01*
Y1219708D02*
Y1221994D01*
Y1212850D02*
Y1215136D01*
Y1199134D02*
Y1209040D01*
Y1187704D02*
Y1189990D01*
Y1174750D02*
Y1184656D01*
Y1165606D02*
Y1167892D01*
Y1160272D02*
Y1163320D01*
Y1154938D02*
Y1157986D01*
Y1150366D02*
Y1152652D01*
Y1139698D02*
Y1147318D01*
Y1135126D02*
Y1137412D01*
Y1125220D02*
Y1127506D01*
Y1110742D02*
Y1113028D01*
Y1093978D02*
Y1096264D01*
X918464Y1260094D02*
Y1262380D01*
Y1250950D02*
Y1253998D01*
Y1244092D02*
Y1247140D01*
Y1234948D02*
Y1237996D01*
Y1228852D02*
Y1231138D01*
Y1219708D02*
Y1222756D01*
Y1212850D02*
Y1215136D01*
Y1202944D02*
Y1209040D01*
Y1187704D02*
Y1190752D01*
Y1178560D02*
Y1184656D01*
Y1165606D02*
Y1167892D01*
Y1160272D02*
Y1163320D01*
Y1154938D02*
Y1157986D01*
Y1150366D02*
Y1152652D01*
Y1134364D02*
Y1137412D01*
Y1125220D02*
Y1128268D01*
Y1110742D02*
Y1113790D01*
Y1093978D02*
Y1096264D01*
X917702Y1259332D02*
Y1262380D01*
Y1250950D02*
Y1253998D01*
Y1244092D02*
Y1247140D01*
Y1234948D02*
Y1237996D01*
Y1228090D02*
Y1231138D01*
Y1219708D02*
Y1222756D01*
Y1212850D02*
Y1215136D01*
Y1206754D02*
Y1209040D01*
Y1187704D02*
Y1190752D01*
Y1182370D02*
Y1184656D01*
Y1165606D02*
Y1167892D01*
Y1161034D02*
Y1163320D01*
Y1154938D02*
Y1157986D01*
Y1150366D02*
Y1152652D01*
Y1134364D02*
Y1137412D01*
Y1125220D02*
Y1128268D01*
Y1110742D02*
Y1113790D01*
Y1093978D02*
Y1106932D01*
X916940Y1259332D02*
Y1262380D01*
Y1250950D02*
Y1253998D01*
Y1244092D02*
Y1247140D01*
Y1234948D02*
Y1237996D01*
Y1228090D02*
Y1231138D01*
Y1219708D02*
Y1222756D01*
Y1212850D02*
Y1215136D01*
Y1205992D02*
Y1209040D01*
Y1196848D02*
Y1199896D01*
Y1187704D02*
Y1190752D01*
Y1181608D02*
Y1184656D01*
Y1172464D02*
Y1175512D01*
Y1165606D02*
Y1167892D01*
Y1161034D02*
Y1164082D01*
Y1154176D02*
Y1157224D01*
Y1150366D02*
Y1152652D01*
Y1134364D02*
Y1137412D01*
Y1125220D02*
Y1128268D01*
Y1119886D02*
Y1122934D01*
Y1110742D02*
Y1113790D01*
Y1093978D02*
Y1106932D01*
X916178Y1259332D02*
Y1262380D01*
Y1250950D02*
Y1254760D01*
Y1243330D02*
Y1247140D01*
Y1234948D02*
Y1238758D01*
Y1228090D02*
Y1231138D01*
Y1219708D02*
Y1223518D01*
Y1212850D02*
Y1215136D01*
Y1205992D02*
Y1209040D01*
Y1196848D02*
Y1199896D01*
Y1187704D02*
Y1191514D01*
Y1181608D02*
Y1184656D01*
Y1172464D02*
Y1175512D01*
Y1165606D02*
Y1167892D01*
Y1161034D02*
Y1164082D01*
Y1154176D02*
Y1157224D01*
Y1150366D02*
Y1152652D01*
Y1133602D02*
Y1137412D01*
Y1125220D02*
Y1129030D01*
Y1119886D02*
Y1122934D01*
Y1111504D02*
Y1114552D01*
Y1093978D02*
Y1106932D01*
X915416Y1257808D02*
Y1262380D01*
Y1250950D02*
Y1256284D01*
Y1241806D02*
Y1246378D01*
Y1235710D02*
Y1240282D01*
Y1226566D02*
Y1231138D01*
Y1219708D02*
Y1225804D01*
Y1212850D02*
Y1215136D01*
Y1203706D02*
Y1209040D01*
Y1196848D02*
Y1202182D01*
Y1193038D02*
Y1194562D01*
Y1187704D02*
Y1192276D01*
Y1179322D02*
Y1184656D01*
Y1172464D02*
Y1177798D01*
Y1165606D02*
Y1167892D01*
Y1161034D02*
Y1164082D01*
Y1154176D02*
Y1157224D01*
Y1150366D02*
Y1152652D01*
Y1132078D02*
Y1136650D01*
Y1125982D02*
Y1130554D01*
Y1117600D02*
Y1122934D01*
Y1111504D02*
Y1116838D01*
Y1093978D02*
Y1096264D01*
X914654Y1250950D02*
Y1262380D01*
Y1236472D02*
Y1245616D01*
Y1219708D02*
Y1231138D01*
Y1210564D02*
Y1218184D01*
Y1197610D02*
Y1209040D01*
Y1187704D02*
Y1195324D01*
Y1173226D02*
Y1184656D01*
Y1165606D02*
Y1167892D01*
Y1161796D02*
Y1164844D01*
Y1153414D02*
Y1156462D01*
Y1150366D02*
Y1152652D01*
Y1126744D02*
Y1135888D01*
Y1112266D02*
Y1122172D01*
Y1093978D02*
Y1096264D01*
X913892Y1250950D02*
Y1261618D01*
Y1237234D02*
Y1244854D01*
Y1222756D02*
Y1230376D01*
Y1219708D02*
Y1221994D01*
Y1210564D02*
Y1218184D01*
Y1198372D02*
Y1208278D01*
Y1187704D02*
Y1195324D01*
Y1173988D02*
Y1183894D01*
Y1165606D02*
Y1167892D01*
Y1161796D02*
Y1164844D01*
Y1153414D02*
Y1156462D01*
Y1150366D02*
Y1152652D01*
Y1127506D02*
Y1135126D01*
Y1113028D02*
Y1121410D01*
Y1093978D02*
Y1096264D01*
X913130Y1254760D02*
Y1260856D01*
Y1250950D02*
Y1253236D01*
Y1237996D02*
Y1244092D01*
Y1223518D02*
Y1228852D01*
Y1219708D02*
Y1221994D01*
Y1210564D02*
Y1218184D01*
Y1199896D02*
Y1206754D01*
Y1190752D02*
Y1195324D01*
Y1187704D02*
Y1189990D01*
Y1175512D02*
Y1182370D01*
Y1165606D02*
Y1167892D01*
Y1161796D02*
Y1164844D01*
Y1153414D02*
Y1156462D01*
Y1150366D02*
Y1152652D01*
Y1128268D02*
Y1134364D01*
Y1114552D02*
Y1119886D01*
Y1093978D02*
Y1096264D01*
X912368Y1219708D02*
Y1221994D01*
Y1212850D02*
Y1215136D01*
Y1165606D02*
Y1167892D01*
Y1162558D02*
Y1164844D01*
Y1153414D02*
Y1156462D01*
Y1150366D02*
Y1152652D01*
Y1093978D02*
Y1096264D01*
X911606Y1219708D02*
Y1221994D01*
Y1212850D02*
Y1215136D01*
Y1162558D02*
Y1167892D01*
Y1150366D02*
Y1155700D01*
Y1093978D02*
Y1096264D01*
X910844Y1219708D02*
Y1221994D01*
Y1212850D02*
Y1215136D01*
Y1162558D02*
Y1167892D01*
Y1150366D02*
Y1155700D01*
Y1093978D02*
Y1096264D01*
X910082Y1219708D02*
Y1221994D01*
Y1212850D02*
Y1215136D01*
Y1162558D02*
Y1167892D01*
Y1150366D02*
Y1155700D01*
Y1093978D02*
Y1096264D01*
X909320Y1219708D02*
Y1221994D01*
Y1212850D02*
Y1215136D01*
Y1163320D02*
Y1167892D01*
Y1150366D02*
Y1154938D01*
Y1093978D02*
Y1107694D01*
X908558Y1219708D02*
Y1221994D01*
Y1213612D02*
Y1215136D01*
Y1163320D02*
Y1167892D01*
Y1150366D02*
Y1154938D01*
Y1093978D02*
Y1107694D01*
X907796Y1219708D02*
Y1221994D01*
Y1214374D02*
Y1215136D01*
Y1163320D02*
Y1167892D01*
Y1150366D02*
Y1154938D01*
Y1093978D02*
Y1107694D01*
X901700Y1203706D02*
Y1205992D01*
Y1197610D02*
Y1199896D01*
Y1185418D02*
Y1191514D01*
Y1176274D02*
Y1178560D01*
Y1167130D02*
Y1169416D01*
Y1152652D02*
Y1160272D01*
X900938Y1203706D02*
Y1205992D01*
Y1197610D02*
Y1199896D01*
Y1184656D02*
Y1193038D01*
Y1176274D02*
Y1178560D01*
Y1167130D02*
Y1169416D01*
Y1151128D02*
Y1161796D01*
X900176Y1203706D02*
Y1205992D01*
Y1197610D02*
Y1199896D01*
Y1183894D02*
Y1193800D01*
Y1176274D02*
Y1178560D01*
Y1167130D02*
Y1169416D01*
Y1150366D02*
Y1162558D01*
X899414Y1203706D02*
Y1205992D01*
Y1197610D02*
Y1199896D01*
Y1189228D02*
Y1193800D01*
Y1183132D02*
Y1188466D01*
Y1176274D02*
Y1178560D01*
Y1167130D02*
Y1169416D01*
Y1157224D02*
Y1163320D01*
Y1149604D02*
Y1156462D01*
X898652Y1203706D02*
Y1205992D01*
Y1197610D02*
Y1199896D01*
Y1190752D02*
Y1194562D01*
Y1182370D02*
Y1186180D01*
Y1176274D02*
Y1178560D01*
Y1167130D02*
Y1169416D01*
Y1160272D02*
Y1164082D01*
Y1149604D02*
Y1153414D01*
X897890Y1203706D02*
Y1205992D01*
Y1197610D02*
Y1199896D01*
Y1191514D02*
Y1194562D01*
Y1182370D02*
Y1185418D01*
Y1176274D02*
Y1178560D01*
Y1167130D02*
Y1169416D01*
Y1161034D02*
Y1164082D01*
Y1148842D02*
Y1152652D01*
X897128Y1203706D02*
Y1205992D01*
Y1197610D02*
Y1199896D01*
Y1182370D02*
Y1185418D01*
Y1176274D02*
Y1178560D01*
Y1167130D02*
Y1169416D01*
Y1161034D02*
Y1164082D01*
Y1148842D02*
Y1151890D01*
X896366Y1203706D02*
Y1205992D01*
Y1197610D02*
Y1199896D01*
Y1182370D02*
Y1185418D01*
Y1176274D02*
Y1178560D01*
Y1167130D02*
Y1169416D01*
Y1161796D02*
Y1164082D01*
Y1148842D02*
Y1151890D01*
X895604Y1203706D02*
Y1205992D01*
Y1197610D02*
Y1199896D01*
Y1182370D02*
Y1184656D01*
Y1176274D02*
Y1178560D01*
Y1167130D02*
Y1169416D01*
Y1161034D02*
Y1164082D01*
Y1148842D02*
Y1151890D01*
X894842Y1203706D02*
Y1205992D01*
Y1197610D02*
Y1199896D01*
Y1182370D02*
Y1194562D01*
Y1176274D02*
Y1178560D01*
Y1167130D02*
Y1169416D01*
Y1160272D02*
Y1164082D01*
X894080Y1203706D02*
Y1205992D01*
Y1197610D02*
Y1199896D01*
Y1182370D02*
Y1194562D01*
Y1176274D02*
Y1178560D01*
Y1167130D02*
Y1169416D01*
Y1158748D02*
Y1164082D01*
X893318Y1203706D02*
Y1205992D01*
Y1197610D02*
Y1199896D01*
Y1182370D02*
Y1194562D01*
Y1176274D02*
Y1178560D01*
Y1167130D02*
Y1170178D01*
Y1156462D02*
Y1163320D01*
X892556Y1203706D02*
Y1205992D01*
Y1197610D02*
Y1199896D01*
Y1191514D02*
Y1194562D01*
Y1182370D02*
Y1185418D01*
Y1175512D02*
Y1178560D01*
Y1167130D02*
Y1170178D01*
Y1153414D02*
Y1162558D01*
X891794Y1203706D02*
Y1205992D01*
Y1197610D02*
Y1199896D01*
Y1191514D02*
Y1194562D01*
Y1182370D02*
Y1185418D01*
Y1175512D02*
Y1178560D01*
Y1167130D02*
Y1170178D01*
Y1151890D02*
Y1161796D01*
X891032Y1203706D02*
Y1205992D01*
Y1197610D02*
Y1199896D01*
Y1190752D02*
Y1194562D01*
Y1183132D02*
Y1186180D01*
Y1175512D02*
Y1178560D01*
Y1167130D02*
Y1170940D01*
Y1150366D02*
Y1160272D01*
X890270Y1203706D02*
Y1205992D01*
Y1197610D02*
Y1199896D01*
Y1189228D02*
Y1193800D01*
Y1183132D02*
Y1187704D01*
Y1173988D02*
Y1178560D01*
Y1167130D02*
Y1173226D01*
Y1150366D02*
Y1157224D01*
X889508Y1203706D02*
Y1205992D01*
Y1197610D02*
Y1199896D01*
Y1183894D02*
Y1193038D01*
Y1167130D02*
Y1178560D01*
Y1149604D02*
Y1154176D01*
X888746Y1203706D02*
Y1205992D01*
Y1197610D02*
Y1199896D01*
Y1184656D02*
Y1192276D01*
Y1170178D02*
Y1177798D01*
Y1167130D02*
Y1169416D01*
Y1149604D02*
Y1152652D01*
X887984Y1203706D02*
Y1205992D01*
Y1197610D02*
Y1199896D01*
Y1185418D02*
Y1191514D01*
Y1170940D02*
Y1176274D01*
Y1167130D02*
Y1169416D01*
Y1160272D02*
Y1163320D01*
Y1149604D02*
Y1152652D01*
X887222Y1203706D02*
Y1205992D01*
Y1197610D02*
Y1199896D01*
Y1167130D02*
Y1169416D01*
Y1160272D02*
Y1163320D01*
Y1149604D02*
Y1151890D01*
X886460Y1203706D02*
Y1205992D01*
Y1197610D02*
Y1199896D01*
Y1167130D02*
Y1169416D01*
Y1160272D02*
Y1163320D01*
Y1149604D02*
Y1152652D01*
X885698Y1203706D02*
Y1205992D01*
Y1197610D02*
Y1199896D01*
Y1167130D02*
Y1169416D01*
Y1159510D02*
Y1163320D01*
Y1149604D02*
Y1153414D01*
X884936Y1203706D02*
Y1205992D01*
Y1197610D02*
Y1199896D01*
Y1167130D02*
Y1169416D01*
Y1157224D02*
Y1162558D01*
Y1149604D02*
Y1155700D01*
X884174Y1203706D02*
Y1205992D01*
Y1197610D02*
Y1199896D01*
Y1167130D02*
Y1169416D01*
Y1150366D02*
Y1161796D01*
X883412Y1203706D02*
Y1205992D01*
Y1197610D02*
Y1199896D01*
Y1167130D02*
Y1169416D01*
Y1151128D02*
Y1161034D01*
X882650Y1203706D02*
Y1205992D01*
Y1197610D02*
Y1199896D01*
Y1167130D02*
Y1169416D01*
Y1152652D02*
Y1160272D01*
X1299718Y1197864D02*
X1308862D01*
X1286764D02*
X1289812D01*
X1267714D02*
X1282954D01*
X1259332D02*
X1262380D01*
X1241044D02*
X1250188D01*
X1229614D02*
X1233424D01*
X1211326D02*
X1215136D01*
X1196086D02*
X1199134D01*
X1298194Y1198626D02*
X1310386D01*
X1286764D02*
X1289812D01*
X1267714D02*
X1282954D01*
X1259332D02*
X1262380D01*
X1239520D02*
X1251712D01*
X1229614D02*
X1233424D01*
X1211326D02*
X1215136D01*
X1196086D02*
X1199134D01*
X1296670Y1199388D02*
X1311148D01*
X1286764D02*
X1289812D01*
X1267714D02*
X1282954D01*
X1259332D02*
X1262380D01*
X1238758D02*
X1252474D01*
X1229614D02*
X1233424D01*
X1211326D02*
X1215136D01*
X1196086D02*
X1199134D01*
X1295908Y1200150D02*
X1311910D01*
X1286764D02*
X1289812D01*
X1267714D02*
X1282954D01*
X1259332D02*
X1262380D01*
X1237996D02*
X1253236D01*
X1228852D02*
X1232662D01*
X1212088D02*
X1215898D01*
X1196086D02*
X1199134D01*
X1305052Y1200912D02*
X1312672D01*
X1295908D02*
X1304290D01*
X1286764D02*
X1289812D01*
X1267714D02*
X1270762D01*
X1259332D02*
X1262380D01*
X1246378D02*
X1253998D01*
X1237234D02*
X1244854D01*
X1228852D02*
X1232662D01*
X1212088D02*
X1215898D01*
X1196086D02*
X1199134D01*
X1308100Y1201674D02*
X1313434D01*
X1295146D02*
X1300480D01*
X1286764D02*
X1289812D01*
X1267714D02*
X1270762D01*
X1259332D02*
X1262380D01*
X1248664D02*
X1254760D01*
X1236472D02*
X1241806D01*
X1228090D02*
X1231900D01*
X1212850D02*
X1216660D01*
X1196086D02*
X1199134D01*
X1308862Y1202436D02*
X1313434D01*
X1295146D02*
X1299718D01*
X1286764D02*
X1289812D01*
X1267714D02*
X1270762D01*
X1259332D02*
X1262380D01*
X1250188D02*
X1254760D01*
X1236472D02*
X1241044D01*
X1228090D02*
X1231900D01*
X1212850D02*
X1216660D01*
X1196086D02*
X1199134D01*
X1309624Y1203198D02*
X1313434D01*
X1294384D02*
X1298956D01*
X1286764D02*
X1289812D01*
X1267714D02*
X1270762D01*
X1259332D02*
X1262380D01*
X1250950D02*
X1255522D01*
X1235710D02*
X1240282D01*
X1228090D02*
X1231900D01*
X1212850D02*
X1216660D01*
X1196086D02*
X1199134D01*
X1309624Y1203960D02*
X1313434D01*
X1294384D02*
X1298194D01*
X1286764D02*
X1289812D01*
X1267714D02*
X1270762D01*
X1259332D02*
X1262380D01*
X1250950D02*
X1255522D01*
X1235710D02*
X1239520D01*
X1227328D02*
X1231138D01*
X1213612D02*
X1217422D01*
X1196086D02*
X1199134D01*
X1309624Y1204722D02*
X1313434D01*
X1294384D02*
X1298194D01*
X1286764D02*
X1289812D01*
X1267714D02*
X1270762D01*
X1259332D02*
X1262380D01*
X1251712D02*
X1255522D01*
X1234948D02*
X1239520D01*
X1227328D02*
X1231138D01*
X1213612D02*
X1217422D01*
X1196086D02*
X1199134D01*
X1309624Y1205484D02*
X1313434D01*
X1294384D02*
X1298194D01*
X1286764D02*
X1289812D01*
X1267714D02*
X1270762D01*
X1259332D02*
X1262380D01*
X1251712D02*
X1255522D01*
X1234948D02*
X1238758D01*
X1214374D02*
X1230376D01*
X1196086D02*
X1199134D01*
X1308862Y1206246D02*
X1313434D01*
X1286764D02*
X1289812D01*
X1267714D02*
X1270762D01*
X1259332D02*
X1262380D01*
X1252474D02*
X1253236D01*
X1234948D02*
X1238758D01*
X1214374D02*
X1230376D01*
X1196086D02*
X1199134D01*
X1307338Y1207008D02*
X1313434D01*
X1286764D02*
X1289812D01*
X1267714D02*
X1270762D01*
X1259332D02*
X1262380D01*
X1234948D02*
X1238758D01*
X1215136D02*
X1229614D01*
X1196086D02*
X1199134D01*
X1304290Y1207770D02*
X1312672D01*
X1286764D02*
X1289812D01*
X1267714D02*
X1270762D01*
X1259332D02*
X1262380D01*
X1234948D02*
X1238758D01*
X1215136D02*
X1229614D01*
X1196086D02*
X1199134D01*
X1301242Y1208532D02*
X1311910D01*
X1286764D02*
X1289812D01*
X1267714D02*
X1270762D01*
X1259332D02*
X1262380D01*
X1234948D02*
X1237996D01*
X1225804D02*
X1229614D01*
X1215136D02*
X1218946D01*
X1196086D02*
X1209802D01*
X1298956Y1209294D02*
X1311148D01*
X1286764D02*
X1289812D01*
X1267714D02*
X1270762D01*
X1259332D02*
X1262380D01*
X1234948D02*
X1237996D01*
X1225804D02*
X1228852D01*
X1215898D02*
X1218946D01*
X1196086D02*
X1209802D01*
X1297432Y1210056D02*
X1309624D01*
X1286764D02*
X1289812D01*
X1267714D02*
X1270762D01*
X1259332D02*
X1262380D01*
X1234948D02*
X1238758D01*
X1225042D02*
X1228852D01*
X1215898D02*
X1219708D01*
X1196086D02*
X1209802D01*
X1296670Y1210818D02*
X1307338D01*
X1286764D02*
X1289812D01*
X1267714D02*
X1270762D01*
X1259332D02*
X1262380D01*
X1234948D02*
X1238758D01*
X1225042D02*
X1228090D01*
X1216660D02*
X1219708D01*
X1196086D02*
X1209802D01*
X1295908Y1211580D02*
X1304290D01*
X1286764D02*
X1289812D01*
X1267714D02*
X1270762D01*
X1259332D02*
X1262380D01*
X1234948D02*
X1238758D01*
X1224280D02*
X1228090D01*
X1216660D02*
X1220470D01*
X1196086D02*
X1199134D01*
X1295146Y1212342D02*
X1301242D01*
X1286764D02*
X1289812D01*
X1267714D02*
X1270762D01*
X1259332D02*
X1262380D01*
X1234948D02*
X1238758D01*
X1224280D02*
X1227328D01*
X1217422D02*
X1220470D01*
X1196086D02*
X1199134D01*
X1295146Y1213104D02*
X1299718D01*
X1286764D02*
X1289812D01*
X1267714D02*
X1270762D01*
X1259332D02*
X1262380D01*
X1234948D02*
X1238758D01*
X1224280D02*
X1227328D01*
X1217422D02*
X1220470D01*
X1196086D02*
X1199134D01*
X1295146Y1213866D02*
X1298956D01*
X1286764D02*
X1289812D01*
X1267714D02*
X1270762D01*
X1259332D02*
X1262380D01*
X1250950D02*
X1254760D01*
X1234948D02*
X1239520D01*
X1223518D02*
X1227328D01*
X1217422D02*
X1221232D01*
X1196086D02*
X1199134D01*
X1308862Y1214628D02*
X1312672D01*
X1295146D02*
X1298194D01*
X1286764D02*
X1289812D01*
X1267714D02*
X1270762D01*
X1259332D02*
X1262380D01*
X1250950D02*
X1254760D01*
X1235710D02*
X1239520D01*
X1223518D02*
X1226566D01*
X1218184D02*
X1221232D01*
X1196086D02*
X1199134D01*
X1308862Y1215390D02*
X1312672D01*
X1295146D02*
X1298956D01*
X1286764D02*
X1289812D01*
X1267714D02*
X1270762D01*
X1259332D02*
X1262380D01*
X1250188D02*
X1254760D01*
X1235710D02*
X1240282D01*
X1222756D02*
X1226566D01*
X1218184D02*
X1221994D01*
X1196086D02*
X1199134D01*
X1308100Y1216152D02*
X1312672D01*
X1295146D02*
X1298956D01*
X1286764D02*
X1289812D01*
X1267714D02*
X1270762D01*
X1259332D02*
X1262380D01*
X1250188D02*
X1254760D01*
X1236472D02*
X1241044D01*
X1222756D02*
X1225804D01*
X1218946D02*
X1221994D01*
X1196086D02*
X1199134D01*
X1307338Y1216914D02*
X1312672D01*
X1295146D02*
X1299718D01*
X1286764D02*
X1289812D01*
X1267714D02*
X1270762D01*
X1259332D02*
X1262380D01*
X1248664D02*
X1253998D01*
X1236472D02*
X1241806D01*
X1222756D02*
X1225804D01*
X1218946D02*
X1221994D01*
X1196086D02*
X1199134D01*
X1305052Y1217676D02*
X1311910D01*
X1295908D02*
X1302766D01*
X1286764D02*
X1289812D01*
X1267714D02*
X1270762D01*
X1259332D02*
X1262380D01*
X1246378D02*
X1253236D01*
X1237234D02*
X1244854D01*
X1219708D02*
X1225042D01*
X1196086D02*
X1199134D01*
X1295908Y1218438D02*
X1311148D01*
X1286764D02*
X1289812D01*
X1267714D02*
X1270762D01*
X1259332D02*
X1262380D01*
X1237996D02*
X1253236D01*
X1219708D02*
X1225042D01*
X1196086D02*
X1212088D01*
X1296670Y1219200D02*
X1310386D01*
X1286764D02*
X1289812D01*
X1267714D02*
X1270762D01*
X1259332D02*
X1262380D01*
X1238758D02*
X1252474D01*
X1219708D02*
X1225042D01*
X1196086D02*
X1212088D01*
X1297432Y1219962D02*
X1309624D01*
X1286764D02*
X1289812D01*
X1267714D02*
X1270762D01*
X1259332D02*
X1262380D01*
X1240282D02*
X1250950D01*
X1220470D02*
X1224280D01*
X1196086D02*
X1212088D01*
X1299718Y1220724D02*
X1308100D01*
X1286764D02*
X1289812D01*
X1267714D02*
X1270762D01*
X1259332D02*
X1262380D01*
X1241806D02*
X1249426D01*
X1220470D02*
X1224280D01*
X1196086D02*
X1212088D01*
D59*
X1250696Y1225804D02*
X1265428D01*
X1248156Y1226058D02*
X1267968D01*
X1245870Y1226312D02*
X1270254D01*
X1263396Y1226566D02*
X1272286D01*
X1243838D02*
X1252728D01*
X1266444Y1226820D02*
X1273810D01*
X1242314D02*
X1249680D01*
X1268730Y1227074D02*
X1275080D01*
X1241044D02*
X1247394D01*
X1270508Y1227328D02*
X1276604D01*
X1239774D02*
X1245616D01*
X1272032Y1227582D02*
X1277620D01*
X1238504D02*
X1244092D01*
X1273556Y1227836D02*
X1278890D01*
X1237234D02*
X1242822D01*
X1274826Y1228090D02*
X1279906D01*
X1236218D02*
X1241552D01*
X1275842Y1228344D02*
X1280922D01*
X1235202D02*
X1240282D01*
X1276858Y1228598D02*
X1281938D01*
X1234440D02*
X1239266D01*
X1277874Y1228852D02*
X1282700D01*
X1233424D02*
X1238250D01*
X1278890Y1229106D02*
X1283716D01*
X1232662D02*
X1237234D01*
X1279652Y1229360D02*
X1284478D01*
X1231646D02*
X1236472D01*
X1280668Y1229614D02*
X1285240D01*
X1230884D02*
X1235456D01*
X1281430Y1229868D02*
X1286002D01*
X1230122D02*
X1234694D01*
X1282192Y1230122D02*
X1286764D01*
X1229360D02*
X1233932D01*
X1282954Y1230376D02*
X1287526D01*
X1228598D02*
X1233170D01*
X1283716Y1230630D02*
X1288034D01*
X1228090D02*
X1232408D01*
X1284478Y1230884D02*
X1288796D01*
X1246378D02*
X1246886D01*
X1227328D02*
X1231900D01*
X1284986Y1231138D02*
X1289558D01*
X1246378D02*
X1247140D01*
X1226820D02*
X1231138D01*
X1285748Y1231392D02*
X1290066D01*
X1246378D02*
X1247140D01*
X1226058D02*
X1230376D01*
X1286256Y1231646D02*
X1290574D01*
X1246378D02*
X1247394D01*
X1225550D02*
X1229868D01*
X1286764Y1231900D02*
X1291336D01*
X1246378D02*
X1247394D01*
X1225042D02*
X1229360D01*
X1287526Y1232154D02*
X1291844D01*
X1246378D02*
X1247648D01*
X1224280D02*
X1228598D01*
X1288034Y1232408D02*
X1292352D01*
X1267968D02*
X1268730D01*
X1246378D02*
X1247648D01*
X1223772D02*
X1228090D01*
X1288542Y1232662D02*
X1292860D01*
X1267968D02*
X1268984D01*
X1246378D02*
X1247648D01*
X1223264D02*
X1227582D01*
X1289050Y1232916D02*
X1293368D01*
X1267968D02*
X1269238D01*
X1246378D02*
X1247902D01*
X1222756D02*
X1227074D01*
X1289558Y1233170D02*
X1293876D01*
X1268222D02*
X1269492D01*
X1246378D02*
X1247902D01*
X1222248D02*
X1226566D01*
X1290066Y1233424D02*
X1294384D01*
X1268222D02*
X1269746D01*
X1246378D02*
X1247902D01*
X1221740D02*
X1226058D01*
X1290574Y1233678D02*
X1294892D01*
X1268476D02*
X1270000D01*
X1246632D02*
X1248156D01*
X1221232D02*
X1225550D01*
X1291082Y1233932D02*
X1295400D01*
X1268476D02*
X1270254D01*
X1246632D02*
X1248156D01*
X1220724D02*
X1225042D01*
X1291590Y1234186D02*
X1295908D01*
X1268730D02*
X1270508D01*
X1254252D02*
X1256284D01*
X1251966D02*
X1252474D01*
X1246632D02*
X1248156D01*
X1220216D02*
X1224534D01*
X1292098Y1234440D02*
X1296416D01*
X1268730D02*
X1270762D01*
X1253490D02*
X1256284D01*
X1251458D02*
X1252982D01*
X1246632D02*
X1248410D01*
X1219708D02*
X1224280D01*
X1292352Y1234694D02*
X1296670D01*
X1268984D02*
X1271016D01*
X1259586D02*
X1260856D01*
X1253490D02*
X1256030D01*
X1250950D02*
X1253236D01*
X1246632D02*
X1248410D01*
X1219454D02*
X1223772D01*
X1292860Y1234948D02*
X1297178D01*
X1269238D02*
X1271016D01*
X1258824D02*
X1261872D01*
X1256284D02*
X1258062D01*
X1250950D02*
X1255776D01*
X1246632D02*
X1248664D01*
X1218946D02*
X1223264D01*
X1293368Y1235202D02*
X1297686D01*
X1269238D02*
X1271270D01*
X1258824D02*
X1262380D01*
X1256030D02*
X1258570D01*
X1250696D02*
X1255522D01*
X1246632D02*
X1249680D01*
X1218438D02*
X1222756D01*
X1293622Y1235456D02*
X1297940D01*
X1269492D02*
X1271270D01*
X1255776D02*
X1262634D01*
X1250696D02*
X1255014D01*
X1246886D02*
X1250442D01*
X1218184D02*
X1222502D01*
X1294130Y1235710D02*
X1298448D01*
X1269238D02*
X1271270D01*
X1255776D02*
X1262888D01*
X1246886D02*
X1254760D01*
X1217676D02*
X1221994D01*
X1294384Y1235964D02*
X1298702D01*
X1267206D02*
X1271270D01*
X1264412D02*
X1266444D01*
X1255776D02*
X1263142D01*
X1246886D02*
X1253998D01*
X1217422D02*
X1221740D01*
X1294892Y1236218D02*
X1299210D01*
X1267206D02*
X1271270D01*
X1264158D02*
X1266698D01*
X1260602D02*
X1263142D01*
X1255776D02*
X1260348D01*
X1250950D02*
X1253236D01*
X1249426D02*
X1250188D01*
X1247140D02*
X1248664D01*
X1216914D02*
X1221232D01*
X1295146Y1236472D02*
X1299464D01*
X1264158D02*
X1271270D01*
X1261110D02*
X1263396D01*
X1255776D02*
X1260094D01*
X1251204D02*
X1253236D01*
X1247140D02*
X1248664D01*
X1216660D02*
X1220978D01*
X1295654Y1236726D02*
X1299972D01*
X1263904D02*
X1271016D01*
X1261364D02*
X1263650D01*
X1255776D02*
X1259586D01*
X1251458D02*
X1253236D01*
X1247140D02*
X1248918D01*
X1216152D02*
X1220470D01*
X1295908Y1236980D02*
X1300226D01*
X1263904D02*
X1271016D01*
X1261618D02*
X1263650D01*
X1258316D02*
X1259078D01*
X1255776D02*
X1257808D01*
X1251712D02*
X1252982D01*
X1247140D02*
X1248918D01*
X1245108D02*
X1245362D01*
X1215898D02*
X1220216D01*
X1296416Y1237234D02*
X1300734D01*
X1261872D02*
X1270762D01*
X1256030D02*
X1257808D01*
X1247394D02*
X1248918D01*
X1244854D02*
X1245870D01*
X1215390D02*
X1219962D01*
X1296670Y1237488D02*
X1300988D01*
X1270000D02*
X1270508D01*
X1268222D02*
X1268984D01*
X1262126D02*
X1267968D01*
X1256284D02*
X1257808D01*
X1247394D02*
X1248918D01*
X1244854D02*
X1246124D01*
X1215136D02*
X1219454D01*
X1296924Y1237742D02*
X1301242D01*
X1265682D02*
X1266952D01*
X1262380D02*
X1265428D01*
X1258570D02*
X1259078D01*
X1256538D02*
X1257554D01*
X1247394D02*
X1248918D01*
X1244854D02*
X1246632D01*
X1214882D02*
X1219200D01*
X1297178Y1237996D02*
X1301750D01*
X1262380D02*
X1265428D01*
X1258316D02*
X1259586D01*
X1247394D02*
X1248918D01*
X1244854D02*
X1247140D01*
X1214628D02*
X1218946D01*
X1297686Y1238250D02*
X1302004D01*
X1262634D02*
X1265428D01*
X1258062D02*
X1259840D01*
X1245108D02*
X1248918D01*
X1214120D02*
X1218692D01*
X1297940Y1238504D02*
X1302258D01*
X1262634D02*
X1265428D01*
X1258062D02*
X1259840D01*
X1245616D02*
X1248918D01*
X1213866D02*
X1218184D01*
X1298194Y1238758D02*
X1302512D01*
X1265936D02*
X1266698D01*
X1262888D02*
X1265428D01*
X1258316D02*
X1260094D01*
X1245870D02*
X1249426D01*
X1213612D02*
X1217930D01*
X1297432Y1239012D02*
X1302766D01*
X1265682D02*
X1266952D01*
X1262888D02*
X1265428D01*
X1258570D02*
X1260094D01*
X1246378D02*
X1249934D01*
X1213358D02*
X1217676D01*
X1296924Y1239266D02*
X1303274D01*
X1263142D02*
X1267206D01*
X1259332D02*
X1260348D01*
X1247140D02*
X1250442D01*
X1213104D02*
X1217422D01*
X1296924Y1239520D02*
X1303528D01*
X1265428D02*
X1267460D01*
X1263142D02*
X1265174D01*
X1259586D02*
X1260348D01*
X1248156D02*
X1250442D01*
X1212596D02*
X1218184D01*
X1299464Y1239774D02*
X1303782D01*
X1296924D02*
X1299210D01*
X1265936D02*
X1267460D01*
X1263396D02*
X1264666D01*
X1259840D02*
X1260348D01*
X1212342D02*
X1218692D01*
X1299718Y1240028D02*
X1304036D01*
X1296924D02*
X1299210D01*
X1265936D02*
X1267460D01*
X1263650D02*
X1264158D01*
X1212088D02*
X1218946D01*
X1299972Y1240282D02*
X1304290D01*
X1296924D02*
X1299210D01*
X1266698D02*
X1266952D01*
X1211834D02*
X1219200D01*
X1300226Y1240536D02*
X1304544D01*
X1296924D02*
X1299210D01*
X1216406D02*
X1219454D01*
X1211580D02*
X1216152D01*
X1300480Y1240790D02*
X1304798D01*
X1296924D02*
X1299210D01*
X1216406D02*
X1219708D01*
X1211326D02*
X1215898D01*
X1300480Y1241044D02*
X1305052D01*
X1296924D02*
X1299210D01*
X1216406D02*
X1219962D01*
X1211072D02*
X1215644D01*
X1300734Y1241298D02*
X1305306D01*
X1296924D02*
X1299210D01*
X1216406D02*
X1220216D01*
X1210818D02*
X1215390D01*
X1300988Y1241552D02*
X1305560D01*
X1296924D02*
X1299210D01*
X1216406D02*
X1220470D01*
X1210564D02*
X1215136D01*
X1301242Y1241806D02*
X1305814D01*
X1296924D02*
X1299210D01*
X1216406D02*
X1220724D01*
X1210310D02*
X1214882D01*
X1301496Y1242060D02*
X1306068D01*
X1296924D02*
X1299210D01*
X1216406D02*
X1220978D01*
X1210310D02*
X1214628D01*
X1301750Y1242314D02*
X1306068D01*
X1297178D02*
X1299210D01*
X1216152D02*
X1221232D01*
X1210056D02*
X1214374D01*
X1302004Y1242568D02*
X1306322D01*
X1297178D02*
X1299464D01*
X1216152D02*
X1221486D01*
X1209802D02*
X1214120D01*
X1302004Y1242822D02*
X1306576D01*
X1297178D02*
X1299464D01*
X1216152D02*
X1221994D01*
X1209548D02*
X1214120D01*
X1302258Y1243076D02*
X1306830D01*
X1297178D02*
X1299464D01*
X1216152D02*
X1222248D01*
X1209294D02*
X1213866D01*
X1302512Y1243330D02*
X1307084D01*
X1297178D02*
X1299464D01*
X1216152D02*
X1222502D01*
X1209294D02*
X1213612D01*
X1302766Y1243584D02*
X1307084D01*
X1297178D02*
X1299464D01*
X1216152D02*
X1223010D01*
X1209040D02*
X1213358D01*
X1302766Y1243838D02*
X1307338D01*
X1297178D02*
X1299464D01*
X1216152D02*
X1223264D01*
X1208786D02*
X1213358D01*
X1303020Y1244092D02*
X1307592D01*
X1297178D02*
X1299718D01*
X1220470D02*
X1223518D01*
X1216152D02*
X1220216D01*
X1208532D02*
X1213104D01*
X1303274Y1244346D02*
X1307846D01*
X1297178D02*
X1299718D01*
X1220724D02*
X1224026D01*
X1216152D02*
X1220470D01*
X1208532D02*
X1212850D01*
X1303274Y1244600D02*
X1307846D01*
X1297432D02*
X1299718D01*
X1220978D02*
X1224534D01*
X1216152D02*
X1220470D01*
X1208278D02*
X1212850D01*
X1303528Y1244854D02*
X1308100D01*
X1297432D02*
X1299718D01*
X1221232D02*
X1225296D01*
X1216152D02*
X1220724D01*
X1208024D02*
X1212596D01*
X1303782Y1245108D02*
X1308354D01*
X1297432D02*
X1299972D01*
X1221740D02*
X1226058D01*
X1218438D02*
X1220978D01*
X1216152D02*
X1218184D01*
X1208024D02*
X1212342D01*
X1303782Y1245362D02*
X1308354D01*
X1297432D02*
X1299972D01*
X1271524D02*
X1277112D01*
X1221994D02*
X1226566D01*
X1218438D02*
X1220978D01*
X1216152D02*
X1218184D01*
X1207770D02*
X1212342D01*
X1304036Y1245616D02*
X1308608D01*
X1297432D02*
X1299972D01*
X1270000D02*
X1278636D01*
X1222502D02*
X1227328D01*
X1218692D02*
X1221232D01*
X1215898D02*
X1218184D01*
X1207516D02*
X1212088D01*
X1304036Y1245870D02*
X1308608D01*
X1297432D02*
X1299972D01*
X1268984D02*
X1279652D01*
X1222756D02*
X1228344D01*
X1218692D02*
X1221486D01*
X1215898D02*
X1218184D01*
X1207516D02*
X1212088D01*
X1304290Y1246124D02*
X1308862D01*
X1297686D02*
X1299972D01*
X1267968D02*
X1280414D01*
X1223264D02*
X1229360D01*
X1218946D02*
X1221486D01*
X1215898D02*
X1218184D01*
X1207262D02*
X1211834D01*
X1304290Y1246378D02*
X1308862D01*
X1297686D02*
X1299972D01*
X1267206D02*
X1281176D01*
X1223772D02*
X1230122D01*
X1218946D02*
X1221740D01*
X1215898D02*
X1218184D01*
X1207262D02*
X1211834D01*
X1304544Y1246632D02*
X1309116D01*
X1297686D02*
X1300226D01*
X1266698D02*
X1281938D01*
X1224280D02*
X1230884D01*
X1219200D02*
X1221994D01*
X1215898D02*
X1217930D01*
X1207008D02*
X1211580D01*
X1304544Y1246886D02*
X1309116D01*
X1297686D02*
X1300226D01*
X1265936D02*
X1282446D01*
X1224788D02*
X1231646D01*
X1219454D02*
X1221994D01*
X1215898D02*
X1217930D01*
X1207008D02*
X1211580D01*
X1304798Y1247140D02*
X1309370D01*
X1297686D02*
X1300226D01*
X1276858D02*
X1283208D01*
X1265428D02*
X1271016D01*
X1225550D02*
X1232408D01*
X1219454D02*
X1222248D01*
X1215898D02*
X1217930D01*
X1206754D02*
X1211326D01*
X1304798Y1247394D02*
X1309370D01*
X1297940D02*
X1300226D01*
X1278382D02*
X1283716D01*
X1264920D02*
X1269492D01*
X1226312D02*
X1233170D01*
X1219708D02*
X1222248D01*
X1215898D02*
X1217930D01*
X1206754D02*
X1211326D01*
X1305052Y1247648D02*
X1309624D01*
X1297940D02*
X1300480D01*
X1279144D02*
X1283970D01*
X1264412D02*
X1268730D01*
X1227074D02*
X1233678D01*
X1219708D02*
X1222502D01*
X1215898D02*
X1217930D01*
X1206500D02*
X1211072D01*
X1305052Y1247902D02*
X1309624D01*
X1297940D02*
X1300480D01*
X1280160D02*
X1284478D01*
X1273048D02*
X1275588D01*
X1263904D02*
X1267968D01*
X1227836D02*
X1234694D01*
X1219962D02*
X1222756D01*
X1215898D02*
X1218438D01*
X1206500D02*
X1211072D01*
X1305306Y1248156D02*
X1309878D01*
X1297940D02*
X1300480D01*
X1280668D02*
X1284986D01*
X1271270D02*
X1277112D01*
X1263650D02*
X1267206D01*
X1228852D02*
X1235456D01*
X1220216D02*
X1222756D01*
X1215898D02*
X1219708D01*
X1206500D02*
X1210818D01*
X1305306Y1248410D02*
X1309878D01*
X1298194D02*
X1300734D01*
X1281430D02*
X1285494D01*
X1270000D02*
X1278382D01*
X1263142D02*
X1266444D01*
X1229614D02*
X1236218D01*
X1215898D02*
X1223010D01*
X1206246D02*
X1210818D01*
X1305306Y1248664D02*
X1309878D01*
X1298194D02*
X1300734D01*
X1281938D02*
X1285748D01*
X1269238D02*
X1279144D01*
X1262888D02*
X1265936D01*
X1230376D02*
X1236980D01*
X1215898D02*
X1223264D01*
X1206246D02*
X1210818D01*
X1305560Y1248918D02*
X1310132D01*
X1298194D02*
X1300734D01*
X1282446D02*
X1286256D01*
X1268476D02*
X1279906D01*
X1262380D02*
X1265428D01*
X1231138D02*
X1237742D01*
X1215898D02*
X1223264D01*
X1205992D02*
X1210564D01*
X1305560Y1249172D02*
X1310132D01*
X1298194D02*
X1300734D01*
X1282954D02*
X1286510D01*
X1267714D02*
X1280414D01*
X1262126D02*
X1264920D01*
X1231900D02*
X1238250D01*
X1216152D02*
X1223518D01*
X1205992D02*
X1210564D01*
X1305560Y1249426D02*
X1310132D01*
X1298448D02*
X1300988D01*
X1283462D02*
X1286764D01*
X1267206D02*
X1280922D01*
X1261618D02*
X1264412D01*
X1232662D02*
X1239012D01*
X1216152D02*
X1223518D01*
X1205992D02*
X1210564D01*
X1305814Y1249680D02*
X1310386D01*
X1298448D02*
X1300988D01*
X1283716D02*
X1287272D01*
X1276604D02*
X1281430D01*
X1266444D02*
X1271270D01*
X1261364D02*
X1264158D01*
X1233932D02*
X1239520D01*
X1216406D02*
X1223518D01*
X1205738D02*
X1210310D01*
X1305814Y1249934D02*
X1310386D01*
X1298702D02*
X1300988D01*
X1284224D02*
X1287526D01*
X1277620D02*
X1281938D01*
X1265936D02*
X1270000D01*
X1261110D02*
X1263650D01*
X1234694D02*
X1240028D01*
X1216660D02*
X1223518D01*
X1205738D02*
X1210310D01*
X1305814Y1250188D02*
X1310386D01*
X1298702D02*
X1301242D01*
X1284478D02*
X1287780D01*
X1278382D02*
X1282446D01*
X1265682D02*
X1269238D01*
X1260856D02*
X1263396D01*
X1235456D02*
X1240536D01*
X1220470D02*
X1223264D01*
X1216914D02*
X1219708D01*
X1205738D02*
X1210310D01*
X1306068Y1250442D02*
X1310640D01*
X1298956D02*
X1301242D01*
X1284986D02*
X1288034D01*
X1278890D02*
X1282954D01*
X1265174D02*
X1268476D01*
X1260348D02*
X1262888D01*
X1236218D02*
X1241044D01*
X1221486D02*
X1222756D01*
X1217168D02*
X1219962D01*
X1205738D02*
X1210310D01*
X1306068Y1250696D02*
X1310640D01*
X1298956D02*
X1301242D01*
X1285240D02*
X1288288D01*
X1279652D02*
X1283208D01*
X1264666D02*
X1267714D01*
X1260094D02*
X1262634D01*
X1236980D02*
X1241552D01*
X1217422D02*
X1220216D01*
X1205484D02*
X1210056D01*
X1306068Y1250950D02*
X1310640D01*
X1298956D02*
X1301496D01*
X1285748D02*
X1288542D01*
X1280160D02*
X1283716D01*
X1264412D02*
X1267206D01*
X1259840D02*
X1262380D01*
X1237742D02*
X1241806D01*
X1217676D02*
X1220470D01*
X1205484D02*
X1210056D01*
X1306068Y1251204D02*
X1310640D01*
X1299210D02*
X1301496D01*
X1286002D02*
X1288796D01*
X1280414D02*
X1283970D01*
X1263904D02*
X1266698D01*
X1259586D02*
X1261872D01*
X1238504D02*
X1242314D01*
X1217930D02*
X1220470D01*
X1205484D02*
X1210056D01*
X1306068Y1251458D02*
X1310640D01*
X1299210D02*
X1301496D01*
X1286256D02*
X1289050D01*
X1280922D02*
X1284224D01*
X1263650D02*
X1266190D01*
X1259332D02*
X1261618D01*
X1239012D02*
X1242568D01*
X1218184D02*
X1220724D01*
X1205484D02*
X1210056D01*
X1306068Y1251712D02*
X1310894D01*
X1299210D02*
X1301496D01*
X1286510D02*
X1289304D01*
X1281430D02*
X1284732D01*
X1263396D02*
X1265936D01*
X1259078D02*
X1261364D01*
X1239520D02*
X1242822D01*
X1218438D02*
X1220978D01*
X1205484D02*
X1210056D01*
X1306322Y1251966D02*
X1310894D01*
X1299464D02*
X1301750D01*
X1286764D02*
X1289558D01*
X1281684D02*
X1284986D01*
X1262888D02*
X1265428D01*
X1258824D02*
X1261110D01*
X1240028D02*
X1243076D01*
X1218438D02*
X1221232D01*
X1205230D02*
X1210056D01*
X1306322Y1252220D02*
X1310894D01*
X1299464D02*
X1301750D01*
X1287018D02*
X1289812D01*
X1282192D02*
X1285240D01*
X1262634D02*
X1264920D01*
X1258824D02*
X1260856D01*
X1240536D02*
X1243330D01*
X1218692D02*
X1221232D01*
X1205230D02*
X1209802D01*
X1306322Y1252474D02*
X1310894D01*
X1299464D02*
X1301750D01*
X1287272D02*
X1290066D01*
X1282446D02*
X1285494D01*
X1262380D02*
X1264666D01*
X1258570D02*
X1260602D01*
X1241044D02*
X1243584D01*
X1218946D02*
X1221486D01*
X1205230D02*
X1209802D01*
X1306322Y1252728D02*
X1310894D01*
X1299464D02*
X1301750D01*
X1287526D02*
X1290320D01*
X1282700D02*
X1285748D01*
X1262126D02*
X1264412D01*
X1258316D02*
X1260348D01*
X1241552D02*
X1243584D01*
X1219200D02*
X1221740D01*
X1205230D02*
X1209802D01*
X1306322Y1252982D02*
X1310894D01*
X1299718D02*
X1302004D01*
X1287780D02*
X1290574D01*
X1282954D02*
X1286002D01*
X1261872D02*
X1263904D01*
X1258062D02*
X1260094D01*
X1241806D02*
X1243330D01*
X1219200D02*
X1221994D01*
X1205230D02*
X1209802D01*
X1306322Y1253236D02*
X1310894D01*
X1299718D02*
X1302004D01*
X1288034D02*
X1290574D01*
X1283462D02*
X1286256D01*
X1261618D02*
X1263650D01*
X1257808D02*
X1259840D01*
X1242060D02*
X1243076D01*
X1219454D02*
X1221994D01*
X1205230D02*
X1209802D01*
X1306322Y1253490D02*
X1310894D01*
X1299718D02*
X1302004D01*
X1288288D02*
X1290828D01*
X1283716D02*
X1286510D01*
X1261364D02*
X1263396D01*
X1257554D02*
X1259586D01*
X1219708D02*
X1222502D01*
X1205230D02*
X1209802D01*
X1306322Y1253744D02*
X1310894D01*
X1299718D02*
X1302004D01*
X1288542D02*
X1291082D01*
X1283970D02*
X1286764D01*
X1261110D02*
X1263142D01*
X1257554D02*
X1259332D01*
X1219708D02*
X1223264D01*
X1205230D02*
X1209802D01*
X1306322Y1253998D02*
X1310894D01*
X1299718D02*
X1302258D01*
X1288796D02*
X1291336D01*
X1284224D02*
X1287018D01*
X1260856D02*
X1262888D01*
X1257300D02*
X1259332D01*
X1219962D02*
X1224026D01*
X1205230D02*
X1209802D01*
X1306322Y1254252D02*
X1310894D01*
X1299972D02*
X1302258D01*
X1288796D02*
X1291336D01*
X1284478D02*
X1287272D01*
X1260602D02*
X1262634D01*
X1257046D02*
X1259078D01*
X1219962D02*
X1224534D01*
X1205230D02*
X1209802D01*
X1306322Y1254506D02*
X1310894D01*
X1299972D02*
X1302258D01*
X1289050D02*
X1291590D01*
X1284732D02*
X1287526D01*
X1260348D02*
X1263142D01*
X1255522D02*
X1258824D01*
X1220216D02*
X1225296D01*
X1205230D02*
X1209802D01*
X1306322Y1254760D02*
X1310894D01*
X1299972D02*
X1302258D01*
X1289304D02*
X1291844D01*
X1284986D02*
X1287780D01*
X1260348D02*
X1266444D01*
X1253744D02*
X1258570D01*
X1220216D02*
X1225804D01*
X1205230D02*
X1209802D01*
X1306322Y1255014D02*
X1310894D01*
X1299972D02*
X1302512D01*
X1289304D02*
X1291844D01*
X1285240D02*
X1288034D01*
X1260094D02*
X1270254D01*
X1251966D02*
X1258570D01*
X1220470D02*
X1226312D01*
X1205230D02*
X1209802D01*
X1306322Y1255268D02*
X1310894D01*
X1299972D02*
X1302512D01*
X1289558D02*
X1292098D01*
X1285494D02*
X1288288D01*
X1260094D02*
X1274318D01*
X1250696D02*
X1258316D01*
X1220470D02*
X1226820D01*
X1205230D02*
X1209802D01*
X1306322Y1255522D02*
X1310894D01*
X1299972D02*
X1302512D01*
X1289812D02*
X1292098D01*
X1285748D02*
X1288542D01*
X1260094D02*
X1278128D01*
X1249426D02*
X1258062D01*
X1220724D02*
X1227074D01*
X1205230D02*
X1209802D01*
X1306322Y1255776D02*
X1310894D01*
X1299972D02*
X1302512D01*
X1289812D02*
X1292352D01*
X1286002D02*
X1288796D01*
X1260602D02*
X1282446D01*
X1248664D02*
X1258062D01*
X1220724D02*
X1227582D01*
X1205230D02*
X1209802D01*
X1306322Y1256030D02*
X1310894D01*
X1300226D02*
X1302512D01*
X1290066D02*
X1292606D01*
X1262634D02*
X1288796D01*
X1247902D02*
X1257808D01*
X1223772D02*
X1227836D01*
X1220978D02*
X1223264D01*
X1205230D02*
X1209802D01*
X1306322Y1256284D02*
X1310894D01*
X1300226D02*
X1302512D01*
X1290320D02*
X1292606D01*
X1265174D02*
X1289050D01*
X1256030D02*
X1257808D01*
X1246886D02*
X1255014D01*
X1224280D02*
X1228344D01*
X1220978D02*
X1223518D01*
X1205230D02*
X1209802D01*
X1306322Y1256538D02*
X1310894D01*
X1300226D02*
X1302512D01*
X1290320D02*
X1293622D01*
X1268222D02*
X1289304D01*
X1255776D02*
X1257554D01*
X1246124D02*
X1253744D01*
X1224534D02*
X1228598D01*
X1221232D02*
X1223518D01*
X1205230D02*
X1209802D01*
X1306322Y1256792D02*
X1310894D01*
X1300226D02*
X1302512D01*
X1290574D02*
X1295400D01*
X1271016D02*
X1289304D01*
X1255522D02*
X1257300D01*
X1245108D02*
X1252728D01*
X1224280D02*
X1228852D01*
X1221232D02*
X1223772D01*
X1205230D02*
X1210056D01*
X1306322Y1257046D02*
X1310894D01*
X1300226D02*
X1302512D01*
X1290574D02*
X1296924D01*
X1273556D02*
X1289304D01*
X1255522D02*
X1257300D01*
X1244092D02*
X1251712D01*
X1224280D02*
X1229106D01*
X1221486D02*
X1223772D01*
X1205484D02*
X1210056D01*
X1306068Y1257300D02*
X1310640D01*
X1300226D02*
X1302766D01*
X1290828D02*
X1297940D01*
X1276858D02*
X1289304D01*
X1255268D02*
X1257046D01*
X1243076D02*
X1250696D01*
X1224026D02*
X1229360D01*
X1221486D02*
X1223772D01*
X1205484D02*
X1210056D01*
X1306068Y1257554D02*
X1310640D01*
X1300226D02*
X1302766D01*
X1290828D02*
X1298702D01*
X1281176D02*
X1289050D01*
X1255268D02*
X1257046D01*
X1242060D02*
X1249680D01*
X1221740D02*
X1229614D01*
X1205484D02*
X1210056D01*
X1306068Y1257808D02*
X1310640D01*
X1300226D02*
X1302766D01*
X1291082D02*
X1299464D01*
X1286002D02*
X1288542D01*
X1255268D02*
X1257046D01*
X1241044D02*
X1248410D01*
X1226566D02*
X1229868D01*
X1224280D02*
X1226312D01*
X1221740D02*
X1224026D01*
X1205484D02*
X1210056D01*
X1306068Y1258062D02*
X1310640D01*
X1300226D02*
X1302766D01*
X1291082D02*
X1299972D01*
X1255014D02*
X1256792D01*
X1240790D02*
X1247394D01*
X1226820D02*
X1229868D01*
X1221994D02*
X1226312D01*
X1205484D02*
X1210056D01*
X1306068Y1258316D02*
X1310640D01*
X1294892D02*
X1302766D01*
X1291336D02*
X1293622D01*
X1255014D02*
X1256792D01*
X1240790D02*
X1246378D01*
X1227074D02*
X1230122D01*
X1221994D02*
X1226058D01*
X1205738D02*
X1210310D01*
X1305814Y1258570D02*
X1310386D01*
X1295908D02*
X1302766D01*
X1291336D02*
X1293622D01*
X1254760D02*
X1256538D01*
X1240790D02*
X1245362D01*
X1227328D02*
X1230376D01*
X1222248D02*
X1226312D01*
X1205738D02*
X1210310D01*
X1305814Y1258824D02*
X1310386D01*
X1296670D02*
X1302766D01*
X1291336D02*
X1293876D01*
X1254760D02*
X1256538D01*
X1240790D02*
X1244092D01*
X1227582D02*
X1230376D01*
X1222248D02*
X1227074D01*
X1205738D02*
X1210310D01*
X1305814Y1259078D02*
X1310386D01*
X1297432D02*
X1302766D01*
X1291590D02*
X1293876D01*
X1254760D02*
X1256284D01*
X1241298D02*
X1242822D01*
X1222502D02*
X1230376D01*
X1205738D02*
X1210310D01*
X1305560Y1259332D02*
X1310132D01*
X1297940D02*
X1302766D01*
X1291590D02*
X1293876D01*
X1254506D02*
X1256284D01*
X1222502D02*
X1230376D01*
X1205992D02*
X1210564D01*
X1305560Y1259586D02*
X1310132D01*
X1298448D02*
X1302766D01*
X1291590D02*
X1294130D01*
X1254506D02*
X1256284D01*
X1222756D02*
X1230376D01*
X1205992D02*
X1210564D01*
X1305560Y1259840D02*
X1310132D01*
X1298448D02*
X1302766D01*
X1291844D02*
X1294130D01*
X1254506D02*
X1256030D01*
X1223264D02*
X1230630D01*
X1205992D02*
X1210564D01*
X1305306Y1260094D02*
X1309878D01*
X1297940D02*
X1302766D01*
X1291844D02*
X1294130D01*
X1254252D02*
X1256030D01*
X1223518D02*
X1231646D01*
X1206246D02*
X1210818D01*
X1305306Y1260348D02*
X1309878D01*
X1297432D02*
X1302512D01*
X1291844D02*
X1294384D01*
X1254252D02*
X1256030D01*
X1224026D02*
X1232916D01*
X1206246D02*
X1210818D01*
X1305306Y1260602D02*
X1309878D01*
X1296670D02*
X1302512D01*
X1292098D02*
X1294384D01*
X1254252D02*
X1256030D01*
X1224280D02*
X1234186D01*
X1206500D02*
X1210818D01*
X1305052Y1260856D02*
X1309624D01*
X1295908D02*
X1302512D01*
X1292098D02*
X1294384D01*
X1254252D02*
X1255776D01*
X1224788D02*
X1235456D01*
X1206500D02*
X1211072D01*
X1305052Y1261110D02*
X1309624D01*
X1295400D02*
X1302512D01*
X1292098D02*
X1294384D01*
X1253998D02*
X1255776D01*
X1225042D02*
X1236726D01*
X1206500D02*
X1211072D01*
X1304798Y1261364D02*
X1309370D01*
X1294638D02*
X1302258D01*
X1292098D02*
X1294384D01*
X1253998D02*
X1255776D01*
X1225550D02*
X1237996D01*
X1206754D02*
X1211326D01*
X1304798Y1261618D02*
X1309370D01*
X1292352D02*
X1302258D01*
X1253998D02*
X1255522D01*
X1225804D02*
X1239520D01*
X1206754D02*
X1211326D01*
X1304798Y1261872D02*
X1309116D01*
X1299718D02*
X1302258D01*
X1292352D02*
X1299210D01*
X1253998D02*
X1255522D01*
X1226312D02*
X1241044D01*
X1207008D02*
X1211580D01*
X1304544Y1262126D02*
X1309116D01*
X1299718D02*
X1302258D01*
X1292352D02*
X1298448D01*
X1253998D02*
X1255522D01*
X1226566D02*
X1242568D01*
X1207008D02*
X1211580D01*
X1304544Y1262380D02*
X1308862D01*
X1299718D02*
X1302004D01*
X1292352D02*
X1297686D01*
X1253744D02*
X1255522D01*
X1232154D02*
X1244092D01*
X1227074D02*
X1231392D01*
X1207262D02*
X1211834D01*
X1304290Y1262634D02*
X1308862D01*
X1299464D02*
X1302004D01*
X1292352D02*
X1296924D01*
X1253744D02*
X1255522D01*
X1233170D02*
X1245870D01*
X1227582D02*
X1232154D01*
X1207262D02*
X1211834D01*
X1304036Y1262888D02*
X1308608D01*
X1299464D02*
X1302004D01*
X1292606D02*
X1296162D01*
X1289050D02*
X1290828D01*
X1253744D02*
X1255522D01*
X1234186D02*
X1247648D01*
X1227836D02*
X1232662D01*
X1207516D02*
X1212088D01*
X1304036Y1263142D02*
X1308608D01*
X1299464D02*
X1302004D01*
X1292606D02*
X1295400D01*
X1288034D02*
X1291082D01*
X1253744D02*
X1255268D01*
X1235456D02*
X1249680D01*
X1228344D02*
X1233170D01*
X1207516D02*
X1212088D01*
X1303782Y1263396D02*
X1308354D01*
X1299464D02*
X1301750D01*
X1292606D02*
X1294892D01*
X1286764D02*
X1291336D01*
X1253744D02*
X1255268D01*
X1236726D02*
X1251712D01*
X1228852D02*
X1233678D01*
X1207770D02*
X1212342D01*
X1303782Y1263650D02*
X1308354D01*
X1298448D02*
X1301750D01*
X1292606D02*
X1294892D01*
X1285494D02*
X1291590D01*
X1237996D02*
X1255268D01*
X1229360D02*
X1234186D01*
X1208024D02*
X1212342D01*
X1303528Y1263904D02*
X1308100D01*
X1298448D02*
X1301750D01*
X1292606D02*
X1294892D01*
X1284224D02*
X1291590D01*
X1239520D02*
X1255268D01*
X1229868D02*
X1234694D01*
X1208024D02*
X1212596D01*
X1303274Y1264158D02*
X1307846D01*
X1298194D02*
X1301750D01*
X1292606D02*
X1294892D01*
X1282446D02*
X1291590D01*
X1241298D02*
X1255268D01*
X1230376D02*
X1235202D01*
X1208278D02*
X1212850D01*
X1303274Y1264412D02*
X1307846D01*
X1297940D02*
X1301750D01*
X1292606D02*
X1294892D01*
X1280668D02*
X1291590D01*
X1256792D02*
X1259078D01*
X1242822D02*
X1255268D01*
X1230630D02*
X1235964D01*
X1208532D02*
X1212850D01*
X1303020Y1264666D02*
X1307592D01*
X1297940D02*
X1301496D01*
X1292606D02*
X1294892D01*
X1278382D02*
X1291590D01*
X1256538D02*
X1261110D01*
X1244854D02*
X1255268D01*
X1231392D02*
X1236472D01*
X1208532D02*
X1213104D01*
X1302766Y1264920D02*
X1307338D01*
X1297940D02*
X1301496D01*
X1292606D02*
X1294892D01*
X1275334D02*
X1291590D01*
X1256538D02*
X1263904D01*
X1247140D02*
X1255268D01*
X1231646D02*
X1236980D01*
X1208786D02*
X1213358D01*
X1302766Y1265174D02*
X1307084D01*
X1297686D02*
X1301242D01*
X1292606D02*
X1294892D01*
X1289304D02*
X1291590D01*
X1256538D02*
X1288542D01*
X1249934D02*
X1255268D01*
X1232408D02*
X1237742D01*
X1209040D02*
X1213358D01*
X1302512Y1265428D02*
X1307084D01*
X1297686D02*
X1301242D01*
X1292606D02*
X1294892D01*
X1289304D02*
X1291590D01*
X1256538D02*
X1287272D01*
X1252728D02*
X1255268D01*
X1232916D02*
X1238250D01*
X1209294D02*
X1213612D01*
X1302258Y1265682D02*
X1306830D01*
X1297432D02*
X1301242D01*
X1292606D02*
X1294892D01*
X1289304D02*
X1291590D01*
X1256538D02*
X1286002D01*
X1253490D02*
X1255268D01*
X1233424D02*
X1239012D01*
X1209294D02*
X1213866D01*
X1302004Y1265936D02*
X1306576D01*
X1297432D02*
X1300988D01*
X1292606D02*
X1294892D01*
X1289304D02*
X1291590D01*
X1256538D02*
X1284478D01*
X1253490D02*
X1255268D01*
X1233932D02*
X1239774D01*
X1209548D02*
X1214120D01*
X1302004Y1266190D02*
X1306322D01*
X1297178D02*
X1300988D01*
X1292606D02*
X1294892D01*
X1289304D02*
X1291590D01*
X1258570D02*
X1282700D01*
X1256538D02*
X1258062D01*
X1253490D02*
X1255268D01*
X1234440D02*
X1240282D01*
X1209802D02*
X1214120D01*
X1301750Y1266444D02*
X1306068D01*
X1297178D02*
X1300734D01*
X1292606D02*
X1294892D01*
X1289304D02*
X1291590D01*
X1260602D02*
X1280922D01*
X1256538D02*
X1258062D01*
X1253490D02*
X1255268D01*
X1235202D02*
X1241044D01*
X1210056D02*
X1214374D01*
X1301496Y1266698D02*
X1306068D01*
X1297178D02*
X1300734D01*
X1292606D02*
X1294892D01*
X1289304D02*
X1291590D01*
X1263396D02*
X1278382D01*
X1256538D02*
X1258062D01*
X1253490D02*
X1255268D01*
X1235710D02*
X1241806D01*
X1210310D02*
X1214628D01*
X1301242Y1266952D02*
X1305814D01*
X1296924D02*
X1300734D01*
X1292606D02*
X1294892D01*
X1289304D02*
X1291590D01*
X1267714D02*
X1274064D01*
X1256538D02*
X1258062D01*
X1253490D02*
X1255268D01*
X1236218D02*
X1242822D01*
X1210310D02*
X1214882D01*
X1300988Y1267206D02*
X1305560D01*
X1296924D02*
X1300480D01*
X1292606D02*
X1294892D01*
X1289304D02*
X1291590D01*
X1256792D02*
X1258062D01*
X1253490D02*
X1255268D01*
X1236980D02*
X1243838D01*
X1210564D02*
X1215136D01*
X1300734Y1267460D02*
X1305306D01*
X1296924D02*
X1300480D01*
X1292606D02*
X1294892D01*
X1289304D02*
X1291590D01*
X1256792D02*
X1258062D01*
X1253490D02*
X1255268D01*
X1237742D02*
X1244854D01*
X1210818D02*
X1215390D01*
X1296670Y1267714D02*
X1305052D01*
X1292606D02*
X1294892D01*
X1289050D02*
X1291590D01*
X1256792D02*
X1258062D01*
X1253490D02*
X1255268D01*
X1238250D02*
X1245616D01*
X1211072D02*
X1215644D01*
X1300480Y1267968D02*
X1304798D01*
X1296670D02*
X1300226D01*
X1292606D02*
X1294892D01*
X1289050D02*
X1291590D01*
X1256792D02*
X1258316D01*
X1253744D02*
X1255268D01*
X1239012D02*
X1246632D01*
X1211326D02*
X1215898D01*
X1296670Y1268222D02*
X1304544D01*
X1292606D02*
X1294892D01*
X1289050D02*
X1291590D01*
X1256792D02*
X1258316D01*
X1253744D02*
X1255522D01*
X1239774D02*
X1247394D01*
X1211580D02*
X1216152D01*
X1296416Y1268476D02*
X1304290D01*
X1292352D02*
X1294892D01*
X1289050D02*
X1291590D01*
X1256792D02*
X1258316D01*
X1253744D02*
X1255522D01*
X1240536D02*
X1247394D01*
X1211834D02*
X1216406D01*
X1296416Y1268730D02*
X1304036D01*
X1292352D02*
X1294892D01*
X1289050D02*
X1291590D01*
X1256792D02*
X1258316D01*
X1253744D02*
X1255522D01*
X1241298D02*
X1247648D01*
X1212088D02*
X1216660D01*
X1296162Y1268984D02*
X1303782D01*
X1292352D02*
X1294892D01*
X1289050D02*
X1291590D01*
X1257046D02*
X1258570D01*
X1253744D02*
X1255522D01*
X1242060D02*
X1247902D01*
X1212342D02*
X1216914D01*
X1296162Y1269238D02*
X1303528D01*
X1292352D02*
X1294638D01*
X1288796D02*
X1291336D01*
X1257046D02*
X1258570D01*
X1253744D02*
X1255522D01*
X1242822D02*
X1248156D01*
X1212596D02*
X1217168D01*
X1296162Y1269492D02*
X1303274D01*
X1292352D02*
X1294638D01*
X1288796D02*
X1291336D01*
X1257046D02*
X1258570D01*
X1253744D02*
X1255522D01*
X1243838D02*
X1248410D01*
X1213104D02*
X1217422D01*
X1295908Y1269746D02*
X1302766D01*
X1292352D02*
X1294638D01*
X1288796D02*
X1291336D01*
X1257046D02*
X1258570D01*
X1253998D02*
X1255776D01*
X1244854D02*
X1248664D01*
X1213358D02*
X1217676D01*
X1295908Y1270000D02*
X1302512D01*
X1292098D02*
X1294638D01*
X1288796D02*
X1291336D01*
X1257046D02*
X1258824D01*
X1253998D02*
X1255776D01*
X1245870D02*
X1248918D01*
X1213612D02*
X1217930D01*
X1295908Y1270254D02*
X1302258D01*
X1292098D02*
X1294638D01*
X1288542D02*
X1291336D01*
X1257300D02*
X1258824D01*
X1253998D02*
X1255776D01*
X1246378D02*
X1249172D01*
X1213866D02*
X1218184D01*
X1295908Y1270508D02*
X1302004D01*
X1292098D02*
X1294384D01*
X1288542D02*
X1291336D01*
X1257300D02*
X1259078D01*
X1253998D02*
X1255776D01*
X1246632D02*
X1249172D01*
X1214120D02*
X1218692D01*
X1295654Y1270762D02*
X1301750D01*
X1292098D02*
X1294384D01*
X1288542D02*
X1291082D01*
X1257300D02*
X1259078D01*
X1253998D02*
X1256030D01*
X1246632D02*
X1249426D01*
X1214628D02*
X1218946D01*
X1295654Y1271016D02*
X1301242D01*
X1291844D02*
X1294384D01*
X1288542D02*
X1291082D01*
X1257554D02*
X1259078D01*
X1254252D02*
X1256030D01*
X1246886D02*
X1249680D01*
X1214882D02*
X1219200D01*
X1295654Y1271270D02*
X1300988D01*
X1291844D02*
X1294384D01*
X1288288D02*
X1291082D01*
X1257554D02*
X1259332D01*
X1254252D02*
X1256030D01*
X1247140D02*
X1249934D01*
X1215136D02*
X1219454D01*
X1295400Y1271524D02*
X1300734D01*
X1291844D02*
X1294130D01*
X1288288D02*
X1291082D01*
X1257554D02*
X1259332D01*
X1254252D02*
X1256284D01*
X1247394D02*
X1250188D01*
X1215390D02*
X1219962D01*
X1295400Y1271778D02*
X1300226D01*
X1291590D02*
X1294130D01*
X1288034D02*
X1290828D01*
X1257808D02*
X1259586D01*
X1254506D02*
X1256284D01*
X1247648D02*
X1250442D01*
X1215898D02*
X1220216D01*
X1295400Y1272032D02*
X1299972D01*
X1291590D02*
X1294130D01*
X1288034D02*
X1290828D01*
X1257808D02*
X1259586D01*
X1254506D02*
X1256284D01*
X1247902D02*
X1250696D01*
X1216152D02*
X1220470D01*
X1295146Y1272286D02*
X1299464D01*
X1291336D02*
X1293876D01*
X1288034D02*
X1290828D01*
X1258062D02*
X1259840D01*
X1254506D02*
X1256538D01*
X1248156D02*
X1250950D01*
X1216660D02*
X1220978D01*
X1295146Y1272540D02*
X1299210D01*
X1291336D02*
X1293876D01*
X1287780D02*
X1290574D01*
X1258062D02*
X1259840D01*
X1254506D02*
X1256538D01*
X1248410D02*
X1251204D01*
X1216914D02*
X1221232D01*
X1295146Y1272794D02*
X1298702D01*
X1291336D02*
X1293876D01*
X1287780D02*
X1290574D01*
X1258062D02*
X1260094D01*
X1254760D02*
X1256538D01*
X1248664D02*
X1251204D01*
X1217422D02*
X1221740D01*
X1295146Y1273048D02*
X1298702D01*
X1291082D02*
X1293622D01*
X1287526D02*
X1290574D01*
X1258316D02*
X1260094D01*
X1254760D02*
X1256792D01*
X1248664D02*
X1251458D01*
X1217676D02*
X1221994D01*
X1294892Y1273302D02*
X1298702D01*
X1291082D02*
X1293622D01*
X1287526D02*
X1290320D01*
X1258316D02*
X1260348D01*
X1255014D02*
X1256792D01*
X1248918D02*
X1251712D01*
X1218184D02*
X1222502D01*
X1294892Y1273556D02*
X1298448D01*
X1290828D02*
X1293622D01*
X1287272D02*
X1290320D01*
X1258570D02*
X1260602D01*
X1255014D02*
X1257046D01*
X1249172D02*
X1251966D01*
X1218438D02*
X1222756D01*
X1294892Y1273810D02*
X1298448D01*
X1290828D02*
X1293368D01*
X1287272D02*
X1290066D01*
X1258570D02*
X1260602D01*
X1255014D02*
X1257046D01*
X1249426D02*
X1252220D01*
X1218946D02*
X1223264D01*
X1294892Y1274064D02*
X1298448D01*
X1290574D02*
X1293368D01*
X1287018D02*
X1290066D01*
X1258824D02*
X1260856D01*
X1255268D02*
X1257300D01*
X1249680D02*
X1252474D01*
X1219454D02*
X1223772D01*
X1294892Y1274318D02*
X1298448D01*
X1290574D02*
X1293114D01*
X1286764D02*
X1290066D01*
X1258824D02*
X1261110D01*
X1255268D02*
X1257300D01*
X1249934D02*
X1252728D01*
X1219708D02*
X1224280D01*
X1294638Y1274572D02*
X1298194D01*
X1290320D02*
X1293114D01*
X1286764D02*
X1289812D01*
X1259078D02*
X1261110D01*
X1255522D02*
X1257554D01*
X1250188D02*
X1252982D01*
X1220216D02*
X1224534D01*
X1294638Y1274826D02*
X1298194D01*
X1290320D02*
X1292860D01*
X1286510D02*
X1289812D01*
X1259332D02*
X1261364D01*
X1255522D02*
X1257554D01*
X1250442D02*
X1253236D01*
X1220724D02*
X1225042D01*
X1294638Y1275080D02*
X1298194D01*
X1290066D02*
X1292860D01*
X1286256D02*
X1289558D01*
X1259332D02*
X1261618D01*
X1255776D02*
X1257808D01*
X1250696D02*
X1253236D01*
X1221232D02*
X1225550D01*
X1294638Y1275334D02*
X1298194D01*
X1290066D02*
X1292606D01*
X1286256D02*
X1289304D01*
X1259586D02*
X1261872D01*
X1255776D02*
X1258062D01*
X1250696D02*
X1253490D01*
X1221740D02*
X1226058D01*
X1294638Y1275588D02*
X1297940D01*
X1289812D02*
X1292606D01*
X1286002D02*
X1289304D01*
X1259840D02*
X1262126D01*
X1256030D02*
X1258062D01*
X1250950D02*
X1253744D01*
X1222248D02*
X1226566D01*
X1294638Y1275842D02*
X1297940D01*
X1289558D02*
X1292352D01*
X1285748D02*
X1289050D01*
X1259840D02*
X1262380D01*
X1256030D02*
X1258316D01*
X1251204D02*
X1253998D01*
X1222756D02*
X1227074D01*
X1294384Y1276096D02*
X1297940D01*
X1289558D02*
X1292352D01*
X1285494D02*
X1289050D01*
X1260094D02*
X1262634D01*
X1256284D02*
X1258570D01*
X1251458D02*
X1254252D01*
X1223264D02*
X1227582D01*
X1294384Y1276350D02*
X1297940D01*
X1289304D02*
X1292098D01*
X1285494D02*
X1288796D01*
X1260348D02*
X1262888D01*
X1256284D02*
X1258570D01*
X1251712D02*
X1254506D01*
X1223772D02*
X1228090D01*
X1294638Y1276604D02*
X1297686D01*
X1289050D02*
X1292098D01*
X1285240D02*
X1288542D01*
X1260348D02*
X1263142D01*
X1256538D02*
X1258824D01*
X1251966D02*
X1254760D01*
X1224280D02*
X1228598D01*
X1294638Y1276858D02*
X1297686D01*
X1289050D02*
X1291844D01*
X1284986D02*
X1288542D01*
X1260602D02*
X1263396D01*
X1256792D02*
X1259078D01*
X1252220D02*
X1255014D01*
X1225042D02*
X1229360D01*
X1294638Y1277112D02*
X1297686D01*
X1288796D02*
X1291590D01*
X1284732D02*
X1288288D01*
X1260856D02*
X1263650D01*
X1256792D02*
X1259078D01*
X1252474D02*
X1255268D01*
X1225550D02*
X1229868D01*
X1295146Y1277366D02*
X1297686D01*
X1288542D02*
X1291590D01*
X1284478D02*
X1288034D01*
X1261110D02*
X1263904D01*
X1257046D02*
X1259332D01*
X1252728D02*
X1255522D01*
X1226058D02*
X1230376D01*
X1295146Y1277620D02*
X1297686D01*
X1288288D02*
X1291336D01*
X1284224D02*
X1287780D01*
X1261364D02*
X1264158D01*
X1257300D02*
X1259586D01*
X1252728D02*
X1255776D01*
X1226820D02*
X1231138D01*
X1295146Y1277874D02*
X1297686D01*
X1288034D02*
X1291082D01*
X1283716D02*
X1287526D01*
X1261618D02*
X1264412D01*
X1257300D02*
X1259840D01*
X1252982D02*
X1256030D01*
X1227328D02*
X1231900D01*
X1295146Y1278128D02*
X1297686D01*
X1287780D02*
X1291082D01*
X1283462D02*
X1287272D01*
X1261872D02*
X1264920D01*
X1257554D02*
X1260094D01*
X1253236D02*
X1256284D01*
X1228090D02*
X1232408D01*
X1295146Y1278382D02*
X1297686D01*
X1287526D02*
X1290828D01*
X1283208D02*
X1287272D01*
X1262126D02*
X1265174D01*
X1257808D02*
X1260348D01*
X1253490D02*
X1256284D01*
X1228598D02*
X1233170D01*
X1295146Y1278636D02*
X1297686D01*
X1287526D02*
X1290574D01*
X1282700D02*
X1287018D01*
X1262380D02*
X1265682D01*
X1258062D02*
X1260602D01*
X1253744D02*
X1256538D01*
X1229360D02*
X1233932D01*
X1295146Y1278890D02*
X1297686D01*
X1287018D02*
X1290320D01*
X1282446D02*
X1286764D01*
X1262634D02*
X1265936D01*
X1258062D02*
X1260856D01*
X1253998D02*
X1256792D01*
X1230122D02*
X1234694D01*
X1295146Y1279144D02*
X1297686D01*
X1286764D02*
X1290066D01*
X1281938D02*
X1286256D01*
X1262888D02*
X1266444D01*
X1258316D02*
X1261110D01*
X1254252D02*
X1257046D01*
X1230884D02*
X1235456D01*
X1295146Y1279398D02*
X1297686D01*
X1286510D02*
X1289812D01*
X1281684D02*
X1286002D01*
X1263142D02*
X1266952D01*
X1258570D02*
X1261364D01*
X1254506D02*
X1257300D01*
X1231646D02*
X1236472D01*
X1295146Y1279652D02*
X1297686D01*
X1286256D02*
X1289812D01*
X1281176D02*
X1285748D01*
X1263396D02*
X1267460D01*
X1258824D02*
X1261618D01*
X1254760D02*
X1257554D01*
X1232662D02*
X1237234D01*
X1295146Y1279906D02*
X1297686D01*
X1286002D02*
X1289558D01*
X1280668D02*
X1285494D01*
X1263650D02*
X1267968D01*
X1259078D02*
X1261872D01*
X1255014D02*
X1257808D01*
X1233424D02*
X1238250D01*
X1295146Y1280160D02*
X1297686D01*
X1285748D02*
X1289304D01*
X1280160D02*
X1285240D01*
X1263904D02*
X1268476D01*
X1259332D02*
X1262126D01*
X1255268D02*
X1258062D01*
X1234186D02*
X1239266D01*
X1295146Y1280414D02*
X1297686D01*
X1285494D02*
X1289050D01*
X1279398D02*
X1284732D01*
X1264412D02*
X1269238D01*
X1259586D02*
X1262634D01*
X1255522D02*
X1258316D01*
X1235202D02*
X1240282D01*
X1295146Y1280668D02*
X1297686D01*
X1284986D02*
X1288796D01*
X1278636D02*
X1284478D01*
X1264666D02*
X1270000D01*
X1259840D02*
X1262888D01*
X1255776D02*
X1258570D01*
X1236218D02*
X1241552D01*
X1295146Y1280922D02*
X1297686D01*
X1284732D02*
X1288542D01*
X1277620D02*
X1284224D01*
X1265174D02*
X1271016D01*
X1260094D02*
X1263142D01*
X1256030D02*
X1258824D01*
X1237234D02*
X1242822D01*
X1295146Y1281176D02*
X1297686D01*
X1284224D02*
X1288288D01*
X1276096D02*
X1283716D01*
X1265428D02*
X1272540D01*
X1260348D02*
X1263650D01*
X1256284D02*
X1259078D01*
X1238504D02*
X1244092D01*
X1295146Y1281430D02*
X1297686D01*
X1283970D02*
X1287780D01*
X1265936D02*
X1283208D01*
X1260602D02*
X1263904D01*
X1256538D02*
X1259332D01*
X1239520D02*
X1245616D01*
X1295400Y1281684D02*
X1297686D01*
X1283462D02*
X1287526D01*
X1266444D02*
X1282700D01*
X1260856D02*
X1264412D01*
X1256792D02*
X1259840D01*
X1241044D02*
X1247394D01*
X1295400Y1281938D02*
X1297686D01*
X1283208D02*
X1287272D01*
X1266952D02*
X1282192D01*
X1261364D02*
X1264920D01*
X1257046D02*
X1260094D01*
X1242314D02*
X1249680D01*
X1292098Y1282192D02*
X1297940D01*
X1282700D02*
X1287018D01*
X1267460D02*
X1281684D01*
X1261618D02*
X1265428D01*
X1257300D02*
X1260348D01*
X1243838D02*
X1252728D01*
X1291082Y1282446D02*
X1297940D01*
X1282192D02*
X1286764D01*
X1267968D02*
X1281176D01*
X1261872D02*
X1265936D01*
X1245870D02*
X1260602D01*
X1290066Y1282700D02*
X1297940D01*
X1281430D02*
X1286256D01*
X1268730D02*
X1280414D01*
X1262126D02*
X1266444D01*
X1247902D02*
X1260856D01*
X1289304Y1282954D02*
X1297940D01*
X1280922D02*
X1286002D01*
X1269492D02*
X1279652D01*
X1262634D02*
X1266952D01*
X1250696D02*
X1261110D01*
X1288542Y1283208D02*
X1297940D01*
X1280160D02*
X1285494D01*
X1270254D02*
X1278636D01*
X1262888D02*
X1267714D01*
X1256030D02*
X1261364D01*
X1287780Y1283462D02*
X1298194D01*
X1279398D02*
X1285240D01*
X1271524D02*
X1277366D01*
X1263396D02*
X1268476D01*
X1258570D02*
X1261618D01*
X1287018Y1283716D02*
X1298194D01*
X1278636D02*
X1284732D01*
X1263904D02*
X1269238D01*
X1258824D02*
X1261872D01*
X1286256Y1283970D02*
X1298448D01*
X1277366D02*
X1284224D01*
X1264158D02*
X1270508D01*
X1259078D02*
X1262380D01*
X1285748Y1284224D02*
X1298448D01*
X1275588D02*
X1283716D01*
X1264666D02*
X1272286D01*
X1259332D02*
X1262634D01*
X1294892Y1284478D02*
X1298448D01*
X1284986D02*
X1293876D01*
X1265174D02*
X1283208D01*
X1259586D02*
X1262888D01*
X1296416Y1284732D02*
X1298194D01*
X1284478D02*
X1292098D01*
X1265682D02*
X1282700D01*
X1259840D02*
X1263142D01*
X1283716Y1284986D02*
X1291336D01*
X1266444D02*
X1282192D01*
X1260094D02*
X1263650D01*
X1283208Y1285240D02*
X1290574D01*
X1266952D02*
X1281430D01*
X1260348D02*
X1263904D01*
X1282700Y1285494D02*
X1289812D01*
X1267714D02*
X1280922D01*
X1260602D02*
X1264412D01*
X1281938Y1285748D02*
X1289050D01*
X1268476D02*
X1279906D01*
X1260856D02*
X1264666D01*
X1281430Y1286002D02*
X1288288D01*
X1269492D02*
X1279144D01*
X1261110D02*
X1265174D01*
X1280668Y1286256D02*
X1287780D01*
X1270762D02*
X1277620D01*
X1261364D02*
X1265682D01*
X1279906Y1286510D02*
X1287018D01*
X1273048D02*
X1275588D01*
X1261618D02*
X1266190D01*
X1279398Y1286764D02*
X1286510D01*
X1262126D02*
X1266952D01*
X1278636Y1287018D02*
X1285748D01*
X1262380D02*
X1267460D01*
X1277874Y1287272D02*
X1285240D01*
X1262634D02*
X1268222D01*
X1276858Y1287526D02*
X1284478D01*
X1263142D02*
X1269238D01*
X1275588Y1287780D02*
X1283970D01*
X1263650D02*
X1270254D01*
X1273302Y1288034D02*
X1283462D01*
X1263904D02*
X1272286D01*
X1264412Y1288288D02*
X1282700D01*
X1264920Y1288542D02*
X1282192D01*
X1265174Y1288796D02*
X1281430D01*
X1265936Y1289050D02*
X1280922D01*
X1266444Y1289304D02*
X1280160D01*
X1266952Y1289558D02*
X1279398D01*
X1267714Y1289812D02*
X1278636D01*
X1268730Y1290066D02*
X1277620D01*
X1270000Y1290320D02*
X1276350D01*
D60*
X1181986Y935859D02*
X1179446Y938398D01*
X1174368D01*
X1171829Y935859D01*
Y925702D01*
X1174368Y923163D01*
X1179446D01*
X1181986Y925702D01*
X1187064Y923163D02*
X1192142D01*
X1189603D01*
Y938398D01*
X1187064Y935859D01*
X1209917Y938398D02*
X1199760D01*
Y930780D01*
X1204838Y933320D01*
X1207377D01*
X1209917Y930780D01*
Y925702D01*
X1207377Y923163D01*
X1202299D01*
X1199760Y925702D01*
X1381757Y1337560D02*
X1379218Y1340099D01*
X1374139D01*
X1371600Y1337560D01*
Y1327403D01*
X1374139Y1324864D01*
X1379218D01*
X1381757Y1327403D01*
X1386835Y1340099D02*
X1396992D01*
Y1337560D01*
X1386835Y1327403D01*
Y1324864D01*
X1339339Y940050D02*
X1336799Y942589D01*
X1331721D01*
X1329182Y940050D01*
Y929893D01*
X1331721Y927354D01*
X1336799D01*
X1339339Y929893D01*
X1354574Y942589D02*
X1349495Y940050D01*
X1344417Y934971D01*
Y929893D01*
X1346956Y927354D01*
X1352035D01*
X1354574Y929893D01*
Y932432D01*
X1352035Y934971D01*
X1344417D01*
X1026157Y1026156D02*
X1023617Y1028695D01*
X1018539D01*
X1016000Y1026156D01*
Y1015999D01*
X1018539Y1013460D01*
X1023617D01*
X1026157Y1015999D01*
X1031235Y1026156D02*
X1033774Y1028695D01*
X1038853D01*
X1041392Y1026156D01*
Y1023617D01*
X1038853Y1021077D01*
X1036313D01*
X1038853D01*
X1041392Y1018538D01*
Y1015999D01*
X1038853Y1013460D01*
X1033774D01*
X1031235Y1015999D01*
X1114803Y1051810D02*
X1112263Y1054349D01*
X1107185D01*
X1104646Y1051810D01*
Y1041653D01*
X1107185Y1039114D01*
X1112263D01*
X1114803Y1041653D01*
X1130038Y1054349D02*
X1119881D01*
Y1046731D01*
X1124959Y1049271D01*
X1127499D01*
X1130038Y1046731D01*
Y1041653D01*
X1127499Y1039114D01*
X1122420D01*
X1119881Y1041653D01*
X859786Y1003303D02*
X862325Y1005843D01*
Y1010921D01*
X859786Y1013460D01*
X849629D01*
X847090Y1010921D01*
Y1005843D01*
X849629Y1003303D01*
X847090Y998225D02*
Y993147D01*
Y995686D01*
X862325D01*
X859786Y998225D01*
Y985529D02*
X862325Y982990D01*
Y977912D01*
X859786Y975372D01*
X849629D01*
X847090Y977912D01*
Y982990D01*
X849629Y985529D01*
X859786D01*
X1430017Y1130296D02*
X1427478Y1132835D01*
X1422399D01*
X1419860Y1130296D01*
Y1120139D01*
X1422399Y1117600D01*
X1427478D01*
X1430017Y1120139D01*
X1435095Y1117600D02*
X1440173D01*
X1437634D01*
Y1132835D01*
X1435095Y1130296D01*
X1447791D02*
X1450330Y1132835D01*
X1455408D01*
X1457948Y1130296D01*
Y1127757D01*
X1455408Y1125218D01*
X1457948Y1122678D01*
Y1120139D01*
X1455408Y1117600D01*
X1450330D01*
X1447791Y1120139D01*
Y1122678D01*
X1450330Y1125218D01*
X1447791Y1127757D01*
Y1130296D01*
X1450330Y1125218D02*
X1455408D01*
X542290Y1276345D02*
Y1261110D01*
Y1266188D01*
X552447Y1276345D01*
X544829Y1268727D01*
X552447Y1261110D01*
X557525D02*
X562603D01*
X560064D01*
Y1276345D01*
X557525Y1273806D01*
X1460500Y867410D02*
Y882645D01*
X1465578Y877567D01*
X1470657Y882645D01*
Y867410D01*
X1475735D02*
X1480813D01*
X1478274D01*
Y882645D01*
X1475735Y880106D01*
X1386840Y1383030D02*
Y1398265D01*
X1391918Y1393187D01*
X1396997Y1398265D01*
Y1383030D01*
X1412232D02*
X1402075D01*
X1412232Y1393187D01*
Y1395726D01*
X1409693Y1398265D01*
X1404614D01*
X1402075Y1395726D01*
X526288Y1409192D02*
Y1424427D01*
X531366Y1419349D01*
X536445Y1424427D01*
Y1409192D01*
X541523Y1421888D02*
X544062Y1424427D01*
X549141D01*
X551680Y1421888D01*
Y1419349D01*
X549141Y1416810D01*
X546601D01*
X549141D01*
X551680Y1414270D01*
Y1411731D01*
X549141Y1409192D01*
X544062D01*
X541523Y1411731D01*
X526288Y865632D02*
Y880867D01*
X531366Y875789D01*
X536445Y880867D01*
Y865632D01*
X549141D02*
Y880867D01*
X541523Y873250D01*
X551680D01*
X1296670Y1388110D02*
Y1398347D01*
X1301788D01*
X1303495Y1396641D01*
Y1393228D01*
X1301788Y1391522D01*
X1296670D01*
X1300082D02*
X1303495Y1388110D01*
X1306907D02*
X1310319D01*
X1308613D01*
Y1398347D01*
X1306907Y1396641D01*
X1315437D02*
X1317143Y1398347D01*
X1320556D01*
X1322262Y1396641D01*
Y1394935D01*
X1320556Y1393228D01*
X1318849D01*
X1320556D01*
X1322262Y1391522D01*
Y1389816D01*
X1320556Y1388110D01*
X1317143D01*
X1315437Y1389816D01*
X1395727Y1066796D02*
X1393188Y1069335D01*
X1388109D01*
X1385570Y1066796D01*
Y1064257D01*
X1388109Y1061718D01*
X1393188D01*
X1395727Y1059178D01*
Y1056639D01*
X1393188Y1054100D01*
X1388109D01*
X1385570Y1056639D01*
X1400805Y1069335D02*
Y1054100D01*
X1405883Y1059178D01*
X1410962Y1054100D01*
Y1069335D01*
X1416040Y1054100D02*
X1421118D01*
X1418579D01*
Y1069335D01*
X1416040Y1066796D01*
X1090930Y1239515D02*
Y1226819D01*
X1093469Y1224280D01*
X1098548D01*
X1101087Y1226819D01*
Y1239515D01*
X1106165Y1224280D02*
X1111243D01*
X1108704D01*
Y1239515D01*
X1106165Y1236976D01*
X738378Y1178047D02*
Y1165351D01*
X740917Y1162812D01*
X745995D01*
X748535Y1165351D01*
Y1178047D01*
X761231Y1162812D02*
Y1178047D01*
X753613Y1170430D01*
X763770D01*
X1008380Y1101085D02*
X1018537Y1085850D01*
Y1101085D02*
X1008380Y1085850D01*
X1023615D02*
X1028693D01*
X1026154D01*
Y1101085D01*
X1023615Y1098546D01*
X1273815Y1322070D02*
X1289050D01*
Y1332227D01*
X1273815Y1347462D02*
Y1337305D01*
X1289050D01*
Y1347462D01*
X1281432Y1337305D02*
Y1342383D01*
X1273815Y1352540D02*
X1289050D01*
Y1360158D01*
X1286511Y1362697D01*
X1276354D01*
X1273815Y1360158D01*
Y1352540D01*
X1276354Y1367775D02*
X1273815Y1370314D01*
Y1375393D01*
X1276354Y1377932D01*
X1278893D01*
X1281432Y1375393D01*
Y1372854D01*
Y1375393D01*
X1283972Y1377932D01*
X1286511D01*
X1289050Y1375393D01*
Y1370314D01*
X1286511Y1367775D01*
X1209045Y1319530D02*
X1224280D01*
Y1329687D01*
X1209045Y1344922D02*
Y1334765D01*
X1224280D01*
Y1344922D01*
X1216663Y1334765D02*
Y1339843D01*
X1209045Y1350000D02*
X1224280D01*
Y1357618D01*
X1221741Y1360157D01*
X1211584D01*
X1209045Y1357618D01*
Y1350000D01*
X1224280Y1372853D02*
X1209045D01*
X1216663Y1365235D01*
Y1375392D01*
X1361710Y805860D02*
X1363826Y803744D01*
Y799512D01*
X1361710Y797396D01*
X1359594D01*
X1357478Y799512D01*
Y801628D01*
Y799512D01*
X1355362Y797396D01*
X1353246D01*
X1351130Y799512D01*
Y803744D01*
X1353246Y805860D01*
X1351630Y898360D02*
Y894128D01*
Y896244D01*
X1364326D01*
X1362210Y898360D01*
X1417320Y1202220D02*
Y1206452D01*
Y1204336D01*
X1404624D01*
X1406740Y1202220D01*
X1374233Y1210674D02*
X1376349Y1206442D01*
X1380581Y1202210D01*
X1384813D01*
X1386929Y1204326D01*
Y1208558D01*
X1384813Y1210674D01*
X1382697D01*
X1380581Y1208558D01*
Y1202210D01*
X1184440Y867410D02*
X1188672D01*
X1186556D01*
Y880106D01*
X1184440Y877990D01*
X1192894Y910497D02*
X1188662Y908381D01*
X1184430Y904149D01*
Y899917D01*
X1186546Y897801D01*
X1190778D01*
X1192894Y899917D01*
Y902033D01*
X1190778Y904149D01*
X1184430D01*
X1126490Y1294841D02*
X1128156Y1296507D01*
X1131488D01*
X1133155Y1294841D01*
Y1293174D01*
X1131488Y1291508D01*
X1129822D01*
X1131488D01*
X1133155Y1289842D01*
Y1288176D01*
X1131488Y1286510D01*
X1128156D01*
X1126490Y1288176D01*
X1136487Y1286510D02*
Y1288176D01*
X1138153D01*
Y1286510D01*
X1136487D01*
X1144817Y1294841D02*
X1146484Y1296507D01*
X1149816D01*
X1151482Y1294841D01*
Y1293174D01*
X1149816Y1291508D01*
X1148150D01*
X1149816D01*
X1151482Y1289842D01*
Y1288176D01*
X1149816Y1286510D01*
X1146484D01*
X1144817Y1288176D01*
X1154814Y1296507D02*
Y1289842D01*
X1158147Y1286510D01*
X1161479Y1289842D01*
Y1296507D01*
D61*
X757933Y1244342D02*
X755394Y1246881D01*
X750315D01*
X747776Y1244342D01*
Y1234185D01*
X750315Y1231646D01*
X755394D01*
X757933Y1234185D01*
X763011D02*
X765550Y1231646D01*
X770629D01*
X773168Y1234185D01*
Y1244342D01*
X770629Y1246881D01*
X765550D01*
X763011Y1244342D01*
Y1241803D01*
X765550Y1239264D01*
X773168D01*
X655573Y1224788D02*
Y1237484D01*
Y1232405D01*
X653034D01*
X658112D01*
X655573D01*
Y1237484D01*
X658112Y1240023D01*
X665730Y1234945D02*
Y1227327D01*
X668269Y1224788D01*
X675887D01*
Y1234945D01*
X680965Y1224788D02*
X688583D01*
X691122Y1227327D01*
X688583Y1229866D01*
X683504D01*
X680965Y1232405D01*
X683504Y1234945D01*
X691122D01*
X703818Y1224788D02*
X698739D01*
X696200Y1227327D01*
Y1232405D01*
X698739Y1234945D01*
X703818D01*
X706357Y1232405D01*
Y1229866D01*
X696200D01*
X711435Y1224788D02*
X716514D01*
X713974D01*
Y1240023D01*
X711435Y1237484D01*
X1109980Y1398348D02*
Y1388110D01*
Y1398348D02*
X1114368D01*
X1115830Y1397860D01*
X1116318Y1397373D01*
X1116805Y1396398D01*
Y1395423D01*
X1116318Y1394448D01*
X1115830Y1393960D01*
X1114368Y1393473D01*
X1109980D01*
X1113393D02*
X1116805Y1388110D01*
X1119097Y1396398D02*
X1120072Y1396885D01*
X1121534Y1398348D01*
Y1388110D01*
X1129529Y1398348D02*
X1128067Y1397860D01*
X1127092Y1396398D01*
X1126604Y1393960D01*
Y1392498D01*
X1127092Y1390060D01*
X1128067Y1388598D01*
X1129529Y1388110D01*
X1130504D01*
X1131967Y1388598D01*
X1132942Y1390060D01*
X1133429Y1392498D01*
Y1393960D01*
X1132942Y1396398D01*
X1131967Y1397860D01*
X1130504Y1398348D01*
X1129529D01*
X1167130Y1388110D02*
Y1398347D01*
X1172248D01*
X1173954Y1396641D01*
Y1393228D01*
X1172248Y1391522D01*
X1167130D01*
X1170542D02*
X1173954Y1388110D01*
X1177367D02*
X1180779D01*
X1179073D01*
Y1398347D01*
X1177367Y1396641D01*
X1192722Y1388110D02*
X1185897D01*
X1192722Y1394935D01*
Y1396641D01*
X1191016Y1398347D01*
X1187603D01*
X1185897Y1396641D01*
X1234440Y1389380D02*
Y1399617D01*
X1239558D01*
X1241264Y1397911D01*
Y1394498D01*
X1239558Y1392792D01*
X1234440D01*
X1237852D02*
X1241264Y1389380D01*
X1244677D02*
X1248089D01*
X1246383D01*
Y1399617D01*
X1244677Y1397911D01*
X1260032Y1399617D02*
X1253207D01*
Y1394498D01*
X1256619Y1396205D01*
X1258326D01*
X1260032Y1394498D01*
Y1391086D01*
X1258326Y1389380D01*
X1254913D01*
X1253207Y1391086D01*
D62*
X1088395Y1313180D02*
X1103630D01*
Y1323337D01*
X1088395Y1338572D02*
Y1328415D01*
X1103630D01*
Y1338572D01*
X1096012Y1328415D02*
Y1333493D01*
X1088395Y1343650D02*
X1103630D01*
Y1351268D01*
X1101091Y1353807D01*
X1090934D01*
X1088395Y1351268D01*
Y1343650D01*
X1103630Y1358885D02*
Y1363964D01*
Y1361424D01*
X1088395D01*
X1090934Y1358885D01*
X1145545Y1337310D02*
X1160780D01*
Y1347467D01*
X1145545Y1362702D02*
Y1352545D01*
X1160780D01*
Y1362702D01*
X1153163Y1352545D02*
Y1357623D01*
X1145545Y1367780D02*
X1160780D01*
Y1375398D01*
X1158241Y1377937D01*
X1148084D01*
X1145545Y1375398D01*
Y1367780D01*
X1160780Y1393172D02*
Y1383015D01*
X1150623Y1393172D01*
X1148084D01*
X1145545Y1390633D01*
Y1385554D01*
X1148084Y1383015D01*
M02*
