G04 Layer_Color=16711935*
%FSLAX44Y44*%
%MOMM*%
G71*
G01*
G75*
%ADD21C,2.0000*%
%ADD64R,0.9652X0.9652*%
%ADD72C,2.2032*%
%ADD73C,1.4732*%
%ADD74R,1.7232X1.7232*%
%ADD75C,1.7232*%
%ADD76C,3.2032*%
%ADD77R,1.7232X1.7232*%
%ADD78C,2.2032*%
%ADD79C,4.2032*%
%ADD80C,1.7272*%
%ADD81C,6.5532*%
%ADD82C,3.2032*%
%ADD83C,1.6032*%
%ADD84C,1.7032*%
%ADD85R,1.9532X0.8532*%
%ADD86R,1.9832X0.9232*%
%ADD87R,0.9652X0.9652*%
%ADD88O,2.4032X0.8032*%
%ADD89R,2.2032X2.2032*%
%ADD90R,1.8032X0.8032*%
%ADD91R,1.7032X0.9032*%
%ADD92R,2.2032X2.2032*%
G36*
X586563Y1045559D02*
X586693Y1045534D01*
X586820Y1045491D01*
X586939Y1045432D01*
X587050Y1045358D01*
X587150Y1045270D01*
X593150Y1039270D01*
X593238Y1039170D01*
X593312Y1039059D01*
X593371Y1038940D01*
X593414Y1038813D01*
X593439Y1038683D01*
X593448Y1038550D01*
Y1031550D01*
X593439Y1031417D01*
X593414Y1031286D01*
X593371Y1031160D01*
X593312Y1031041D01*
X593238Y1030930D01*
X593150Y1030830D01*
X587150Y1024830D01*
X587050Y1024742D01*
X586939Y1024668D01*
X586820Y1024609D01*
X586693Y1024566D01*
X586563Y1024540D01*
X586430Y1024532D01*
X564430D01*
X564297Y1024540D01*
X564166Y1024566D01*
X564040Y1024609D01*
X563921Y1024668D01*
X563810Y1024742D01*
X563710Y1024830D01*
X557710Y1030830D01*
X557622Y1030930D01*
X557548Y1031041D01*
X557489Y1031160D01*
X557447Y1031286D01*
X557421Y1031417D01*
X557412Y1031550D01*
Y1038550D01*
X557421Y1038683D01*
X557447Y1038813D01*
X557489Y1038940D01*
X557548Y1039059D01*
X557622Y1039170D01*
X557710Y1039270D01*
X563710Y1045270D01*
X563810Y1045358D01*
X563921Y1045432D01*
X564040Y1045491D01*
X564166Y1045534D01*
X564297Y1045559D01*
X564430Y1045568D01*
X586430D01*
X586563Y1045559D01*
D02*
G37*
D21*
X593090Y1153700D02*
X622370Y1182980D01*
D64*
X1115060Y1080770D02*
D03*
X1129030D02*
D03*
X1047750Y1109980D02*
D03*
X1061720D02*
D03*
X1115060D02*
D03*
X1101090D02*
D03*
X767080Y927100D02*
D03*
X781050D02*
D03*
X641350Y1050290D02*
D03*
X655320D02*
D03*
X1010920Y1178560D02*
D03*
X996950D02*
D03*
Y1205230D02*
D03*
X1010920D02*
D03*
X995680Y1238250D02*
D03*
X1009650D02*
D03*
X1139190Y1250950D02*
D03*
X1153160D02*
D03*
X1197610Y1174750D02*
D03*
X1211580D02*
D03*
D72*
X697230Y1114740D02*
Y1174750D01*
X630110Y1315720D02*
X716280D01*
X547370Y1232980D02*
X630110Y1315720D01*
X593090Y1088710D02*
Y1153700D01*
X667900Y965200D02*
X695960Y993260D01*
X667900Y910710D02*
X728980Y849630D01*
D73*
X1338030Y788360D02*
D03*
Y908360D02*
D03*
D74*
X1357630Y878360D02*
D03*
X1410820Y1222220D02*
D03*
D75*
X1357630Y848360D02*
D03*
Y818360D02*
D03*
X1410820Y1252220D02*
D03*
Y1282220D02*
D03*
X1380820D02*
D03*
Y1252220D02*
D03*
Y1222220D02*
D03*
X1234440Y873910D02*
D03*
X1264440D02*
D03*
Y903910D02*
D03*
X1234440D02*
D03*
X1204440D02*
D03*
D76*
X1453819Y1252220D02*
D03*
X1234440Y830910D02*
D03*
D77*
X1204440Y873910D02*
D03*
D78*
X622370Y1182980D02*
D03*
X547370Y1232980D02*
D03*
Y1132980D02*
D03*
X622370D02*
D03*
Y982980D02*
D03*
X547370D02*
D03*
Y1182980D02*
D03*
X622370Y1232980D02*
D03*
D79*
X1014730Y1313180D02*
D03*
X938530D02*
D03*
Y1363980D02*
D03*
X1014730D02*
D03*
X976630Y1339850D02*
D03*
X716280Y1366520D02*
D03*
X792480D02*
D03*
Y1315720D02*
D03*
X716280D02*
D03*
X754380Y1339850D02*
D03*
X805180Y798830D02*
D03*
X728980D02*
D03*
Y849630D02*
D03*
X805180D02*
D03*
X767080Y825500D02*
D03*
X1043940Y798830D02*
D03*
X967740D02*
D03*
Y849630D02*
D03*
X1043940D02*
D03*
X1005840Y825500D02*
D03*
D80*
X1432560Y845887D02*
D03*
X1460500D02*
D03*
X1474470Y821690D02*
D03*
X1460500Y797493D02*
D03*
X1432560D02*
D03*
X1418590Y821690D02*
D03*
X1438910Y1386907D02*
D03*
X1466850D02*
D03*
X1480820Y1362710D02*
D03*
X1466850Y1338513D02*
D03*
X1438910D02*
D03*
X1424940Y1362710D02*
D03*
X548640Y1386907D02*
D03*
X576580D02*
D03*
X590550Y1362710D02*
D03*
X576580Y1338513D02*
D03*
X548640D02*
D03*
X534670Y1362710D02*
D03*
X548640Y843347D02*
D03*
X576580D02*
D03*
X590550Y819150D02*
D03*
X576580Y794953D02*
D03*
X548640D02*
D03*
X534670Y819150D02*
D03*
D81*
X1446530Y821690D02*
D03*
X1452880Y1362710D02*
D03*
X562610D02*
D03*
Y819150D02*
D03*
D82*
X697230Y1174750D02*
D03*
X695960Y1023620D02*
D03*
D83*
X770890Y1117600D02*
D03*
Y1092200D02*
D03*
Y1066800D02*
D03*
D84*
X1281430Y915670D02*
D03*
X914400Y1050290D02*
D03*
X1071880Y1090930D02*
D03*
X1090930Y1089660D02*
D03*
X1108710Y1094740D02*
D03*
X1149350Y1108710D02*
D03*
X1131570Y1097280D02*
D03*
X1087120Y1055370D02*
D03*
X1106170Y1057910D02*
D03*
X1169090Y1112210D02*
D03*
X1178560Y1174750D02*
D03*
X1283970Y1235710D02*
D03*
X1192530Y1156970D02*
D03*
X1181100Y1131570D02*
D03*
X1195070Y1221740D02*
D03*
X1139190Y1234440D02*
D03*
X1160780Y1216660D02*
D03*
X1240790Y1144270D02*
D03*
X1123950Y1158240D02*
D03*
X1101090Y1003300D02*
D03*
X1115060Y1291590D02*
D03*
X1023620Y1165860D02*
D03*
X1047910Y1127920D02*
D03*
X972820Y1003300D02*
D03*
X866140Y961390D02*
D03*
D85*
X667900Y965200D02*
D03*
X723900D02*
D03*
Y952500D02*
D03*
Y939800D02*
D03*
Y927100D02*
D03*
X667900D02*
D03*
Y939800D02*
D03*
Y952500D02*
D03*
D86*
X901700Y977900D02*
D03*
Y990600D02*
D03*
Y1003300D02*
D03*
Y1016000D02*
D03*
X948500D02*
D03*
Y1003300D02*
D03*
Y990600D02*
D03*
Y977900D02*
D03*
D87*
X1024890Y1016000D02*
D03*
Y1029970D02*
D03*
X1059180Y1016000D02*
D03*
Y1029970D02*
D03*
X1088390D02*
D03*
Y1016000D02*
D03*
X1022350Y1127760D02*
D03*
Y1141730D02*
D03*
X996950Y1127760D02*
D03*
Y1141730D02*
D03*
X1306830Y1016000D02*
D03*
Y1029970D02*
D03*
X1276350Y1016000D02*
D03*
Y1029970D02*
D03*
X1239520D02*
D03*
Y1016000D02*
D03*
X1308100Y990600D02*
D03*
Y976630D02*
D03*
X1276350Y990600D02*
D03*
Y976630D02*
D03*
X1240790D02*
D03*
Y990600D02*
D03*
X1087120Y976630D02*
D03*
Y990600D02*
D03*
X1059180D02*
D03*
Y976630D02*
D03*
X1024890Y990600D02*
D03*
Y976630D02*
D03*
D88*
X1191130Y1041400D02*
D03*
Y1028700D02*
D03*
Y1016000D02*
D03*
Y1003300D02*
D03*
Y990600D02*
D03*
Y977900D02*
D03*
Y965200D02*
D03*
X1143130Y1041400D02*
D03*
Y1028700D02*
D03*
Y1016000D02*
D03*
Y1003300D02*
D03*
Y990600D02*
D03*
Y977900D02*
D03*
Y965200D02*
D03*
D89*
X695960Y1073470D02*
D03*
Y1113470D02*
D03*
D90*
X599430Y1020050D02*
D03*
Y1050050D02*
D03*
D91*
X599930Y1035050D02*
D03*
D92*
X551500Y1087120D02*
D03*
X591500D02*
D03*
M02*
