G04 Layer_Color=8388736*
%FSLAX44Y44*%
%MOMM*%
G71*
G01*
G75*
%ADD63C,2.2040*%
%ADD64R,0.9652X0.9652*%
%ADD65O,0.7532X1.8532*%
%ADD66O,1.8532X0.7532*%
%ADD67R,6.2992X1.4032*%
%ADD68R,2.7432X1.4732*%
%ADD69O,2.7432X1.4732*%
%ADD70R,1.0032X1.0032*%
%ADD71R,3.7032X1.8032*%
%ADD72C,2.2032*%
%ADD73C,1.4732*%
%ADD74R,1.7232X1.7232*%
%ADD75C,1.7232*%
%ADD76C,3.2032*%
%ADD77R,1.7232X1.7232*%
%ADD78C,2.2032*%
%ADD79C,4.2032*%
%ADD80C,1.7272*%
%ADD81C,6.5532*%
%ADD82C,3.2032*%
%ADD83C,1.6032*%
%ADD84C,1.7032*%
D63*
X590620Y1154500D02*
X619100Y1182980D01*
D64*
X1435100Y1102360D02*
D03*
X1449070D02*
D03*
X1129030Y1377950D02*
D03*
X1115060D02*
D03*
X1186180D02*
D03*
X1172210D02*
D03*
X1252220D02*
D03*
X1238250D02*
D03*
X1315720D02*
D03*
X1301750D02*
D03*
X1064260Y1024890D02*
D03*
X1078230D02*
D03*
X1122680D02*
D03*
X1108710D02*
D03*
D65*
X1083250Y1127920D02*
D03*
X1091250D02*
D03*
X1099250D02*
D03*
X1107250D02*
D03*
X1115250D02*
D03*
X1123250D02*
D03*
X1131250D02*
D03*
X1139250D02*
D03*
Y1211420D02*
D03*
X1131250D02*
D03*
X1123250D02*
D03*
X1115250D02*
D03*
X1107250D02*
D03*
X1099250D02*
D03*
X1091250D02*
D03*
X1083250D02*
D03*
D66*
X1153000Y1141670D02*
D03*
Y1149670D02*
D03*
Y1157670D02*
D03*
Y1165670D02*
D03*
Y1173670D02*
D03*
Y1181670D02*
D03*
Y1189670D02*
D03*
Y1197670D02*
D03*
X1069500D02*
D03*
Y1189670D02*
D03*
Y1181670D02*
D03*
Y1173670D02*
D03*
Y1165670D02*
D03*
Y1157670D02*
D03*
Y1149670D02*
D03*
Y1141670D02*
D03*
D67*
X1145540Y1057910D02*
D03*
X1046480D02*
D03*
D68*
X1451610Y991870D02*
D03*
D69*
X1384300D02*
D03*
X1451610Y1031240D02*
D03*
X1384300D02*
D03*
D70*
X1172210Y1310260D02*
D03*
Y1326260D02*
D03*
X1115060Y1310260D02*
D03*
Y1326260D02*
D03*
X1238250Y1324230D02*
D03*
Y1340230D02*
D03*
X1301750Y1329310D02*
D03*
Y1345310D02*
D03*
D71*
X821750Y991870D02*
D03*
X765750D02*
D03*
Y1191260D02*
D03*
X821750D02*
D03*
D72*
X590620Y1014730D02*
X618490Y986860D01*
X590620Y1014730D02*
Y1154500D01*
D73*
X1338030Y788360D02*
D03*
Y908360D02*
D03*
D74*
X1357630Y878360D02*
D03*
X1410820Y1222220D02*
D03*
D75*
X1357630Y848360D02*
D03*
Y818360D02*
D03*
X1410820Y1252220D02*
D03*
Y1282220D02*
D03*
X1380820D02*
D03*
Y1252220D02*
D03*
Y1222220D02*
D03*
X1234440Y873910D02*
D03*
X1264440D02*
D03*
Y903910D02*
D03*
X1234440D02*
D03*
X1204440D02*
D03*
D76*
X1453819Y1252220D02*
D03*
X1234440Y830910D02*
D03*
D77*
X1204440Y873910D02*
D03*
D78*
X622370Y1182980D02*
D03*
X547370Y1232980D02*
D03*
Y1132980D02*
D03*
X622370D02*
D03*
Y982980D02*
D03*
X547370D02*
D03*
Y1182980D02*
D03*
X622370Y1232980D02*
D03*
D79*
X1014730Y1313180D02*
D03*
X938530D02*
D03*
Y1363980D02*
D03*
X1014730D02*
D03*
X976630Y1339850D02*
D03*
X716280Y1366520D02*
D03*
X792480D02*
D03*
Y1315720D02*
D03*
X716280D02*
D03*
X754380Y1339850D02*
D03*
X805180Y798830D02*
D03*
X728980D02*
D03*
Y849630D02*
D03*
X805180D02*
D03*
X767080Y825500D02*
D03*
X1043940Y798830D02*
D03*
X967740D02*
D03*
Y849630D02*
D03*
X1043940D02*
D03*
X1005840Y825500D02*
D03*
D80*
X1432560Y845887D02*
D03*
X1460500D02*
D03*
X1474470Y821690D02*
D03*
X1460500Y797493D02*
D03*
X1432560D02*
D03*
X1418590Y821690D02*
D03*
X1438910Y1386907D02*
D03*
X1466850D02*
D03*
X1480820Y1362710D02*
D03*
X1466850Y1338513D02*
D03*
X1438910D02*
D03*
X1424940Y1362710D02*
D03*
X548640Y1386907D02*
D03*
X576580D02*
D03*
X590550Y1362710D02*
D03*
X576580Y1338513D02*
D03*
X548640D02*
D03*
X534670Y1362710D02*
D03*
X548640Y843347D02*
D03*
X576580D02*
D03*
X590550Y819150D02*
D03*
X576580Y794953D02*
D03*
X548640D02*
D03*
X534670Y819150D02*
D03*
D81*
X1446530Y821690D02*
D03*
X1452880Y1362710D02*
D03*
X562610D02*
D03*
Y819150D02*
D03*
D82*
X697230Y1174750D02*
D03*
X695960Y1023620D02*
D03*
D83*
X770890Y1117600D02*
D03*
Y1092200D02*
D03*
Y1066800D02*
D03*
D84*
X1281430Y915670D02*
D03*
X914400Y1050290D02*
D03*
X1071880Y1090930D02*
D03*
X1090930Y1089660D02*
D03*
X1108710Y1094740D02*
D03*
X1149350Y1108710D02*
D03*
X1131570Y1097280D02*
D03*
X1087120Y1055370D02*
D03*
X1106170Y1057910D02*
D03*
X1169090Y1112210D02*
D03*
X1178560Y1174750D02*
D03*
X1283970Y1235710D02*
D03*
X1192530Y1156970D02*
D03*
X1181100Y1131570D02*
D03*
X1195070Y1221740D02*
D03*
X1139190Y1234440D02*
D03*
X1160780Y1216660D02*
D03*
X1240790Y1144270D02*
D03*
X1123950Y1158240D02*
D03*
X1101090Y1003300D02*
D03*
X1115060Y1291590D02*
D03*
X1023620Y1165860D02*
D03*
X1047910Y1127920D02*
D03*
X972820Y1003300D02*
D03*
X866140Y961390D02*
D03*
M02*
