G04 Layer_Physical_Order=2*
G04 Layer_Color=32768*
%FSLAX44Y44*%
%MOMM*%
G71*
G01*
G75*
%ADD35C,1.0160*%
%ADD36C,2.2860*%
%ADD37C,2.0360*%
%ADD38C,4.0160*%
%ADD39C,2.2160*%
%ADD40C,3.0160*%
%ADD41C,2.9160*%
%ADD42C,1.7780*%
%ADD43C,4.1160*%
%ADD44C,2.4160*%
%ADD45C,1.9160*%
G36*
X1508000Y762000D02*
X508000D01*
Y1418000D01*
X1508000D01*
Y762000D01*
D02*
G37*
D35*
X508000D02*
Y1418000D01*
X1508000D01*
Y762000D02*
Y1418000D01*
X508000Y762000D02*
X1508000D01*
D36*
X1338030Y788360D02*
D03*
Y908360D02*
D03*
D37*
X1357630Y878360D02*
D03*
Y848360D02*
D03*
Y818360D02*
D03*
X1410820Y1222220D02*
D03*
Y1252220D02*
D03*
Y1282220D02*
D03*
X1380820D02*
D03*
Y1252220D02*
D03*
Y1222220D02*
D03*
X1204440Y873910D02*
D03*
X1234440D02*
D03*
X1264440D02*
D03*
Y903910D02*
D03*
X1234440D02*
D03*
X1204440D02*
D03*
D38*
X1453819Y1252220D02*
D03*
X1234440Y830910D02*
D03*
D39*
X622370Y1182980D02*
D03*
X547370Y1232980D02*
D03*
Y1132980D02*
D03*
X622370D02*
D03*
Y982980D02*
D03*
X547370D02*
D03*
Y1182980D02*
D03*
X622370Y1232980D02*
D03*
D40*
X1014730Y1313180D02*
D03*
X938530D02*
D03*
Y1363980D02*
D03*
X976630Y1339850D02*
D03*
X716280Y1366520D02*
D03*
X792480D02*
D03*
Y1315720D02*
D03*
X754380Y1339850D02*
D03*
X805180Y798830D02*
D03*
X728980D02*
D03*
Y849630D02*
D03*
X767080Y825500D02*
D03*
X1043940Y798830D02*
D03*
X967740D02*
D03*
Y849630D02*
D03*
X1005840Y825500D02*
D03*
D41*
X1014730Y1363980D02*
D03*
X716280Y1315720D02*
D03*
X805180Y849630D02*
D03*
X1043940D02*
D03*
D42*
X1432560Y845887D02*
D03*
X1460500D02*
D03*
X1474470Y821690D02*
D03*
X1460500Y797493D02*
D03*
X1432560D02*
D03*
X1418590Y821690D02*
D03*
X1438910Y1386907D02*
D03*
X1466850D02*
D03*
X1480820Y1362710D02*
D03*
X1466850Y1338513D02*
D03*
X1438910D02*
D03*
X1424940Y1362710D02*
D03*
X548640Y1386907D02*
D03*
X576580D02*
D03*
X590550Y1362710D02*
D03*
X576580Y1338513D02*
D03*
X548640D02*
D03*
X534670Y1362710D02*
D03*
X548640Y843347D02*
D03*
X576580D02*
D03*
X590550Y819150D02*
D03*
X576580Y794953D02*
D03*
X548640D02*
D03*
X534670Y819150D02*
D03*
D43*
X1446530Y821690D02*
D03*
X1452880Y1362710D02*
D03*
X562610D02*
D03*
Y819150D02*
D03*
D44*
X697230Y1174750D02*
D03*
X695960Y1023620D02*
D03*
D45*
X770890Y1117600D02*
D03*
Y1092200D02*
D03*
Y1066800D02*
D03*
M02*
