G04 Layer_Color=8421504*
%FSLAX44Y44*%
%MOMM*%
G71*
G01*
G75*
%ADD10R,0.7620X0.7620*%
%ADD11O,0.5500X1.6500*%
%ADD12O,1.6500X0.5500*%
%ADD13R,6.0960X1.2000*%
%ADD14R,2.5400X1.2700*%
%ADD15O,2.5400X1.2700*%
%ADD16R,0.8000X0.8000*%
%ADD17R,3.5000X1.6000*%
%ADD63C,2.2040*%
D10*
X1435100Y1102360D02*
D03*
X1449070D02*
D03*
X1129030Y1377950D02*
D03*
X1115060D02*
D03*
X1186180D02*
D03*
X1172210D02*
D03*
X1252220D02*
D03*
X1238250D02*
D03*
X1315720D02*
D03*
X1301750D02*
D03*
X1064260Y1024890D02*
D03*
X1078230D02*
D03*
X1122680D02*
D03*
X1108710D02*
D03*
D11*
X1083250Y1127920D02*
D03*
X1091250D02*
D03*
X1099250D02*
D03*
X1107250D02*
D03*
X1115250D02*
D03*
X1123250D02*
D03*
X1131250D02*
D03*
X1139250D02*
D03*
Y1211420D02*
D03*
X1131250D02*
D03*
X1123250D02*
D03*
X1115250D02*
D03*
X1107250D02*
D03*
X1099250D02*
D03*
X1091250D02*
D03*
X1083250D02*
D03*
D12*
X1153000Y1141670D02*
D03*
Y1149670D02*
D03*
Y1157670D02*
D03*
Y1165670D02*
D03*
Y1173670D02*
D03*
Y1181670D02*
D03*
Y1189670D02*
D03*
Y1197670D02*
D03*
X1069500D02*
D03*
Y1189670D02*
D03*
Y1181670D02*
D03*
Y1173670D02*
D03*
Y1165670D02*
D03*
Y1157670D02*
D03*
Y1149670D02*
D03*
Y1141670D02*
D03*
D13*
X1145540Y1057910D02*
D03*
X1046480D02*
D03*
D14*
X1451610Y991870D02*
D03*
D15*
X1384300D02*
D03*
X1451610Y1031240D02*
D03*
X1384300D02*
D03*
D16*
X1172210Y1310260D02*
D03*
Y1326260D02*
D03*
X1115060Y1310260D02*
D03*
Y1326260D02*
D03*
X1238250Y1324230D02*
D03*
Y1340230D02*
D03*
X1301750Y1329310D02*
D03*
Y1345310D02*
D03*
D17*
X821750Y991870D02*
D03*
X765750D02*
D03*
Y1191260D02*
D03*
X821750D02*
D03*
D63*
X697230Y1148080D02*
Y1174750D01*
X652780Y1103630D02*
X697230Y1148080D01*
X637540Y1103630D02*
X652780D01*
X618490Y1084580D02*
X637540Y1103630D01*
X618490Y986860D02*
Y1084580D01*
X590620Y1154500D02*
X619100Y1182980D01*
X590620Y1014730D02*
X618490Y986860D01*
X590620Y1014730D02*
Y1154500D01*
M02*
