G04 Layer_Color=32896*
%FSLAX44Y44*%
%MOMM*%
G71*
G01*
G75*
%ADD18C,0.2500*%
%ADD19C,0.2000*%
%ADD55C,0.1270*%
%ADD60C,0.2540*%
%ADD61C,0.1540*%
%ADD94C,0.4000*%
%ADD95R,2.6000X0.7778*%
%ADD96R,0.7778X2.6000*%
D18*
X1144380Y956700D02*
G03*
X1144380Y956700I-1250J0D01*
G01*
X697210Y1057970D02*
G03*
X697210Y1057970I-1250J0D01*
G01*
X604500Y1057910D02*
G03*
X604500Y1057910I-1250J0D01*
G01*
X608250Y1087120D02*
G03*
X608250Y1087120I-1250J0D01*
G01*
D19*
X1158130Y1046800D02*
X1176130D01*
X1158130Y959800D02*
X1176130D01*
Y1046800D01*
X1158130Y959800D02*
Y1046800D01*
X682960Y1087470D02*
Y1100820D01*
Y1087470D02*
X708960D01*
Y1100820D01*
X568430Y1012050D02*
Y1021550D01*
Y1012050D02*
X594430D01*
X568430Y1048550D02*
Y1058050D01*
X594430D01*
X564150Y1100120D02*
X577500D01*
Y1074120D02*
Y1100120D01*
X564150Y1074120D02*
X577500D01*
D55*
X1030732Y1010158D02*
Y1035812D01*
X1019048Y1010158D02*
Y1035812D01*
X1030732D01*
X1019048Y1010158D02*
X1030732D01*
X1053338Y1035812D02*
X1065022D01*
X1053338Y1010158D02*
X1065022D01*
Y1035812D01*
X1053338Y1010158D02*
Y1035812D01*
X1082548Y1010158D02*
Y1035812D01*
X1094232Y1010158D02*
Y1035812D01*
X1082548Y1010158D02*
X1094232D01*
X1082548Y1035812D02*
X1094232D01*
X1109218Y1074928D02*
X1134872D01*
X1109218Y1086612D02*
X1134872D01*
Y1074928D02*
Y1086612D01*
X1109218Y1074928D02*
Y1086612D01*
X1028192Y1121918D02*
Y1147572D01*
X1016508Y1121918D02*
Y1147572D01*
X1028192D01*
X1016508Y1121918D02*
X1028192D01*
X1002792D02*
Y1147572D01*
X991108Y1121918D02*
Y1147572D01*
X1002792D01*
X991108Y1121918D02*
X1002792D01*
X1067562Y1104138D02*
Y1115822D01*
X1041908Y1104138D02*
Y1115822D01*
Y1104138D02*
X1067562D01*
X1041908Y1115822D02*
X1067562D01*
X1095248D02*
X1120902D01*
X1095248Y1104138D02*
X1120902D01*
X1095248D02*
Y1115822D01*
X1120902Y1104138D02*
Y1115822D01*
X761238Y921258D02*
X786892D01*
X761238Y932942D02*
X786892D01*
Y921258D02*
Y932942D01*
X761238Y921258D02*
Y932942D01*
X661162Y1044448D02*
Y1056132D01*
X635508Y1044448D02*
Y1056132D01*
Y1044448D02*
X661162D01*
X635508Y1056132D02*
X661162D01*
X991108Y1172718D02*
Y1184402D01*
X1016762Y1172718D02*
Y1184402D01*
X991108D02*
X1016762D01*
X991108Y1172718D02*
X1016762D01*
Y1199388D02*
Y1211072D01*
X991108Y1199388D02*
Y1211072D01*
Y1199388D02*
X1016762D01*
X991108Y1211072D02*
X1016762D01*
X989838Y1232408D02*
X1015492D01*
X989838Y1244092D02*
X1015492D01*
Y1232408D02*
Y1244092D01*
X989838Y1232408D02*
Y1244092D01*
X1133348Y1245108D02*
X1159002D01*
X1133348Y1256792D02*
X1159002D01*
Y1245108D02*
Y1256792D01*
X1133348Y1245108D02*
Y1256792D01*
X1191768Y1168908D02*
X1217422D01*
X1191768Y1180592D02*
X1217422D01*
Y1168908D02*
Y1180592D01*
X1191768Y1168908D02*
Y1180592D01*
X1300988Y1035812D02*
X1312672D01*
X1300988Y1010158D02*
X1312672D01*
Y1035812D01*
X1300988Y1010158D02*
Y1035812D01*
X1282192Y1010158D02*
Y1035812D01*
X1270508Y1010158D02*
Y1035812D01*
X1282192D01*
X1270508Y1010158D02*
X1282192D01*
X1233678D02*
Y1035812D01*
X1245362Y1010158D02*
Y1035812D01*
X1233678Y1010158D02*
X1245362D01*
X1233678Y1035812D02*
X1245362D01*
X1302258Y970788D02*
X1313942D01*
X1302258Y996442D02*
X1313942D01*
X1302258Y970788D02*
Y996442D01*
X1313942Y970788D02*
Y996442D01*
X1270508Y970788D02*
Y996442D01*
X1282192Y970788D02*
Y996442D01*
X1270508Y970788D02*
X1282192D01*
X1270508Y996442D02*
X1282192D01*
X1246632Y970788D02*
Y996442D01*
X1234948Y970788D02*
Y996442D01*
X1246632D01*
X1234948Y970788D02*
X1246632D01*
X1092962D02*
Y996442D01*
X1081278Y970788D02*
Y996442D01*
X1092962D01*
X1081278Y970788D02*
X1092962D01*
X1053338D02*
X1065022D01*
X1053338Y996442D02*
X1065022D01*
X1053338Y970788D02*
Y996442D01*
X1065022Y970788D02*
Y996442D01*
X1019048Y970788D02*
Y996442D01*
X1030732Y970788D02*
Y996442D01*
X1019048Y970788D02*
X1030732D01*
X1019048Y996442D02*
X1030732D01*
D60*
X656590Y920750D02*
G03*
X656590Y920750I-1270J0D01*
G01*
X654050Y915670D02*
X740410D01*
X650240Y919480D02*
X654050Y915670D01*
X650240Y919480D02*
Y974090D01*
X654050Y977900D01*
X740410D01*
X742950Y975360D01*
Y918210D02*
Y975360D01*
X740410Y915670D02*
X742950Y918210D01*
D61*
X706120Y1146805D02*
Y1131570D01*
X698503D01*
X695963Y1134109D01*
Y1144266D01*
X698503Y1146805D01*
X706120D01*
X690885Y1131570D02*
X685807D01*
X688346D01*
Y1146805D01*
X690885Y1144266D01*
X715010Y998216D02*
X704853Y988059D01*
X715010D02*
X704853Y998216D01*
X715010Y993138D02*
X704853D01*
X709932Y988059D02*
Y998216D01*
X699775Y985520D02*
X694697D01*
X697236D01*
Y1000755D01*
X699775Y998216D01*
X803913Y932176D02*
X806452Y934715D01*
X811531D01*
X814070Y932176D01*
Y922019D01*
X811531Y919480D01*
X806452D01*
X803913Y922019D01*
X798835Y919480D02*
X793757D01*
X796296D01*
Y934715D01*
X798835Y932176D01*
X1209043Y1198876D02*
X1211582Y1201415D01*
X1216661D01*
X1219200Y1198876D01*
Y1188719D01*
X1216661Y1186180D01*
X1211582D01*
X1209043Y1188719D01*
X1193808Y1186180D02*
X1203965D01*
X1193808Y1196337D01*
Y1198876D01*
X1196347Y1201415D01*
X1201426D01*
X1203965Y1198876D01*
X1016004Y1107443D02*
X1013465Y1109983D01*
Y1115061D01*
X1016004Y1117600D01*
X1026161D01*
X1028700Y1115061D01*
Y1109983D01*
X1026161Y1107443D01*
X1028700Y1102365D02*
Y1097287D01*
Y1099826D01*
X1013465D01*
X1016004Y1102365D01*
X1028700Y1089669D02*
Y1084591D01*
Y1087130D01*
X1013465D01*
X1016004Y1089669D01*
X1158243Y1277616D02*
X1160782Y1280155D01*
X1165861D01*
X1168400Y1277616D01*
Y1267459D01*
X1165861Y1264920D01*
X1160782D01*
X1158243Y1267459D01*
X1153165Y1264920D02*
X1148087D01*
X1150626D01*
Y1280155D01*
X1153165Y1277616D01*
X1130312Y1264920D02*
X1140469D01*
X1130312Y1275077D01*
Y1277616D01*
X1132851Y1280155D01*
X1137930D01*
X1140469Y1277616D01*
X990604Y1107443D02*
X988065Y1109983D01*
Y1115061D01*
X990604Y1117600D01*
X1000761D01*
X1003300Y1115061D01*
Y1109983D01*
X1000761Y1107443D01*
X1003300Y1102365D02*
Y1097287D01*
Y1099826D01*
X988065D01*
X990604Y1102365D01*
Y1089669D02*
X988065Y1087130D01*
Y1082051D01*
X990604Y1079512D01*
X993143D01*
X995683Y1082051D01*
Y1084591D01*
Y1082051D01*
X998222Y1079512D01*
X1000761D01*
X1003300Y1082051D01*
Y1087130D01*
X1000761Y1089669D01*
X1113793Y1132836D02*
X1116332Y1135375D01*
X1121411D01*
X1123950Y1132836D01*
Y1122679D01*
X1121411Y1120140D01*
X1116332D01*
X1113793Y1122679D01*
X1108715Y1120140D02*
X1103637D01*
X1106176D01*
Y1135375D01*
X1108715Y1132836D01*
X1085862Y1135375D02*
X1090941Y1132836D01*
X1096019Y1127757D01*
Y1122679D01*
X1093480Y1120140D01*
X1088401D01*
X1085862Y1122679D01*
Y1125218D01*
X1088401Y1127757D01*
X1096019D01*
X1121406Y1045207D02*
X1123945Y1042667D01*
Y1037589D01*
X1121406Y1035050D01*
X1111249D01*
X1108710Y1037589D01*
Y1042667D01*
X1111249Y1045207D01*
X1108710Y1050285D02*
Y1055363D01*
Y1052824D01*
X1123945D01*
X1121406Y1050285D01*
X1123945Y1062981D02*
Y1073138D01*
X1121406D01*
X1111249Y1062981D01*
X1108710D01*
X1026163Y963926D02*
X1028702Y966465D01*
X1033781D01*
X1036320Y963926D01*
Y953769D01*
X1033781Y951230D01*
X1028702D01*
X1026163Y953769D01*
X1013467Y951230D02*
Y966465D01*
X1021085Y958848D01*
X1010928D01*
X1024893Y1051556D02*
X1027432Y1054095D01*
X1032511D01*
X1035050Y1051556D01*
Y1041399D01*
X1032511Y1038860D01*
X1027432D01*
X1024893Y1041399D01*
X1019815Y1051556D02*
X1017276Y1054095D01*
X1012197D01*
X1009658Y1051556D01*
Y1049017D01*
X1012197Y1046478D01*
X1009658Y1043938D01*
Y1041399D01*
X1012197Y1038860D01*
X1017276D01*
X1019815Y1041399D01*
Y1043938D01*
X1017276Y1046478D01*
X1019815Y1049017D01*
Y1051556D01*
X1017276Y1046478D02*
X1012197D01*
X1281426Y1051557D02*
X1283965Y1049017D01*
Y1043939D01*
X1281426Y1041400D01*
X1271269D01*
X1268730Y1043939D01*
Y1049017D01*
X1271269Y1051557D01*
X1268730Y1056635D02*
Y1061713D01*
Y1059174D01*
X1283965D01*
X1281426Y1056635D01*
X1268730Y1076948D02*
X1283965D01*
X1276348Y1069331D01*
Y1079488D01*
X1281426Y938527D02*
X1283965Y935987D01*
Y930909D01*
X1281426Y928370D01*
X1271269D01*
X1268730Y930909D01*
Y935987D01*
X1271269Y938527D01*
X1268730Y943605D02*
Y948683D01*
Y946144D01*
X1283965D01*
X1281426Y943605D01*
X1271269Y956301D02*
X1268730Y958840D01*
Y963919D01*
X1271269Y966458D01*
X1281426D01*
X1283965Y963919D01*
Y958840D01*
X1281426Y956301D01*
X1278887D01*
X1276348Y958840D01*
Y966458D01*
X584200Y1120135D02*
Y1104900D01*
X576582D01*
X574043Y1107439D01*
Y1117596D01*
X576582Y1120135D01*
X584200D01*
X558808Y1104900D02*
X568965D01*
X558808Y1115057D01*
Y1117596D01*
X561347Y1120135D01*
X566426D01*
X568965Y1117596D01*
X1065530Y1085850D02*
Y1101085D01*
X1057913D01*
X1055373Y1098546D01*
Y1093467D01*
X1057913Y1090928D01*
X1065530D01*
X1060452D02*
X1055373Y1085850D01*
X1050295Y1088389D02*
X1047756Y1085850D01*
X1042677D01*
X1040138Y1088389D01*
Y1098546D01*
X1042677Y1101085D01*
X1047756D01*
X1050295Y1098546D01*
Y1096007D01*
X1047756Y1093467D01*
X1040138D01*
X1097280Y951230D02*
Y966465D01*
X1089662D01*
X1087123Y963926D01*
Y958848D01*
X1089662Y956308D01*
X1097280D01*
X1092202D02*
X1087123Y951230D01*
X1082045D02*
X1076967D01*
X1079506D01*
Y966465D01*
X1082045Y963926D01*
X984250Y1173480D02*
Y1188715D01*
X976633D01*
X974093Y1186176D01*
Y1181097D01*
X976633Y1178558D01*
X984250D01*
X979172D02*
X974093Y1173480D01*
X958858D02*
X969015D01*
X958858Y1183637D01*
Y1186176D01*
X961397Y1188715D01*
X966476D01*
X969015Y1186176D01*
X984250Y1198880D02*
Y1214115D01*
X976633D01*
X974093Y1211576D01*
Y1206497D01*
X976633Y1203958D01*
X984250D01*
X979172D02*
X974093Y1198880D01*
X969015Y1211576D02*
X966476Y1214115D01*
X961397D01*
X958858Y1211576D01*
Y1209037D01*
X961397Y1206497D01*
X963937D01*
X961397D01*
X958858Y1203958D01*
Y1201419D01*
X961397Y1198880D01*
X966476D01*
X969015Y1201419D01*
X982980Y1229360D02*
Y1244595D01*
X975362D01*
X972823Y1242056D01*
Y1236977D01*
X975362Y1234438D01*
X982980D01*
X977902D02*
X972823Y1229360D01*
X960127D02*
Y1244595D01*
X967745Y1236977D01*
X957588D01*
X1070610Y951230D02*
Y966465D01*
X1062992D01*
X1060453Y963926D01*
Y958848D01*
X1062992Y956308D01*
X1070610D01*
X1065532D02*
X1060453Y951230D01*
X1045218Y966465D02*
X1055375D01*
Y958848D01*
X1050297Y961387D01*
X1047757D01*
X1045218Y958848D01*
Y953769D01*
X1047757Y951230D01*
X1052836D01*
X1055375Y953769D01*
X1098550Y1037590D02*
Y1052825D01*
X1090932D01*
X1088393Y1050286D01*
Y1045208D01*
X1090932Y1042668D01*
X1098550D01*
X1093472D02*
X1088393Y1037590D01*
X1073158Y1052825D02*
X1078237Y1050286D01*
X1083315Y1045208D01*
Y1040129D01*
X1080776Y1037590D01*
X1075697D01*
X1073158Y1040129D01*
Y1042668D01*
X1075697Y1045208D01*
X1083315D01*
X1065530Y1038860D02*
Y1054095D01*
X1057913D01*
X1055373Y1051556D01*
Y1046478D01*
X1057913Y1043938D01*
X1065530D01*
X1060452D02*
X1055373Y1038860D01*
X1050295Y1054095D02*
X1040138D01*
Y1051556D01*
X1050295Y1041399D01*
Y1038860D01*
X1231900Y1045210D02*
X1247135D01*
Y1052828D01*
X1244596Y1055367D01*
X1239518D01*
X1236978Y1052828D01*
Y1045210D01*
Y1050288D02*
X1231900Y1055367D01*
X1244596Y1060445D02*
X1247135Y1062984D01*
Y1068063D01*
X1244596Y1070602D01*
X1242057D01*
X1239518Y1068063D01*
X1236978Y1070602D01*
X1234439D01*
X1231900Y1068063D01*
Y1062984D01*
X1234439Y1060445D01*
X1236978D01*
X1239518Y1062984D01*
X1242057Y1060445D01*
X1244596D01*
X1239518Y1062984D02*
Y1068063D01*
X1320800Y1012190D02*
X1336035D01*
Y1019808D01*
X1333496Y1022347D01*
X1328418D01*
X1325878Y1019808D01*
Y1012190D01*
Y1017268D02*
X1320800Y1022347D01*
Y1027425D02*
Y1032503D01*
Y1029964D01*
X1336035D01*
X1333496Y1027425D01*
X1320800Y1040121D02*
Y1045199D01*
Y1042660D01*
X1336035D01*
X1333496Y1040121D01*
X1233170Y928370D02*
X1248405D01*
Y935987D01*
X1245866Y938527D01*
X1240788D01*
X1238248Y935987D01*
Y928370D01*
Y933448D02*
X1233170Y938527D01*
Y943605D02*
Y948683D01*
Y946144D01*
X1248405D01*
X1245866Y943605D01*
X1233170Y963919D02*
X1248405D01*
X1240788Y956301D01*
Y966458D01*
X666750Y1026160D02*
Y1041395D01*
X659133D01*
X656593Y1038856D01*
Y1033777D01*
X659133Y1031238D01*
X666750D01*
X661672D02*
X656593Y1026160D01*
X651515D02*
X646437D01*
X648976D01*
Y1041395D01*
X651515Y1038856D01*
X628662Y1041395D02*
X633741Y1038856D01*
X638819Y1033777D01*
Y1028699D01*
X636280Y1026160D01*
X631202D01*
X628662Y1028699D01*
Y1031238D01*
X631202Y1033777D01*
X638819D01*
X1320800Y969010D02*
X1336035D01*
Y976628D01*
X1333496Y979167D01*
X1328418D01*
X1325878Y976628D01*
Y969010D01*
Y974088D02*
X1320800Y979167D01*
Y984245D02*
Y989323D01*
Y986784D01*
X1336035D01*
X1333496Y984245D01*
X1336035Y996941D02*
Y1007098D01*
X1333496D01*
X1323339Y996941D01*
X1320800D01*
X1214120Y1082035D02*
Y1069339D01*
X1211581Y1066800D01*
X1206503D01*
X1203963Y1069339D01*
Y1082035D01*
X1188728Y1066800D02*
X1198885D01*
X1188728Y1076957D01*
Y1079496D01*
X1191267Y1082035D01*
X1196346D01*
X1198885Y1079496D01*
X972820Y1045205D02*
Y1032509D01*
X970281Y1029970D01*
X965202D01*
X962663Y1032509D01*
Y1045205D01*
X957585Y1042666D02*
X955046Y1045205D01*
X949967D01*
X947428Y1042666D01*
Y1040127D01*
X949967Y1037588D01*
X952507D01*
X949967D01*
X947428Y1035048D01*
Y1032509D01*
X949967Y1029970D01*
X955046D01*
X957585Y1032509D01*
X590550Y1004565D02*
X580393D01*
Y1002026D01*
X590550Y991869D01*
Y989330D01*
X580393D01*
X575315D02*
X570237D01*
X572776D01*
Y1004565D01*
X575315Y1002026D01*
D94*
X1168130Y967800D02*
G03*
X1168130Y967800I-2000J0D01*
G01*
D95*
X695960Y1091365D02*
D03*
D96*
X573609Y1087120D02*
D03*
M02*
